M48
; DRILL file {KiCad 7.0.2} date Sun Jan  7 18:37:45 2024
; FORMAT={-:-/ absolute / metric / decimal}
; #@! TF.CreationDate,2024-01-07T18:37:45-06:00
; #@! TF.GenerationSoftware,Kicad,Pcbnew,7.0.2
; #@! TF.FileFunction,Plated,1,2,PTH
FMAT,2
METRIC
; #@! TA.AperFunction,Plated,PTH,ComponentDrill
T1C0.800
; #@! TA.AperFunction,Plated,PTH,ComponentDrill
T2C0.900
; #@! TA.AperFunction,Plated,PTH,ComponentDrill
T3C1.000
; #@! TA.AperFunction,Plated,PTH,ComponentDrill
T4C1.100
; #@! TA.AperFunction,Plated,PTH,ComponentDrill
T5C1.200
; #@! TA.AperFunction,Plated,PTH,ComponentDrill
T6C1.520
; #@! TA.AperFunction,Plated,PTH,ComponentDrill
T7C3.200
%
G90
G05
T1
X95.544Y-112.014
X98.044Y-112.014
X101.575Y-112.014
X101.591Y-122.428
X104.075Y-112.014
X107.179Y-130.556
X107.417Y-112.014
X109.719Y-130.556
X109.917Y-112.014
X111.751Y-122.428
X112.259Y-130.556
X160.265Y-130.556
X161.321Y-112.014
X162.805Y-122.428
X162.805Y-130.556
X163.821Y-112.014
X165.345Y-130.556
X168.433Y-112.014
X170.933Y-112.014
X172.965Y-122.428
X175.356Y-112.014
X177.856Y-112.014
T2
X99.822Y-81.026
X99.822Y-88.646
X104.825Y-81.026
X104.825Y-88.646
X109.728Y-81.026
X109.728Y-88.646
X166.107Y-81.788
X166.107Y-89.408
X170.933Y-81.788
X170.933Y-89.408
X175.759Y-81.788
X175.759Y-89.408
T3
X118.609Y-127.508
X118.609Y-131.318
X121.149Y-127.508
X121.149Y-131.318
X122.423Y-65.278
X123.689Y-127.508
X123.689Y-131.318
X124.963Y-65.278
X147.569Y-65.278
X148.835Y-127.508
X148.835Y-131.318
X150.109Y-65.278
X151.375Y-127.508
X151.375Y-131.318
X153.915Y-127.508
X153.915Y-131.318
T4
X102.616Y-95.758
X105.156Y-95.758
X107.696Y-95.758
X168.393Y-95.758
X170.933Y-95.758
X173.473Y-95.758
T5
X123.056Y-90.424
X123.301Y-108.458
X130.556Y-90.424
X130.801Y-108.458
X143.035Y-108.458
X143.122Y-90.424
X150.535Y-108.458
X150.622Y-90.424
T6
X109.719Y-67.31
X114.799Y-67.31
X131.167Y-129.286
X136.247Y-129.286
X141.327Y-129.286
T7
X96.511Y-68.072
X96.511Y-128.27
X176.775Y-68.072
X176.775Y-128.27
T3
G00X131.952Y-73.374
M15
G01X131.952Y-75.374
M16
G05
G00X137.652Y-71.374
M15
G01X135.652Y-71.374
M16
G05
G00X137.652Y-77.374
M15
G01X135.652Y-77.374
M16
G05
T0
M30
