%TF.GenerationSoftware,KiCad,Pcbnew,7.0.2*%
%TF.CreationDate,2024-01-07T18:37:44-06:00*%
%TF.ProjectId,power_supply,706f7765-725f-4737-9570-706c792e6b69,rev?*%
%TF.SameCoordinates,Original*%
%TF.FileFunction,Legend,Top*%
%TF.FilePolarity,Positive*%
%FSLAX46Y46*%
G04 Gerber Fmt 4.6, Leading zero omitted, Abs format (unit mm)*
G04 Created by KiCad (PCBNEW 7.0.2) date 2024-01-07 18:37:44*
%MOMM*%
%LPD*%
G01*
G04 APERTURE LIST*
%ADD10C,0.150000*%
%ADD11C,0.120000*%
G04 APERTURE END LIST*
D10*
X145018095Y-68076666D02*
X145780000Y-68076666D01*
X146446666Y-67457619D02*
X146637142Y-67457619D01*
X146637142Y-67457619D02*
X146732380Y-67505238D01*
X146732380Y-67505238D02*
X146827618Y-67600476D01*
X146827618Y-67600476D02*
X146875237Y-67790952D01*
X146875237Y-67790952D02*
X146875237Y-68124285D01*
X146875237Y-68124285D02*
X146827618Y-68314761D01*
X146827618Y-68314761D02*
X146732380Y-68410000D01*
X146732380Y-68410000D02*
X146637142Y-68457619D01*
X146637142Y-68457619D02*
X146446666Y-68457619D01*
X146446666Y-68457619D02*
X146351428Y-68410000D01*
X146351428Y-68410000D02*
X146256190Y-68314761D01*
X146256190Y-68314761D02*
X146208571Y-68124285D01*
X146208571Y-68124285D02*
X146208571Y-67790952D01*
X146208571Y-67790952D02*
X146256190Y-67600476D01*
X146256190Y-67600476D02*
X146351428Y-67505238D01*
X146351428Y-67505238D02*
X146446666Y-67457619D01*
X147303809Y-67457619D02*
X147303809Y-68267142D01*
X147303809Y-68267142D02*
X147351428Y-68362380D01*
X147351428Y-68362380D02*
X147399047Y-68410000D01*
X147399047Y-68410000D02*
X147494285Y-68457619D01*
X147494285Y-68457619D02*
X147684761Y-68457619D01*
X147684761Y-68457619D02*
X147779999Y-68410000D01*
X147779999Y-68410000D02*
X147827618Y-68362380D01*
X147827618Y-68362380D02*
X147875237Y-68267142D01*
X147875237Y-68267142D02*
X147875237Y-67457619D01*
X148208571Y-67457619D02*
X148779999Y-67457619D01*
X148494285Y-68457619D02*
X148494285Y-67457619D01*
X150208571Y-67933809D02*
X150351428Y-67981428D01*
X150351428Y-67981428D02*
X150399047Y-68029047D01*
X150399047Y-68029047D02*
X150446666Y-68124285D01*
X150446666Y-68124285D02*
X150446666Y-68267142D01*
X150446666Y-68267142D02*
X150399047Y-68362380D01*
X150399047Y-68362380D02*
X150351428Y-68410000D01*
X150351428Y-68410000D02*
X150256190Y-68457619D01*
X150256190Y-68457619D02*
X149875238Y-68457619D01*
X149875238Y-68457619D02*
X149875238Y-67457619D01*
X149875238Y-67457619D02*
X150208571Y-67457619D01*
X150208571Y-67457619D02*
X150303809Y-67505238D01*
X150303809Y-67505238D02*
X150351428Y-67552857D01*
X150351428Y-67552857D02*
X150399047Y-67648095D01*
X150399047Y-67648095D02*
X150399047Y-67743333D01*
X150399047Y-67743333D02*
X150351428Y-67838571D01*
X150351428Y-67838571D02*
X150303809Y-67886190D01*
X150303809Y-67886190D02*
X150208571Y-67933809D01*
X150208571Y-67933809D02*
X149875238Y-67933809D01*
X150875238Y-67457619D02*
X150875238Y-68267142D01*
X150875238Y-68267142D02*
X150922857Y-68362380D01*
X150922857Y-68362380D02*
X150970476Y-68410000D01*
X150970476Y-68410000D02*
X151065714Y-68457619D01*
X151065714Y-68457619D02*
X151256190Y-68457619D01*
X151256190Y-68457619D02*
X151351428Y-68410000D01*
X151351428Y-68410000D02*
X151399047Y-68362380D01*
X151399047Y-68362380D02*
X151446666Y-68267142D01*
X151446666Y-68267142D02*
X151446666Y-67457619D01*
X152256190Y-67933809D02*
X151922857Y-67933809D01*
X151922857Y-68457619D02*
X151922857Y-67457619D01*
X151922857Y-67457619D02*
X152399047Y-67457619D01*
X121813619Y-69500761D02*
X122813619Y-69167428D01*
X122813619Y-69167428D02*
X121813619Y-68834095D01*
X122813619Y-68500761D02*
X121813619Y-68500761D01*
X122813619Y-68024571D02*
X121813619Y-68024571D01*
X121813619Y-68024571D02*
X122813619Y-67453143D01*
X122813619Y-67453143D02*
X121813619Y-67453143D01*
X124655238Y-69342095D02*
X124607619Y-69437333D01*
X124607619Y-69437333D02*
X124607619Y-69580190D01*
X124607619Y-69580190D02*
X124655238Y-69723047D01*
X124655238Y-69723047D02*
X124750476Y-69818285D01*
X124750476Y-69818285D02*
X124845714Y-69865904D01*
X124845714Y-69865904D02*
X125036190Y-69913523D01*
X125036190Y-69913523D02*
X125179047Y-69913523D01*
X125179047Y-69913523D02*
X125369523Y-69865904D01*
X125369523Y-69865904D02*
X125464761Y-69818285D01*
X125464761Y-69818285D02*
X125560000Y-69723047D01*
X125560000Y-69723047D02*
X125607619Y-69580190D01*
X125607619Y-69580190D02*
X125607619Y-69484952D01*
X125607619Y-69484952D02*
X125560000Y-69342095D01*
X125560000Y-69342095D02*
X125512380Y-69294476D01*
X125512380Y-69294476D02*
X125179047Y-69294476D01*
X125179047Y-69294476D02*
X125179047Y-69484952D01*
X125607619Y-68865904D02*
X124607619Y-68865904D01*
X124607619Y-68865904D02*
X125607619Y-68294476D01*
X125607619Y-68294476D02*
X124607619Y-68294476D01*
X125607619Y-67818285D02*
X124607619Y-67818285D01*
X124607619Y-67818285D02*
X124607619Y-67580190D01*
X124607619Y-67580190D02*
X124655238Y-67437333D01*
X124655238Y-67437333D02*
X124750476Y-67342095D01*
X124750476Y-67342095D02*
X124845714Y-67294476D01*
X124845714Y-67294476D02*
X125036190Y-67246857D01*
X125036190Y-67246857D02*
X125179047Y-67246857D01*
X125179047Y-67246857D02*
X125369523Y-67294476D01*
X125369523Y-67294476D02*
X125464761Y-67342095D01*
X125464761Y-67342095D02*
X125560000Y-67437333D01*
X125560000Y-67437333D02*
X125607619Y-67580190D01*
X125607619Y-67580190D02*
X125607619Y-67818285D01*
X100060095Y-127004666D02*
X100822000Y-127004666D01*
X101869618Y-127290380D02*
X101821999Y-127338000D01*
X101821999Y-127338000D02*
X101679142Y-127385619D01*
X101679142Y-127385619D02*
X101583904Y-127385619D01*
X101583904Y-127385619D02*
X101441047Y-127338000D01*
X101441047Y-127338000D02*
X101345809Y-127242761D01*
X101345809Y-127242761D02*
X101298190Y-127147523D01*
X101298190Y-127147523D02*
X101250571Y-126957047D01*
X101250571Y-126957047D02*
X101250571Y-126814190D01*
X101250571Y-126814190D02*
X101298190Y-126623714D01*
X101298190Y-126623714D02*
X101345809Y-126528476D01*
X101345809Y-126528476D02*
X101441047Y-126433238D01*
X101441047Y-126433238D02*
X101583904Y-126385619D01*
X101583904Y-126385619D02*
X101679142Y-126385619D01*
X101679142Y-126385619D02*
X101821999Y-126433238D01*
X101821999Y-126433238D02*
X101869618Y-126480857D01*
X102488666Y-126385619D02*
X102679142Y-126385619D01*
X102679142Y-126385619D02*
X102774380Y-126433238D01*
X102774380Y-126433238D02*
X102869618Y-126528476D01*
X102869618Y-126528476D02*
X102917237Y-126718952D01*
X102917237Y-126718952D02*
X102917237Y-127052285D01*
X102917237Y-127052285D02*
X102869618Y-127242761D01*
X102869618Y-127242761D02*
X102774380Y-127338000D01*
X102774380Y-127338000D02*
X102679142Y-127385619D01*
X102679142Y-127385619D02*
X102488666Y-127385619D01*
X102488666Y-127385619D02*
X102393428Y-127338000D01*
X102393428Y-127338000D02*
X102298190Y-127242761D01*
X102298190Y-127242761D02*
X102250571Y-127052285D01*
X102250571Y-127052285D02*
X102250571Y-126718952D01*
X102250571Y-126718952D02*
X102298190Y-126528476D01*
X102298190Y-126528476D02*
X102393428Y-126433238D01*
X102393428Y-126433238D02*
X102488666Y-126385619D01*
X103345809Y-127385619D02*
X103345809Y-126385619D01*
X103345809Y-126385619D02*
X103917237Y-127385619D01*
X103917237Y-127385619D02*
X103917237Y-126385619D01*
X104250571Y-126385619D02*
X104821999Y-126385619D01*
X104536285Y-127385619D02*
X104536285Y-126385619D01*
X105726761Y-127385619D02*
X105393428Y-126909428D01*
X105155333Y-127385619D02*
X105155333Y-126385619D01*
X105155333Y-126385619D02*
X105536285Y-126385619D01*
X105536285Y-126385619D02*
X105631523Y-126433238D01*
X105631523Y-126433238D02*
X105679142Y-126480857D01*
X105679142Y-126480857D02*
X105726761Y-126576095D01*
X105726761Y-126576095D02*
X105726761Y-126718952D01*
X105726761Y-126718952D02*
X105679142Y-126814190D01*
X105679142Y-126814190D02*
X105631523Y-126861809D01*
X105631523Y-126861809D02*
X105536285Y-126909428D01*
X105536285Y-126909428D02*
X105155333Y-126909428D01*
X106345809Y-126385619D02*
X106536285Y-126385619D01*
X106536285Y-126385619D02*
X106631523Y-126433238D01*
X106631523Y-126433238D02*
X106726761Y-126528476D01*
X106726761Y-126528476D02*
X106774380Y-126718952D01*
X106774380Y-126718952D02*
X106774380Y-127052285D01*
X106774380Y-127052285D02*
X106726761Y-127242761D01*
X106726761Y-127242761D02*
X106631523Y-127338000D01*
X106631523Y-127338000D02*
X106536285Y-127385619D01*
X106536285Y-127385619D02*
X106345809Y-127385619D01*
X106345809Y-127385619D02*
X106250571Y-127338000D01*
X106250571Y-127338000D02*
X106155333Y-127242761D01*
X106155333Y-127242761D02*
X106107714Y-127052285D01*
X106107714Y-127052285D02*
X106107714Y-126718952D01*
X106107714Y-126718952D02*
X106155333Y-126528476D01*
X106155333Y-126528476D02*
X106250571Y-126433238D01*
X106250571Y-126433238D02*
X106345809Y-126385619D01*
X107679142Y-127385619D02*
X107202952Y-127385619D01*
X107202952Y-127385619D02*
X107202952Y-126385619D01*
X164830095Y-127004666D02*
X165592000Y-127004666D01*
X165211047Y-127385619D02*
X165211047Y-126623714D01*
X166639618Y-127290380D02*
X166591999Y-127338000D01*
X166591999Y-127338000D02*
X166449142Y-127385619D01*
X166449142Y-127385619D02*
X166353904Y-127385619D01*
X166353904Y-127385619D02*
X166211047Y-127338000D01*
X166211047Y-127338000D02*
X166115809Y-127242761D01*
X166115809Y-127242761D02*
X166068190Y-127147523D01*
X166068190Y-127147523D02*
X166020571Y-126957047D01*
X166020571Y-126957047D02*
X166020571Y-126814190D01*
X166020571Y-126814190D02*
X166068190Y-126623714D01*
X166068190Y-126623714D02*
X166115809Y-126528476D01*
X166115809Y-126528476D02*
X166211047Y-126433238D01*
X166211047Y-126433238D02*
X166353904Y-126385619D01*
X166353904Y-126385619D02*
X166449142Y-126385619D01*
X166449142Y-126385619D02*
X166591999Y-126433238D01*
X166591999Y-126433238D02*
X166639618Y-126480857D01*
X167258666Y-126385619D02*
X167449142Y-126385619D01*
X167449142Y-126385619D02*
X167544380Y-126433238D01*
X167544380Y-126433238D02*
X167639618Y-126528476D01*
X167639618Y-126528476D02*
X167687237Y-126718952D01*
X167687237Y-126718952D02*
X167687237Y-127052285D01*
X167687237Y-127052285D02*
X167639618Y-127242761D01*
X167639618Y-127242761D02*
X167544380Y-127338000D01*
X167544380Y-127338000D02*
X167449142Y-127385619D01*
X167449142Y-127385619D02*
X167258666Y-127385619D01*
X167258666Y-127385619D02*
X167163428Y-127338000D01*
X167163428Y-127338000D02*
X167068190Y-127242761D01*
X167068190Y-127242761D02*
X167020571Y-127052285D01*
X167020571Y-127052285D02*
X167020571Y-126718952D01*
X167020571Y-126718952D02*
X167068190Y-126528476D01*
X167068190Y-126528476D02*
X167163428Y-126433238D01*
X167163428Y-126433238D02*
X167258666Y-126385619D01*
X168115809Y-127385619D02*
X168115809Y-126385619D01*
X168115809Y-126385619D02*
X168687237Y-127385619D01*
X168687237Y-127385619D02*
X168687237Y-126385619D01*
X169020571Y-126385619D02*
X169591999Y-126385619D01*
X169306285Y-127385619D02*
X169306285Y-126385619D01*
X170496761Y-127385619D02*
X170163428Y-126909428D01*
X169925333Y-127385619D02*
X169925333Y-126385619D01*
X169925333Y-126385619D02*
X170306285Y-126385619D01*
X170306285Y-126385619D02*
X170401523Y-126433238D01*
X170401523Y-126433238D02*
X170449142Y-126480857D01*
X170449142Y-126480857D02*
X170496761Y-126576095D01*
X170496761Y-126576095D02*
X170496761Y-126718952D01*
X170496761Y-126718952D02*
X170449142Y-126814190D01*
X170449142Y-126814190D02*
X170401523Y-126861809D01*
X170401523Y-126861809D02*
X170306285Y-126909428D01*
X170306285Y-126909428D02*
X169925333Y-126909428D01*
X171115809Y-126385619D02*
X171306285Y-126385619D01*
X171306285Y-126385619D02*
X171401523Y-126433238D01*
X171401523Y-126433238D02*
X171496761Y-126528476D01*
X171496761Y-126528476D02*
X171544380Y-126718952D01*
X171544380Y-126718952D02*
X171544380Y-127052285D01*
X171544380Y-127052285D02*
X171496761Y-127242761D01*
X171496761Y-127242761D02*
X171401523Y-127338000D01*
X171401523Y-127338000D02*
X171306285Y-127385619D01*
X171306285Y-127385619D02*
X171115809Y-127385619D01*
X171115809Y-127385619D02*
X171020571Y-127338000D01*
X171020571Y-127338000D02*
X170925333Y-127242761D01*
X170925333Y-127242761D02*
X170877714Y-127052285D01*
X170877714Y-127052285D02*
X170877714Y-126718952D01*
X170877714Y-126718952D02*
X170925333Y-126528476D01*
X170925333Y-126528476D02*
X171020571Y-126433238D01*
X171020571Y-126433238D02*
X171115809Y-126385619D01*
X172449142Y-127385619D02*
X171972952Y-127385619D01*
X171972952Y-127385619D02*
X171972952Y-126385619D01*
X141482666Y-124729904D02*
X141482666Y-123968000D01*
X140863619Y-123301333D02*
X140863619Y-123110857D01*
X140863619Y-123110857D02*
X140911238Y-123015619D01*
X140911238Y-123015619D02*
X141006476Y-122920381D01*
X141006476Y-122920381D02*
X141196952Y-122872762D01*
X141196952Y-122872762D02*
X141530285Y-122872762D01*
X141530285Y-122872762D02*
X141720761Y-122920381D01*
X141720761Y-122920381D02*
X141816000Y-123015619D01*
X141816000Y-123015619D02*
X141863619Y-123110857D01*
X141863619Y-123110857D02*
X141863619Y-123301333D01*
X141863619Y-123301333D02*
X141816000Y-123396571D01*
X141816000Y-123396571D02*
X141720761Y-123491809D01*
X141720761Y-123491809D02*
X141530285Y-123539428D01*
X141530285Y-123539428D02*
X141196952Y-123539428D01*
X141196952Y-123539428D02*
X141006476Y-123491809D01*
X141006476Y-123491809D02*
X140911238Y-123396571D01*
X140911238Y-123396571D02*
X140863619Y-123301333D01*
X140863619Y-122444190D02*
X141673142Y-122444190D01*
X141673142Y-122444190D02*
X141768380Y-122396571D01*
X141768380Y-122396571D02*
X141816000Y-122348952D01*
X141816000Y-122348952D02*
X141863619Y-122253714D01*
X141863619Y-122253714D02*
X141863619Y-122063238D01*
X141863619Y-122063238D02*
X141816000Y-121968000D01*
X141816000Y-121968000D02*
X141768380Y-121920381D01*
X141768380Y-121920381D02*
X141673142Y-121872762D01*
X141673142Y-121872762D02*
X140863619Y-121872762D01*
X140863619Y-121539428D02*
X140863619Y-120968000D01*
X141863619Y-121253714D02*
X140863619Y-121253714D01*
X131068666Y-124983904D02*
X131068666Y-124222000D01*
X131449619Y-124602952D02*
X130687714Y-124602952D01*
X130449619Y-123555333D02*
X130449619Y-123364857D01*
X130449619Y-123364857D02*
X130497238Y-123269619D01*
X130497238Y-123269619D02*
X130592476Y-123174381D01*
X130592476Y-123174381D02*
X130782952Y-123126762D01*
X130782952Y-123126762D02*
X131116285Y-123126762D01*
X131116285Y-123126762D02*
X131306761Y-123174381D01*
X131306761Y-123174381D02*
X131402000Y-123269619D01*
X131402000Y-123269619D02*
X131449619Y-123364857D01*
X131449619Y-123364857D02*
X131449619Y-123555333D01*
X131449619Y-123555333D02*
X131402000Y-123650571D01*
X131402000Y-123650571D02*
X131306761Y-123745809D01*
X131306761Y-123745809D02*
X131116285Y-123793428D01*
X131116285Y-123793428D02*
X130782952Y-123793428D01*
X130782952Y-123793428D02*
X130592476Y-123745809D01*
X130592476Y-123745809D02*
X130497238Y-123650571D01*
X130497238Y-123650571D02*
X130449619Y-123555333D01*
X130449619Y-122698190D02*
X131259142Y-122698190D01*
X131259142Y-122698190D02*
X131354380Y-122650571D01*
X131354380Y-122650571D02*
X131402000Y-122602952D01*
X131402000Y-122602952D02*
X131449619Y-122507714D01*
X131449619Y-122507714D02*
X131449619Y-122317238D01*
X131449619Y-122317238D02*
X131402000Y-122222000D01*
X131402000Y-122222000D02*
X131354380Y-122174381D01*
X131354380Y-122174381D02*
X131259142Y-122126762D01*
X131259142Y-122126762D02*
X130449619Y-122126762D01*
X130449619Y-121793428D02*
X130449619Y-121222000D01*
X131449619Y-121507714D02*
X130449619Y-121507714D01*
X135831238Y-122682095D02*
X135783619Y-122777333D01*
X135783619Y-122777333D02*
X135783619Y-122920190D01*
X135783619Y-122920190D02*
X135831238Y-123063047D01*
X135831238Y-123063047D02*
X135926476Y-123158285D01*
X135926476Y-123158285D02*
X136021714Y-123205904D01*
X136021714Y-123205904D02*
X136212190Y-123253523D01*
X136212190Y-123253523D02*
X136355047Y-123253523D01*
X136355047Y-123253523D02*
X136545523Y-123205904D01*
X136545523Y-123205904D02*
X136640761Y-123158285D01*
X136640761Y-123158285D02*
X136736000Y-123063047D01*
X136736000Y-123063047D02*
X136783619Y-122920190D01*
X136783619Y-122920190D02*
X136783619Y-122824952D01*
X136783619Y-122824952D02*
X136736000Y-122682095D01*
X136736000Y-122682095D02*
X136688380Y-122634476D01*
X136688380Y-122634476D02*
X136355047Y-122634476D01*
X136355047Y-122634476D02*
X136355047Y-122824952D01*
X136783619Y-122205904D02*
X135783619Y-122205904D01*
X135783619Y-122205904D02*
X136783619Y-121634476D01*
X136783619Y-121634476D02*
X135783619Y-121634476D01*
X136783619Y-121158285D02*
X135783619Y-121158285D01*
X135783619Y-121158285D02*
X135783619Y-120920190D01*
X135783619Y-120920190D02*
X135831238Y-120777333D01*
X135831238Y-120777333D02*
X135926476Y-120682095D01*
X135926476Y-120682095D02*
X136021714Y-120634476D01*
X136021714Y-120634476D02*
X136212190Y-120586857D01*
X136212190Y-120586857D02*
X136355047Y-120586857D01*
X136355047Y-120586857D02*
X136545523Y-120634476D01*
X136545523Y-120634476D02*
X136640761Y-120682095D01*
X136640761Y-120682095D02*
X136736000Y-120777333D01*
X136736000Y-120777333D02*
X136783619Y-120920190D01*
X136783619Y-120920190D02*
X136783619Y-121158285D01*
X148848666Y-125491904D02*
X148848666Y-124730000D01*
X149229619Y-125110952D02*
X148467714Y-125110952D01*
X148229619Y-124063333D02*
X148229619Y-123872857D01*
X148229619Y-123872857D02*
X148277238Y-123777619D01*
X148277238Y-123777619D02*
X148372476Y-123682381D01*
X148372476Y-123682381D02*
X148562952Y-123634762D01*
X148562952Y-123634762D02*
X148896285Y-123634762D01*
X148896285Y-123634762D02*
X149086761Y-123682381D01*
X149086761Y-123682381D02*
X149182000Y-123777619D01*
X149182000Y-123777619D02*
X149229619Y-123872857D01*
X149229619Y-123872857D02*
X149229619Y-124063333D01*
X149229619Y-124063333D02*
X149182000Y-124158571D01*
X149182000Y-124158571D02*
X149086761Y-124253809D01*
X149086761Y-124253809D02*
X148896285Y-124301428D01*
X148896285Y-124301428D02*
X148562952Y-124301428D01*
X148562952Y-124301428D02*
X148372476Y-124253809D01*
X148372476Y-124253809D02*
X148277238Y-124158571D01*
X148277238Y-124158571D02*
X148229619Y-124063333D01*
X148229619Y-123206190D02*
X149039142Y-123206190D01*
X149039142Y-123206190D02*
X149134380Y-123158571D01*
X149134380Y-123158571D02*
X149182000Y-123110952D01*
X149182000Y-123110952D02*
X149229619Y-123015714D01*
X149229619Y-123015714D02*
X149229619Y-122825238D01*
X149229619Y-122825238D02*
X149182000Y-122730000D01*
X149182000Y-122730000D02*
X149134380Y-122682381D01*
X149134380Y-122682381D02*
X149039142Y-122634762D01*
X149039142Y-122634762D02*
X148229619Y-122634762D01*
X148229619Y-122301428D02*
X148229619Y-121730000D01*
X149229619Y-122015714D02*
X148229619Y-122015714D01*
X151071238Y-124714095D02*
X151023619Y-124809333D01*
X151023619Y-124809333D02*
X151023619Y-124952190D01*
X151023619Y-124952190D02*
X151071238Y-125095047D01*
X151071238Y-125095047D02*
X151166476Y-125190285D01*
X151166476Y-125190285D02*
X151261714Y-125237904D01*
X151261714Y-125237904D02*
X151452190Y-125285523D01*
X151452190Y-125285523D02*
X151595047Y-125285523D01*
X151595047Y-125285523D02*
X151785523Y-125237904D01*
X151785523Y-125237904D02*
X151880761Y-125190285D01*
X151880761Y-125190285D02*
X151976000Y-125095047D01*
X151976000Y-125095047D02*
X152023619Y-124952190D01*
X152023619Y-124952190D02*
X152023619Y-124856952D01*
X152023619Y-124856952D02*
X151976000Y-124714095D01*
X151976000Y-124714095D02*
X151928380Y-124666476D01*
X151928380Y-124666476D02*
X151595047Y-124666476D01*
X151595047Y-124666476D02*
X151595047Y-124856952D01*
X152023619Y-124237904D02*
X151023619Y-124237904D01*
X151023619Y-124237904D02*
X152023619Y-123666476D01*
X152023619Y-123666476D02*
X151023619Y-123666476D01*
X152023619Y-123190285D02*
X151023619Y-123190285D01*
X151023619Y-123190285D02*
X151023619Y-122952190D01*
X151023619Y-122952190D02*
X151071238Y-122809333D01*
X151071238Y-122809333D02*
X151166476Y-122714095D01*
X151166476Y-122714095D02*
X151261714Y-122666476D01*
X151261714Y-122666476D02*
X151452190Y-122618857D01*
X151452190Y-122618857D02*
X151595047Y-122618857D01*
X151595047Y-122618857D02*
X151785523Y-122666476D01*
X151785523Y-122666476D02*
X151880761Y-122714095D01*
X151880761Y-122714095D02*
X151976000Y-122809333D01*
X151976000Y-122809333D02*
X152023619Y-122952190D01*
X152023619Y-122952190D02*
X152023619Y-123190285D01*
X153928666Y-125491904D02*
X153928666Y-124730000D01*
X153309619Y-124063333D02*
X153309619Y-123872857D01*
X153309619Y-123872857D02*
X153357238Y-123777619D01*
X153357238Y-123777619D02*
X153452476Y-123682381D01*
X153452476Y-123682381D02*
X153642952Y-123634762D01*
X153642952Y-123634762D02*
X153976285Y-123634762D01*
X153976285Y-123634762D02*
X154166761Y-123682381D01*
X154166761Y-123682381D02*
X154262000Y-123777619D01*
X154262000Y-123777619D02*
X154309619Y-123872857D01*
X154309619Y-123872857D02*
X154309619Y-124063333D01*
X154309619Y-124063333D02*
X154262000Y-124158571D01*
X154262000Y-124158571D02*
X154166761Y-124253809D01*
X154166761Y-124253809D02*
X153976285Y-124301428D01*
X153976285Y-124301428D02*
X153642952Y-124301428D01*
X153642952Y-124301428D02*
X153452476Y-124253809D01*
X153452476Y-124253809D02*
X153357238Y-124158571D01*
X153357238Y-124158571D02*
X153309619Y-124063333D01*
X153309619Y-123206190D02*
X154119142Y-123206190D01*
X154119142Y-123206190D02*
X154214380Y-123158571D01*
X154214380Y-123158571D02*
X154262000Y-123110952D01*
X154262000Y-123110952D02*
X154309619Y-123015714D01*
X154309619Y-123015714D02*
X154309619Y-122825238D01*
X154309619Y-122825238D02*
X154262000Y-122730000D01*
X154262000Y-122730000D02*
X154214380Y-122682381D01*
X154214380Y-122682381D02*
X154119142Y-122634762D01*
X154119142Y-122634762D02*
X153309619Y-122634762D01*
X153309619Y-122301428D02*
X153309619Y-121730000D01*
X154309619Y-122015714D02*
X153309619Y-122015714D01*
X123702666Y-125491904D02*
X123702666Y-124730000D01*
X123083619Y-124063333D02*
X123083619Y-123872857D01*
X123083619Y-123872857D02*
X123131238Y-123777619D01*
X123131238Y-123777619D02*
X123226476Y-123682381D01*
X123226476Y-123682381D02*
X123416952Y-123634762D01*
X123416952Y-123634762D02*
X123750285Y-123634762D01*
X123750285Y-123634762D02*
X123940761Y-123682381D01*
X123940761Y-123682381D02*
X124036000Y-123777619D01*
X124036000Y-123777619D02*
X124083619Y-123872857D01*
X124083619Y-123872857D02*
X124083619Y-124063333D01*
X124083619Y-124063333D02*
X124036000Y-124158571D01*
X124036000Y-124158571D02*
X123940761Y-124253809D01*
X123940761Y-124253809D02*
X123750285Y-124301428D01*
X123750285Y-124301428D02*
X123416952Y-124301428D01*
X123416952Y-124301428D02*
X123226476Y-124253809D01*
X123226476Y-124253809D02*
X123131238Y-124158571D01*
X123131238Y-124158571D02*
X123083619Y-124063333D01*
X123083619Y-123206190D02*
X123893142Y-123206190D01*
X123893142Y-123206190D02*
X123988380Y-123158571D01*
X123988380Y-123158571D02*
X124036000Y-123110952D01*
X124036000Y-123110952D02*
X124083619Y-123015714D01*
X124083619Y-123015714D02*
X124083619Y-122825238D01*
X124083619Y-122825238D02*
X124036000Y-122730000D01*
X124036000Y-122730000D02*
X123988380Y-122682381D01*
X123988380Y-122682381D02*
X123893142Y-122634762D01*
X123893142Y-122634762D02*
X123083619Y-122634762D01*
X123083619Y-122301428D02*
X123083619Y-121730000D01*
X124083619Y-122015714D02*
X123083619Y-122015714D01*
X118622666Y-125491904D02*
X118622666Y-124730000D01*
X119003619Y-125110952D02*
X118241714Y-125110952D01*
X118003619Y-124063333D02*
X118003619Y-123872857D01*
X118003619Y-123872857D02*
X118051238Y-123777619D01*
X118051238Y-123777619D02*
X118146476Y-123682381D01*
X118146476Y-123682381D02*
X118336952Y-123634762D01*
X118336952Y-123634762D02*
X118670285Y-123634762D01*
X118670285Y-123634762D02*
X118860761Y-123682381D01*
X118860761Y-123682381D02*
X118956000Y-123777619D01*
X118956000Y-123777619D02*
X119003619Y-123872857D01*
X119003619Y-123872857D02*
X119003619Y-124063333D01*
X119003619Y-124063333D02*
X118956000Y-124158571D01*
X118956000Y-124158571D02*
X118860761Y-124253809D01*
X118860761Y-124253809D02*
X118670285Y-124301428D01*
X118670285Y-124301428D02*
X118336952Y-124301428D01*
X118336952Y-124301428D02*
X118146476Y-124253809D01*
X118146476Y-124253809D02*
X118051238Y-124158571D01*
X118051238Y-124158571D02*
X118003619Y-124063333D01*
X118003619Y-123206190D02*
X118813142Y-123206190D01*
X118813142Y-123206190D02*
X118908380Y-123158571D01*
X118908380Y-123158571D02*
X118956000Y-123110952D01*
X118956000Y-123110952D02*
X119003619Y-123015714D01*
X119003619Y-123015714D02*
X119003619Y-122825238D01*
X119003619Y-122825238D02*
X118956000Y-122730000D01*
X118956000Y-122730000D02*
X118908380Y-122682381D01*
X118908380Y-122682381D02*
X118813142Y-122634762D01*
X118813142Y-122634762D02*
X118003619Y-122634762D01*
X118003619Y-122301428D02*
X118003619Y-121730000D01*
X119003619Y-122015714D02*
X118003619Y-122015714D01*
X120845238Y-124714095D02*
X120797619Y-124809333D01*
X120797619Y-124809333D02*
X120797619Y-124952190D01*
X120797619Y-124952190D02*
X120845238Y-125095047D01*
X120845238Y-125095047D02*
X120940476Y-125190285D01*
X120940476Y-125190285D02*
X121035714Y-125237904D01*
X121035714Y-125237904D02*
X121226190Y-125285523D01*
X121226190Y-125285523D02*
X121369047Y-125285523D01*
X121369047Y-125285523D02*
X121559523Y-125237904D01*
X121559523Y-125237904D02*
X121654761Y-125190285D01*
X121654761Y-125190285D02*
X121750000Y-125095047D01*
X121750000Y-125095047D02*
X121797619Y-124952190D01*
X121797619Y-124952190D02*
X121797619Y-124856952D01*
X121797619Y-124856952D02*
X121750000Y-124714095D01*
X121750000Y-124714095D02*
X121702380Y-124666476D01*
X121702380Y-124666476D02*
X121369047Y-124666476D01*
X121369047Y-124666476D02*
X121369047Y-124856952D01*
X121797619Y-124237904D02*
X120797619Y-124237904D01*
X120797619Y-124237904D02*
X121797619Y-123666476D01*
X121797619Y-123666476D02*
X120797619Y-123666476D01*
X121797619Y-123190285D02*
X120797619Y-123190285D01*
X120797619Y-123190285D02*
X120797619Y-122952190D01*
X120797619Y-122952190D02*
X120845238Y-122809333D01*
X120845238Y-122809333D02*
X120940476Y-122714095D01*
X120940476Y-122714095D02*
X121035714Y-122666476D01*
X121035714Y-122666476D02*
X121226190Y-122618857D01*
X121226190Y-122618857D02*
X121369047Y-122618857D01*
X121369047Y-122618857D02*
X121559523Y-122666476D01*
X121559523Y-122666476D02*
X121654761Y-122714095D01*
X121654761Y-122714095D02*
X121750000Y-122809333D01*
X121750000Y-122809333D02*
X121797619Y-122952190D01*
X121797619Y-122952190D02*
X121797619Y-123190285D01*
X114447619Y-73818761D02*
X115447619Y-73485428D01*
X115447619Y-73485428D02*
X114447619Y-73152095D01*
X115447619Y-72818761D02*
X114447619Y-72818761D01*
X115447619Y-72342571D02*
X114447619Y-72342571D01*
X114447619Y-72342571D02*
X115447619Y-71771143D01*
X115447619Y-71771143D02*
X114447619Y-71771143D01*
X109161238Y-73660095D02*
X109113619Y-73755333D01*
X109113619Y-73755333D02*
X109113619Y-73898190D01*
X109113619Y-73898190D02*
X109161238Y-74041047D01*
X109161238Y-74041047D02*
X109256476Y-74136285D01*
X109256476Y-74136285D02*
X109351714Y-74183904D01*
X109351714Y-74183904D02*
X109542190Y-74231523D01*
X109542190Y-74231523D02*
X109685047Y-74231523D01*
X109685047Y-74231523D02*
X109875523Y-74183904D01*
X109875523Y-74183904D02*
X109970761Y-74136285D01*
X109970761Y-74136285D02*
X110066000Y-74041047D01*
X110066000Y-74041047D02*
X110113619Y-73898190D01*
X110113619Y-73898190D02*
X110113619Y-73802952D01*
X110113619Y-73802952D02*
X110066000Y-73660095D01*
X110066000Y-73660095D02*
X110018380Y-73612476D01*
X110018380Y-73612476D02*
X109685047Y-73612476D01*
X109685047Y-73612476D02*
X109685047Y-73802952D01*
X110113619Y-73183904D02*
X109113619Y-73183904D01*
X109113619Y-73183904D02*
X110113619Y-72612476D01*
X110113619Y-72612476D02*
X109113619Y-72612476D01*
X110113619Y-72136285D02*
X109113619Y-72136285D01*
X109113619Y-72136285D02*
X109113619Y-71898190D01*
X109113619Y-71898190D02*
X109161238Y-71755333D01*
X109161238Y-71755333D02*
X109256476Y-71660095D01*
X109256476Y-71660095D02*
X109351714Y-71612476D01*
X109351714Y-71612476D02*
X109542190Y-71564857D01*
X109542190Y-71564857D02*
X109685047Y-71564857D01*
X109685047Y-71564857D02*
X109875523Y-71612476D01*
X109875523Y-71612476D02*
X109970761Y-71660095D01*
X109970761Y-71660095D02*
X110066000Y-71755333D01*
X110066000Y-71755333D02*
X110113619Y-71898190D01*
X110113619Y-71898190D02*
X110113619Y-72136285D01*
X145986476Y-71520000D02*
X146129333Y-71567619D01*
X146129333Y-71567619D02*
X146367428Y-71567619D01*
X146367428Y-71567619D02*
X146462666Y-71520000D01*
X146462666Y-71520000D02*
X146510285Y-71472380D01*
X146510285Y-71472380D02*
X146557904Y-71377142D01*
X146557904Y-71377142D02*
X146557904Y-71281904D01*
X146557904Y-71281904D02*
X146510285Y-71186666D01*
X146510285Y-71186666D02*
X146462666Y-71139047D01*
X146462666Y-71139047D02*
X146367428Y-71091428D01*
X146367428Y-71091428D02*
X146176952Y-71043809D01*
X146176952Y-71043809D02*
X146081714Y-70996190D01*
X146081714Y-70996190D02*
X146034095Y-70948571D01*
X146034095Y-70948571D02*
X145986476Y-70853333D01*
X145986476Y-70853333D02*
X145986476Y-70758095D01*
X145986476Y-70758095D02*
X146034095Y-70662857D01*
X146034095Y-70662857D02*
X146081714Y-70615238D01*
X146081714Y-70615238D02*
X146176952Y-70567619D01*
X146176952Y-70567619D02*
X146415047Y-70567619D01*
X146415047Y-70567619D02*
X146557904Y-70615238D01*
X146843619Y-70900952D02*
X147224571Y-70900952D01*
X146986476Y-70567619D02*
X146986476Y-71424761D01*
X146986476Y-71424761D02*
X147034095Y-71520000D01*
X147034095Y-71520000D02*
X147129333Y-71567619D01*
X147129333Y-71567619D02*
X147224571Y-71567619D01*
X147557905Y-71567619D02*
X147557905Y-70900952D01*
X147557905Y-71091428D02*
X147605524Y-70996190D01*
X147605524Y-70996190D02*
X147653143Y-70948571D01*
X147653143Y-70948571D02*
X147748381Y-70900952D01*
X147748381Y-70900952D02*
X147843619Y-70900952D01*
X148605524Y-71567619D02*
X148605524Y-71043809D01*
X148605524Y-71043809D02*
X148557905Y-70948571D01*
X148557905Y-70948571D02*
X148462667Y-70900952D01*
X148462667Y-70900952D02*
X148272191Y-70900952D01*
X148272191Y-70900952D02*
X148176953Y-70948571D01*
X148605524Y-71520000D02*
X148510286Y-71567619D01*
X148510286Y-71567619D02*
X148272191Y-71567619D01*
X148272191Y-71567619D02*
X148176953Y-71520000D01*
X148176953Y-71520000D02*
X148129334Y-71424761D01*
X148129334Y-71424761D02*
X148129334Y-71329523D01*
X148129334Y-71329523D02*
X148176953Y-71234285D01*
X148176953Y-71234285D02*
X148272191Y-71186666D01*
X148272191Y-71186666D02*
X148510286Y-71186666D01*
X148510286Y-71186666D02*
X148605524Y-71139047D01*
X149081715Y-71567619D02*
X149081715Y-70567619D01*
X149510286Y-71567619D02*
X149510286Y-71043809D01*
X149510286Y-71043809D02*
X149462667Y-70948571D01*
X149462667Y-70948571D02*
X149367429Y-70900952D01*
X149367429Y-70900952D02*
X149224572Y-70900952D01*
X149224572Y-70900952D02*
X149129334Y-70948571D01*
X149129334Y-70948571D02*
X149081715Y-70996190D01*
X149986477Y-71567619D02*
X149986477Y-70900952D01*
X149986477Y-70567619D02*
X149938858Y-70615238D01*
X149938858Y-70615238D02*
X149986477Y-70662857D01*
X149986477Y-70662857D02*
X150034096Y-70615238D01*
X150034096Y-70615238D02*
X149986477Y-70567619D01*
X149986477Y-70567619D02*
X149986477Y-70662857D01*
X150462667Y-70900952D02*
X150462667Y-71567619D01*
X150462667Y-70996190D02*
X150510286Y-70948571D01*
X150510286Y-70948571D02*
X150605524Y-70900952D01*
X150605524Y-70900952D02*
X150748381Y-70900952D01*
X150748381Y-70900952D02*
X150843619Y-70948571D01*
X150843619Y-70948571D02*
X150891238Y-71043809D01*
X150891238Y-71043809D02*
X150891238Y-71567619D01*
X151367429Y-70900952D02*
X151367429Y-71758095D01*
X151367429Y-71758095D02*
X151319810Y-71853333D01*
X151319810Y-71853333D02*
X151224572Y-71900952D01*
X151224572Y-71900952D02*
X151176953Y-71900952D01*
X151367429Y-70567619D02*
X151319810Y-70615238D01*
X151319810Y-70615238D02*
X151367429Y-70662857D01*
X151367429Y-70662857D02*
X151415048Y-70615238D01*
X151415048Y-70615238D02*
X151367429Y-70567619D01*
X151367429Y-70567619D02*
X151367429Y-70662857D01*
X152272190Y-71567619D02*
X152272190Y-71043809D01*
X152272190Y-71043809D02*
X152224571Y-70948571D01*
X152224571Y-70948571D02*
X152129333Y-70900952D01*
X152129333Y-70900952D02*
X151938857Y-70900952D01*
X151938857Y-70900952D02*
X151843619Y-70948571D01*
X152272190Y-71520000D02*
X152176952Y-71567619D01*
X152176952Y-71567619D02*
X151938857Y-71567619D01*
X151938857Y-71567619D02*
X151843619Y-71520000D01*
X151843619Y-71520000D02*
X151796000Y-71424761D01*
X151796000Y-71424761D02*
X151796000Y-71329523D01*
X151796000Y-71329523D02*
X151843619Y-71234285D01*
X151843619Y-71234285D02*
X151938857Y-71186666D01*
X151938857Y-71186666D02*
X152176952Y-71186666D01*
X152176952Y-71186666D02*
X152272190Y-71139047D01*
X153510286Y-71567619D02*
X153510286Y-70567619D01*
X153510286Y-70567619D02*
X153843619Y-71281904D01*
X153843619Y-71281904D02*
X154176952Y-70567619D01*
X154176952Y-70567619D02*
X154176952Y-71567619D01*
X155081714Y-71567619D02*
X155081714Y-71043809D01*
X155081714Y-71043809D02*
X155034095Y-70948571D01*
X155034095Y-70948571D02*
X154938857Y-70900952D01*
X154938857Y-70900952D02*
X154748381Y-70900952D01*
X154748381Y-70900952D02*
X154653143Y-70948571D01*
X155081714Y-71520000D02*
X154986476Y-71567619D01*
X154986476Y-71567619D02*
X154748381Y-71567619D01*
X154748381Y-71567619D02*
X154653143Y-71520000D01*
X154653143Y-71520000D02*
X154605524Y-71424761D01*
X154605524Y-71424761D02*
X154605524Y-71329523D01*
X154605524Y-71329523D02*
X154653143Y-71234285D01*
X154653143Y-71234285D02*
X154748381Y-71186666D01*
X154748381Y-71186666D02*
X154986476Y-71186666D01*
X154986476Y-71186666D02*
X155081714Y-71139047D01*
X155557905Y-71567619D02*
X155557905Y-70900952D01*
X155557905Y-71091428D02*
X155605524Y-70996190D01*
X155605524Y-70996190D02*
X155653143Y-70948571D01*
X155653143Y-70948571D02*
X155748381Y-70900952D01*
X155748381Y-70900952D02*
X155843619Y-70900952D01*
X156176953Y-71567619D02*
X156176953Y-70900952D01*
X156176953Y-70567619D02*
X156129334Y-70615238D01*
X156129334Y-70615238D02*
X156176953Y-70662857D01*
X156176953Y-70662857D02*
X156224572Y-70615238D01*
X156224572Y-70615238D02*
X156176953Y-70567619D01*
X156176953Y-70567619D02*
X156176953Y-70662857D01*
X156653143Y-70900952D02*
X156653143Y-71567619D01*
X156653143Y-70996190D02*
X156700762Y-70948571D01*
X156700762Y-70948571D02*
X156796000Y-70900952D01*
X156796000Y-70900952D02*
X156938857Y-70900952D01*
X156938857Y-70900952D02*
X157034095Y-70948571D01*
X157034095Y-70948571D02*
X157081714Y-71043809D01*
X157081714Y-71043809D02*
X157081714Y-71567619D01*
X157557905Y-71567619D02*
X157557905Y-70567619D01*
X157653143Y-71186666D02*
X157938857Y-71567619D01*
X157938857Y-70900952D02*
X157557905Y-71281904D01*
X158510286Y-71567619D02*
X158415048Y-71520000D01*
X158415048Y-71520000D02*
X158367429Y-71472380D01*
X158367429Y-71472380D02*
X158319810Y-71377142D01*
X158319810Y-71377142D02*
X158319810Y-71091428D01*
X158319810Y-71091428D02*
X158367429Y-70996190D01*
X158367429Y-70996190D02*
X158415048Y-70948571D01*
X158415048Y-70948571D02*
X158510286Y-70900952D01*
X158510286Y-70900952D02*
X158653143Y-70900952D01*
X158653143Y-70900952D02*
X158748381Y-70948571D01*
X158748381Y-70948571D02*
X158796000Y-70996190D01*
X158796000Y-70996190D02*
X158843619Y-71091428D01*
X158843619Y-71091428D02*
X158843619Y-71377142D01*
X158843619Y-71377142D02*
X158796000Y-71472380D01*
X158796000Y-71472380D02*
X158748381Y-71520000D01*
X158748381Y-71520000D02*
X158653143Y-71567619D01*
X158653143Y-71567619D02*
X158510286Y-71567619D01*
X159176953Y-70900952D02*
X159415048Y-71567619D01*
X159415048Y-71567619D02*
X159653143Y-70900952D01*
X160034096Y-71567619D02*
X160034096Y-70900952D01*
X160034096Y-70567619D02*
X159986477Y-70615238D01*
X159986477Y-70615238D02*
X160034096Y-70662857D01*
X160034096Y-70662857D02*
X160081715Y-70615238D01*
X160081715Y-70615238D02*
X160034096Y-70567619D01*
X160034096Y-70567619D02*
X160034096Y-70662857D01*
X160938857Y-71520000D02*
X160843619Y-71567619D01*
X160843619Y-71567619D02*
X160653143Y-71567619D01*
X160653143Y-71567619D02*
X160557905Y-71520000D01*
X160557905Y-71520000D02*
X160510286Y-71472380D01*
X160510286Y-71472380D02*
X160462667Y-71377142D01*
X160462667Y-71377142D02*
X160462667Y-71091428D01*
X160462667Y-71091428D02*
X160510286Y-70996190D01*
X160510286Y-70996190D02*
X160557905Y-70948571D01*
X160557905Y-70948571D02*
X160653143Y-70900952D01*
X160653143Y-70900952D02*
X160843619Y-70900952D01*
X160843619Y-70900952D02*
X160938857Y-70948571D01*
X146319809Y-72187619D02*
X146319809Y-72901904D01*
X146319809Y-72901904D02*
X146272190Y-73044761D01*
X146272190Y-73044761D02*
X146176952Y-73140000D01*
X146176952Y-73140000D02*
X146034095Y-73187619D01*
X146034095Y-73187619D02*
X145938857Y-73187619D01*
X147224571Y-73187619D02*
X147224571Y-72663809D01*
X147224571Y-72663809D02*
X147176952Y-72568571D01*
X147176952Y-72568571D02*
X147081714Y-72520952D01*
X147081714Y-72520952D02*
X146891238Y-72520952D01*
X146891238Y-72520952D02*
X146796000Y-72568571D01*
X147224571Y-73140000D02*
X147129333Y-73187619D01*
X147129333Y-73187619D02*
X146891238Y-73187619D01*
X146891238Y-73187619D02*
X146796000Y-73140000D01*
X146796000Y-73140000D02*
X146748381Y-73044761D01*
X146748381Y-73044761D02*
X146748381Y-72949523D01*
X146748381Y-72949523D02*
X146796000Y-72854285D01*
X146796000Y-72854285D02*
X146891238Y-72806666D01*
X146891238Y-72806666D02*
X147129333Y-72806666D01*
X147129333Y-72806666D02*
X147224571Y-72759047D01*
X147700762Y-72520952D02*
X147700762Y-73187619D01*
X147700762Y-72616190D02*
X147748381Y-72568571D01*
X147748381Y-72568571D02*
X147843619Y-72520952D01*
X147843619Y-72520952D02*
X147986476Y-72520952D01*
X147986476Y-72520952D02*
X148081714Y-72568571D01*
X148081714Y-72568571D02*
X148129333Y-72663809D01*
X148129333Y-72663809D02*
X148129333Y-73187619D01*
X148605524Y-73092380D02*
X148653143Y-73140000D01*
X148653143Y-73140000D02*
X148605524Y-73187619D01*
X148605524Y-73187619D02*
X148557905Y-73140000D01*
X148557905Y-73140000D02*
X148605524Y-73092380D01*
X148605524Y-73092380D02*
X148605524Y-73187619D01*
X149796000Y-72282857D02*
X149843619Y-72235238D01*
X149843619Y-72235238D02*
X149938857Y-72187619D01*
X149938857Y-72187619D02*
X150176952Y-72187619D01*
X150176952Y-72187619D02*
X150272190Y-72235238D01*
X150272190Y-72235238D02*
X150319809Y-72282857D01*
X150319809Y-72282857D02*
X150367428Y-72378095D01*
X150367428Y-72378095D02*
X150367428Y-72473333D01*
X150367428Y-72473333D02*
X150319809Y-72616190D01*
X150319809Y-72616190D02*
X149748381Y-73187619D01*
X149748381Y-73187619D02*
X150367428Y-73187619D01*
X150986476Y-72187619D02*
X151081714Y-72187619D01*
X151081714Y-72187619D02*
X151176952Y-72235238D01*
X151176952Y-72235238D02*
X151224571Y-72282857D01*
X151224571Y-72282857D02*
X151272190Y-72378095D01*
X151272190Y-72378095D02*
X151319809Y-72568571D01*
X151319809Y-72568571D02*
X151319809Y-72806666D01*
X151319809Y-72806666D02*
X151272190Y-72997142D01*
X151272190Y-72997142D02*
X151224571Y-73092380D01*
X151224571Y-73092380D02*
X151176952Y-73140000D01*
X151176952Y-73140000D02*
X151081714Y-73187619D01*
X151081714Y-73187619D02*
X150986476Y-73187619D01*
X150986476Y-73187619D02*
X150891238Y-73140000D01*
X150891238Y-73140000D02*
X150843619Y-73092380D01*
X150843619Y-73092380D02*
X150796000Y-72997142D01*
X150796000Y-72997142D02*
X150748381Y-72806666D01*
X150748381Y-72806666D02*
X150748381Y-72568571D01*
X150748381Y-72568571D02*
X150796000Y-72378095D01*
X150796000Y-72378095D02*
X150843619Y-72282857D01*
X150843619Y-72282857D02*
X150891238Y-72235238D01*
X150891238Y-72235238D02*
X150986476Y-72187619D01*
X151700762Y-72282857D02*
X151748381Y-72235238D01*
X151748381Y-72235238D02*
X151843619Y-72187619D01*
X151843619Y-72187619D02*
X152081714Y-72187619D01*
X152081714Y-72187619D02*
X152176952Y-72235238D01*
X152176952Y-72235238D02*
X152224571Y-72282857D01*
X152224571Y-72282857D02*
X152272190Y-72378095D01*
X152272190Y-72378095D02*
X152272190Y-72473333D01*
X152272190Y-72473333D02*
X152224571Y-72616190D01*
X152224571Y-72616190D02*
X151653143Y-73187619D01*
X151653143Y-73187619D02*
X152272190Y-73187619D01*
X153129333Y-72520952D02*
X153129333Y-73187619D01*
X152891238Y-72140000D02*
X152653143Y-72854285D01*
X152653143Y-72854285D02*
X153272190Y-72854285D01*
X145986476Y-74521904D02*
X146462666Y-74521904D01*
X145891238Y-74807619D02*
X146224571Y-73807619D01*
X146224571Y-73807619D02*
X146557904Y-74807619D01*
X147319809Y-74807619D02*
X147319809Y-73807619D01*
X147319809Y-74760000D02*
X147224571Y-74807619D01*
X147224571Y-74807619D02*
X147034095Y-74807619D01*
X147034095Y-74807619D02*
X146938857Y-74760000D01*
X146938857Y-74760000D02*
X146891238Y-74712380D01*
X146891238Y-74712380D02*
X146843619Y-74617142D01*
X146843619Y-74617142D02*
X146843619Y-74331428D01*
X146843619Y-74331428D02*
X146891238Y-74236190D01*
X146891238Y-74236190D02*
X146938857Y-74188571D01*
X146938857Y-74188571D02*
X147034095Y-74140952D01*
X147034095Y-74140952D02*
X147224571Y-74140952D01*
X147224571Y-74140952D02*
X147319809Y-74188571D01*
X147796000Y-74140952D02*
X147796000Y-74998095D01*
X147796000Y-74998095D02*
X147748381Y-75093333D01*
X147748381Y-75093333D02*
X147653143Y-75140952D01*
X147653143Y-75140952D02*
X147605524Y-75140952D01*
X147796000Y-73807619D02*
X147748381Y-73855238D01*
X147748381Y-73855238D02*
X147796000Y-73902857D01*
X147796000Y-73902857D02*
X147843619Y-73855238D01*
X147843619Y-73855238D02*
X147796000Y-73807619D01*
X147796000Y-73807619D02*
X147796000Y-73902857D01*
X148700761Y-74140952D02*
X148700761Y-74807619D01*
X148272190Y-74140952D02*
X148272190Y-74664761D01*
X148272190Y-74664761D02*
X148319809Y-74760000D01*
X148319809Y-74760000D02*
X148415047Y-74807619D01*
X148415047Y-74807619D02*
X148557904Y-74807619D01*
X148557904Y-74807619D02*
X148653142Y-74760000D01*
X148653142Y-74760000D02*
X148700761Y-74712380D01*
X149129333Y-74760000D02*
X149224571Y-74807619D01*
X149224571Y-74807619D02*
X149415047Y-74807619D01*
X149415047Y-74807619D02*
X149510285Y-74760000D01*
X149510285Y-74760000D02*
X149557904Y-74664761D01*
X149557904Y-74664761D02*
X149557904Y-74617142D01*
X149557904Y-74617142D02*
X149510285Y-74521904D01*
X149510285Y-74521904D02*
X149415047Y-74474285D01*
X149415047Y-74474285D02*
X149272190Y-74474285D01*
X149272190Y-74474285D02*
X149176952Y-74426666D01*
X149176952Y-74426666D02*
X149129333Y-74331428D01*
X149129333Y-74331428D02*
X149129333Y-74283809D01*
X149129333Y-74283809D02*
X149176952Y-74188571D01*
X149176952Y-74188571D02*
X149272190Y-74140952D01*
X149272190Y-74140952D02*
X149415047Y-74140952D01*
X149415047Y-74140952D02*
X149510285Y-74188571D01*
X149843619Y-74140952D02*
X150224571Y-74140952D01*
X149986476Y-73807619D02*
X149986476Y-74664761D01*
X149986476Y-74664761D02*
X150034095Y-74760000D01*
X150034095Y-74760000D02*
X150129333Y-74807619D01*
X150129333Y-74807619D02*
X150224571Y-74807619D01*
X150986476Y-74807619D02*
X150986476Y-74283809D01*
X150986476Y-74283809D02*
X150938857Y-74188571D01*
X150938857Y-74188571D02*
X150843619Y-74140952D01*
X150843619Y-74140952D02*
X150653143Y-74140952D01*
X150653143Y-74140952D02*
X150557905Y-74188571D01*
X150986476Y-74760000D02*
X150891238Y-74807619D01*
X150891238Y-74807619D02*
X150653143Y-74807619D01*
X150653143Y-74807619D02*
X150557905Y-74760000D01*
X150557905Y-74760000D02*
X150510286Y-74664761D01*
X150510286Y-74664761D02*
X150510286Y-74569523D01*
X150510286Y-74569523D02*
X150557905Y-74474285D01*
X150557905Y-74474285D02*
X150653143Y-74426666D01*
X150653143Y-74426666D02*
X150891238Y-74426666D01*
X150891238Y-74426666D02*
X150986476Y-74379047D01*
X151462667Y-74807619D02*
X151462667Y-73807619D01*
X151462667Y-74188571D02*
X151557905Y-74140952D01*
X151557905Y-74140952D02*
X151748381Y-74140952D01*
X151748381Y-74140952D02*
X151843619Y-74188571D01*
X151843619Y-74188571D02*
X151891238Y-74236190D01*
X151891238Y-74236190D02*
X151938857Y-74331428D01*
X151938857Y-74331428D02*
X151938857Y-74617142D01*
X151938857Y-74617142D02*
X151891238Y-74712380D01*
X151891238Y-74712380D02*
X151843619Y-74760000D01*
X151843619Y-74760000D02*
X151748381Y-74807619D01*
X151748381Y-74807619D02*
X151557905Y-74807619D01*
X151557905Y-74807619D02*
X151462667Y-74760000D01*
X152510286Y-74807619D02*
X152415048Y-74760000D01*
X152415048Y-74760000D02*
X152367429Y-74664761D01*
X152367429Y-74664761D02*
X152367429Y-73807619D01*
X153272191Y-74760000D02*
X153176953Y-74807619D01*
X153176953Y-74807619D02*
X152986477Y-74807619D01*
X152986477Y-74807619D02*
X152891239Y-74760000D01*
X152891239Y-74760000D02*
X152843620Y-74664761D01*
X152843620Y-74664761D02*
X152843620Y-74283809D01*
X152843620Y-74283809D02*
X152891239Y-74188571D01*
X152891239Y-74188571D02*
X152986477Y-74140952D01*
X152986477Y-74140952D02*
X153176953Y-74140952D01*
X153176953Y-74140952D02*
X153272191Y-74188571D01*
X153272191Y-74188571D02*
X153319810Y-74283809D01*
X153319810Y-74283809D02*
X153319810Y-74379047D01*
X153319810Y-74379047D02*
X152843620Y-74474285D01*
X154510287Y-74807619D02*
X154510287Y-73807619D01*
X154510287Y-73807619D02*
X154891239Y-73807619D01*
X154891239Y-73807619D02*
X154986477Y-73855238D01*
X154986477Y-73855238D02*
X155034096Y-73902857D01*
X155034096Y-73902857D02*
X155081715Y-73998095D01*
X155081715Y-73998095D02*
X155081715Y-74140952D01*
X155081715Y-74140952D02*
X155034096Y-74236190D01*
X155034096Y-74236190D02*
X154986477Y-74283809D01*
X154986477Y-74283809D02*
X154891239Y-74331428D01*
X154891239Y-74331428D02*
X154510287Y-74331428D01*
X155653144Y-74807619D02*
X155557906Y-74760000D01*
X155557906Y-74760000D02*
X155510287Y-74712380D01*
X155510287Y-74712380D02*
X155462668Y-74617142D01*
X155462668Y-74617142D02*
X155462668Y-74331428D01*
X155462668Y-74331428D02*
X155510287Y-74236190D01*
X155510287Y-74236190D02*
X155557906Y-74188571D01*
X155557906Y-74188571D02*
X155653144Y-74140952D01*
X155653144Y-74140952D02*
X155796001Y-74140952D01*
X155796001Y-74140952D02*
X155891239Y-74188571D01*
X155891239Y-74188571D02*
X155938858Y-74236190D01*
X155938858Y-74236190D02*
X155986477Y-74331428D01*
X155986477Y-74331428D02*
X155986477Y-74617142D01*
X155986477Y-74617142D02*
X155938858Y-74712380D01*
X155938858Y-74712380D02*
X155891239Y-74760000D01*
X155891239Y-74760000D02*
X155796001Y-74807619D01*
X155796001Y-74807619D02*
X155653144Y-74807619D01*
X156319811Y-74140952D02*
X156510287Y-74807619D01*
X156510287Y-74807619D02*
X156700763Y-74331428D01*
X156700763Y-74331428D02*
X156891239Y-74807619D01*
X156891239Y-74807619D02*
X157081715Y-74140952D01*
X157843620Y-74760000D02*
X157748382Y-74807619D01*
X157748382Y-74807619D02*
X157557906Y-74807619D01*
X157557906Y-74807619D02*
X157462668Y-74760000D01*
X157462668Y-74760000D02*
X157415049Y-74664761D01*
X157415049Y-74664761D02*
X157415049Y-74283809D01*
X157415049Y-74283809D02*
X157462668Y-74188571D01*
X157462668Y-74188571D02*
X157557906Y-74140952D01*
X157557906Y-74140952D02*
X157748382Y-74140952D01*
X157748382Y-74140952D02*
X157843620Y-74188571D01*
X157843620Y-74188571D02*
X157891239Y-74283809D01*
X157891239Y-74283809D02*
X157891239Y-74379047D01*
X157891239Y-74379047D02*
X157415049Y-74474285D01*
X158319811Y-74807619D02*
X158319811Y-74140952D01*
X158319811Y-74331428D02*
X158367430Y-74236190D01*
X158367430Y-74236190D02*
X158415049Y-74188571D01*
X158415049Y-74188571D02*
X158510287Y-74140952D01*
X158510287Y-74140952D02*
X158605525Y-74140952D01*
X159653145Y-74760000D02*
X159796002Y-74807619D01*
X159796002Y-74807619D02*
X160034097Y-74807619D01*
X160034097Y-74807619D02*
X160129335Y-74760000D01*
X160129335Y-74760000D02*
X160176954Y-74712380D01*
X160176954Y-74712380D02*
X160224573Y-74617142D01*
X160224573Y-74617142D02*
X160224573Y-74521904D01*
X160224573Y-74521904D02*
X160176954Y-74426666D01*
X160176954Y-74426666D02*
X160129335Y-74379047D01*
X160129335Y-74379047D02*
X160034097Y-74331428D01*
X160034097Y-74331428D02*
X159843621Y-74283809D01*
X159843621Y-74283809D02*
X159748383Y-74236190D01*
X159748383Y-74236190D02*
X159700764Y-74188571D01*
X159700764Y-74188571D02*
X159653145Y-74093333D01*
X159653145Y-74093333D02*
X159653145Y-73998095D01*
X159653145Y-73998095D02*
X159700764Y-73902857D01*
X159700764Y-73902857D02*
X159748383Y-73855238D01*
X159748383Y-73855238D02*
X159843621Y-73807619D01*
X159843621Y-73807619D02*
X160081716Y-73807619D01*
X160081716Y-73807619D02*
X160224573Y-73855238D01*
X161081716Y-74140952D02*
X161081716Y-74807619D01*
X160653145Y-74140952D02*
X160653145Y-74664761D01*
X160653145Y-74664761D02*
X160700764Y-74760000D01*
X160700764Y-74760000D02*
X160796002Y-74807619D01*
X160796002Y-74807619D02*
X160938859Y-74807619D01*
X160938859Y-74807619D02*
X161034097Y-74760000D01*
X161034097Y-74760000D02*
X161081716Y-74712380D01*
X161557907Y-74140952D02*
X161557907Y-75140952D01*
X161557907Y-74188571D02*
X161653145Y-74140952D01*
X161653145Y-74140952D02*
X161843621Y-74140952D01*
X161843621Y-74140952D02*
X161938859Y-74188571D01*
X161938859Y-74188571D02*
X161986478Y-74236190D01*
X161986478Y-74236190D02*
X162034097Y-74331428D01*
X162034097Y-74331428D02*
X162034097Y-74617142D01*
X162034097Y-74617142D02*
X161986478Y-74712380D01*
X161986478Y-74712380D02*
X161938859Y-74760000D01*
X161938859Y-74760000D02*
X161843621Y-74807619D01*
X161843621Y-74807619D02*
X161653145Y-74807619D01*
X161653145Y-74807619D02*
X161557907Y-74760000D01*
X162462669Y-74140952D02*
X162462669Y-75140952D01*
X162462669Y-74188571D02*
X162557907Y-74140952D01*
X162557907Y-74140952D02*
X162748383Y-74140952D01*
X162748383Y-74140952D02*
X162843621Y-74188571D01*
X162843621Y-74188571D02*
X162891240Y-74236190D01*
X162891240Y-74236190D02*
X162938859Y-74331428D01*
X162938859Y-74331428D02*
X162938859Y-74617142D01*
X162938859Y-74617142D02*
X162891240Y-74712380D01*
X162891240Y-74712380D02*
X162843621Y-74760000D01*
X162843621Y-74760000D02*
X162748383Y-74807619D01*
X162748383Y-74807619D02*
X162557907Y-74807619D01*
X162557907Y-74807619D02*
X162462669Y-74760000D01*
X163510288Y-74807619D02*
X163415050Y-74760000D01*
X163415050Y-74760000D02*
X163367431Y-74664761D01*
X163367431Y-74664761D02*
X163367431Y-73807619D01*
X163796003Y-74140952D02*
X164034098Y-74807619D01*
X164272193Y-74140952D02*
X164034098Y-74807619D01*
X164034098Y-74807619D02*
X163938860Y-75045714D01*
X163938860Y-75045714D02*
X163891241Y-75093333D01*
X163891241Y-75093333D02*
X163796003Y-75140952D01*
X165319813Y-74140952D02*
X165557908Y-74807619D01*
X165557908Y-74807619D02*
X165796003Y-74140952D01*
X166129337Y-73902857D02*
X166176956Y-73855238D01*
X166176956Y-73855238D02*
X166272194Y-73807619D01*
X166272194Y-73807619D02*
X166510289Y-73807619D01*
X166510289Y-73807619D02*
X166605527Y-73855238D01*
X166605527Y-73855238D02*
X166653146Y-73902857D01*
X166653146Y-73902857D02*
X166700765Y-73998095D01*
X166700765Y-73998095D02*
X166700765Y-74093333D01*
X166700765Y-74093333D02*
X166653146Y-74236190D01*
X166653146Y-74236190D02*
X166081718Y-74807619D01*
X166081718Y-74807619D02*
X166700765Y-74807619D01*
%TO.C,J8*%
X115741403Y-127841333D02*
X116455688Y-127841333D01*
X116455688Y-127841333D02*
X116598545Y-127888952D01*
X116598545Y-127888952D02*
X116693784Y-127984190D01*
X116693784Y-127984190D02*
X116741403Y-128127047D01*
X116741403Y-128127047D02*
X116741403Y-128222285D01*
X116169974Y-127222285D02*
X116122355Y-127317523D01*
X116122355Y-127317523D02*
X116074736Y-127365142D01*
X116074736Y-127365142D02*
X115979498Y-127412761D01*
X115979498Y-127412761D02*
X115931879Y-127412761D01*
X115931879Y-127412761D02*
X115836641Y-127365142D01*
X115836641Y-127365142D02*
X115789022Y-127317523D01*
X115789022Y-127317523D02*
X115741403Y-127222285D01*
X115741403Y-127222285D02*
X115741403Y-127031809D01*
X115741403Y-127031809D02*
X115789022Y-126936571D01*
X115789022Y-126936571D02*
X115836641Y-126888952D01*
X115836641Y-126888952D02*
X115931879Y-126841333D01*
X115931879Y-126841333D02*
X115979498Y-126841333D01*
X115979498Y-126841333D02*
X116074736Y-126888952D01*
X116074736Y-126888952D02*
X116122355Y-126936571D01*
X116122355Y-126936571D02*
X116169974Y-127031809D01*
X116169974Y-127031809D02*
X116169974Y-127222285D01*
X116169974Y-127222285D02*
X116217593Y-127317523D01*
X116217593Y-127317523D02*
X116265212Y-127365142D01*
X116265212Y-127365142D02*
X116360450Y-127412761D01*
X116360450Y-127412761D02*
X116550926Y-127412761D01*
X116550926Y-127412761D02*
X116646164Y-127365142D01*
X116646164Y-127365142D02*
X116693784Y-127317523D01*
X116693784Y-127317523D02*
X116741403Y-127222285D01*
X116741403Y-127222285D02*
X116741403Y-127031809D01*
X116741403Y-127031809D02*
X116693784Y-126936571D01*
X116693784Y-126936571D02*
X116646164Y-126888952D01*
X116646164Y-126888952D02*
X116550926Y-126841333D01*
X116550926Y-126841333D02*
X116360450Y-126841333D01*
X116360450Y-126841333D02*
X116265212Y-126888952D01*
X116265212Y-126888952D02*
X116217593Y-126936571D01*
X116217593Y-126936571D02*
X116169974Y-127031809D01*
%TO.C,J7*%
X145967403Y-127841333D02*
X146681688Y-127841333D01*
X146681688Y-127841333D02*
X146824545Y-127888952D01*
X146824545Y-127888952D02*
X146919784Y-127984190D01*
X146919784Y-127984190D02*
X146967403Y-128127047D01*
X146967403Y-128127047D02*
X146967403Y-128222285D01*
X145967403Y-127460380D02*
X145967403Y-126793714D01*
X145967403Y-126793714D02*
X146967403Y-127222285D01*
%TO.C,RV2*%
X109123545Y-127358619D02*
X108790212Y-126882428D01*
X108552117Y-127358619D02*
X108552117Y-126358619D01*
X108552117Y-126358619D02*
X108933069Y-126358619D01*
X108933069Y-126358619D02*
X109028307Y-126406238D01*
X109028307Y-126406238D02*
X109075926Y-126453857D01*
X109075926Y-126453857D02*
X109123545Y-126549095D01*
X109123545Y-126549095D02*
X109123545Y-126691952D01*
X109123545Y-126691952D02*
X109075926Y-126787190D01*
X109075926Y-126787190D02*
X109028307Y-126834809D01*
X109028307Y-126834809D02*
X108933069Y-126882428D01*
X108933069Y-126882428D02*
X108552117Y-126882428D01*
X109409260Y-126358619D02*
X109742593Y-127358619D01*
X109742593Y-127358619D02*
X110075926Y-126358619D01*
X110361641Y-126453857D02*
X110409260Y-126406238D01*
X110409260Y-126406238D02*
X110504498Y-126358619D01*
X110504498Y-126358619D02*
X110742593Y-126358619D01*
X110742593Y-126358619D02*
X110837831Y-126406238D01*
X110837831Y-126406238D02*
X110885450Y-126453857D01*
X110885450Y-126453857D02*
X110933069Y-126549095D01*
X110933069Y-126549095D02*
X110933069Y-126644333D01*
X110933069Y-126644333D02*
X110885450Y-126787190D01*
X110885450Y-126787190D02*
X110314022Y-127358619D01*
X110314022Y-127358619D02*
X110933069Y-127358619D01*
%TO.C,RV1*%
X162209545Y-127358619D02*
X161876212Y-126882428D01*
X161638117Y-127358619D02*
X161638117Y-126358619D01*
X161638117Y-126358619D02*
X162019069Y-126358619D01*
X162019069Y-126358619D02*
X162114307Y-126406238D01*
X162114307Y-126406238D02*
X162161926Y-126453857D01*
X162161926Y-126453857D02*
X162209545Y-126549095D01*
X162209545Y-126549095D02*
X162209545Y-126691952D01*
X162209545Y-126691952D02*
X162161926Y-126787190D01*
X162161926Y-126787190D02*
X162114307Y-126834809D01*
X162114307Y-126834809D02*
X162019069Y-126882428D01*
X162019069Y-126882428D02*
X161638117Y-126882428D01*
X162495260Y-126358619D02*
X162828593Y-127358619D01*
X162828593Y-127358619D02*
X163161926Y-126358619D01*
X164019069Y-127358619D02*
X163447641Y-127358619D01*
X163733355Y-127358619D02*
X163733355Y-126358619D01*
X163733355Y-126358619D02*
X163638117Y-126501476D01*
X163638117Y-126501476D02*
X163542879Y-126596714D01*
X163542879Y-126596714D02*
X163447641Y-126644333D01*
%TO.C,U2*%
X104394095Y-99490619D02*
X104394095Y-100300142D01*
X104394095Y-100300142D02*
X104441714Y-100395380D01*
X104441714Y-100395380D02*
X104489333Y-100443000D01*
X104489333Y-100443000D02*
X104584571Y-100490619D01*
X104584571Y-100490619D02*
X104775047Y-100490619D01*
X104775047Y-100490619D02*
X104870285Y-100443000D01*
X104870285Y-100443000D02*
X104917904Y-100395380D01*
X104917904Y-100395380D02*
X104965523Y-100300142D01*
X104965523Y-100300142D02*
X104965523Y-99490619D01*
X105394095Y-99585857D02*
X105441714Y-99538238D01*
X105441714Y-99538238D02*
X105536952Y-99490619D01*
X105536952Y-99490619D02*
X105775047Y-99490619D01*
X105775047Y-99490619D02*
X105870285Y-99538238D01*
X105870285Y-99538238D02*
X105917904Y-99585857D01*
X105917904Y-99585857D02*
X105965523Y-99681095D01*
X105965523Y-99681095D02*
X105965523Y-99776333D01*
X105965523Y-99776333D02*
X105917904Y-99919190D01*
X105917904Y-99919190D02*
X105346476Y-100490619D01*
X105346476Y-100490619D02*
X105965523Y-100490619D01*
%TO.C,U1*%
X170170879Y-99490619D02*
X170170879Y-100300142D01*
X170170879Y-100300142D02*
X170218498Y-100395380D01*
X170218498Y-100395380D02*
X170266117Y-100443000D01*
X170266117Y-100443000D02*
X170361355Y-100490619D01*
X170361355Y-100490619D02*
X170551831Y-100490619D01*
X170551831Y-100490619D02*
X170647069Y-100443000D01*
X170647069Y-100443000D02*
X170694688Y-100395380D01*
X170694688Y-100395380D02*
X170742307Y-100300142D01*
X170742307Y-100300142D02*
X170742307Y-99490619D01*
X171742307Y-100490619D02*
X171170879Y-100490619D01*
X171456593Y-100490619D02*
X171456593Y-99490619D01*
X171456593Y-99490619D02*
X171361355Y-99633476D01*
X171361355Y-99633476D02*
X171266117Y-99728714D01*
X171266117Y-99728714D02*
X171170879Y-99776333D01*
%TO.C,R2*%
X106504117Y-120520619D02*
X106170784Y-120044428D01*
X105932689Y-120520619D02*
X105932689Y-119520619D01*
X105932689Y-119520619D02*
X106313641Y-119520619D01*
X106313641Y-119520619D02*
X106408879Y-119568238D01*
X106408879Y-119568238D02*
X106456498Y-119615857D01*
X106456498Y-119615857D02*
X106504117Y-119711095D01*
X106504117Y-119711095D02*
X106504117Y-119853952D01*
X106504117Y-119853952D02*
X106456498Y-119949190D01*
X106456498Y-119949190D02*
X106408879Y-119996809D01*
X106408879Y-119996809D02*
X106313641Y-120044428D01*
X106313641Y-120044428D02*
X105932689Y-120044428D01*
X106885070Y-119615857D02*
X106932689Y-119568238D01*
X106932689Y-119568238D02*
X107027927Y-119520619D01*
X107027927Y-119520619D02*
X107266022Y-119520619D01*
X107266022Y-119520619D02*
X107361260Y-119568238D01*
X107361260Y-119568238D02*
X107408879Y-119615857D01*
X107408879Y-119615857D02*
X107456498Y-119711095D01*
X107456498Y-119711095D02*
X107456498Y-119806333D01*
X107456498Y-119806333D02*
X107408879Y-119949190D01*
X107408879Y-119949190D02*
X106837451Y-120520619D01*
X106837451Y-120520619D02*
X107456498Y-120520619D01*
%TO.C,R1*%
X167718117Y-120520619D02*
X167384784Y-120044428D01*
X167146689Y-120520619D02*
X167146689Y-119520619D01*
X167146689Y-119520619D02*
X167527641Y-119520619D01*
X167527641Y-119520619D02*
X167622879Y-119568238D01*
X167622879Y-119568238D02*
X167670498Y-119615857D01*
X167670498Y-119615857D02*
X167718117Y-119711095D01*
X167718117Y-119711095D02*
X167718117Y-119853952D01*
X167718117Y-119853952D02*
X167670498Y-119949190D01*
X167670498Y-119949190D02*
X167622879Y-119996809D01*
X167622879Y-119996809D02*
X167527641Y-120044428D01*
X167527641Y-120044428D02*
X167146689Y-120044428D01*
X168670498Y-120520619D02*
X168099070Y-120520619D01*
X168384784Y-120520619D02*
X168384784Y-119520619D01*
X168384784Y-119520619D02*
X168289546Y-119663476D01*
X168289546Y-119663476D02*
X168194308Y-119758714D01*
X168194308Y-119758714D02*
X168099070Y-119806333D01*
%TO.C,JP1*%
X144701619Y-66111333D02*
X145415904Y-66111333D01*
X145415904Y-66111333D02*
X145558761Y-66158952D01*
X145558761Y-66158952D02*
X145654000Y-66254190D01*
X145654000Y-66254190D02*
X145701619Y-66397047D01*
X145701619Y-66397047D02*
X145701619Y-66492285D01*
X145701619Y-65635142D02*
X144701619Y-65635142D01*
X144701619Y-65635142D02*
X144701619Y-65254190D01*
X144701619Y-65254190D02*
X144749238Y-65158952D01*
X144749238Y-65158952D02*
X144796857Y-65111333D01*
X144796857Y-65111333D02*
X144892095Y-65063714D01*
X144892095Y-65063714D02*
X145034952Y-65063714D01*
X145034952Y-65063714D02*
X145130190Y-65111333D01*
X145130190Y-65111333D02*
X145177809Y-65158952D01*
X145177809Y-65158952D02*
X145225428Y-65254190D01*
X145225428Y-65254190D02*
X145225428Y-65635142D01*
X145701619Y-64111333D02*
X145701619Y-64682761D01*
X145701619Y-64397047D02*
X144701619Y-64397047D01*
X144701619Y-64397047D02*
X144844476Y-64492285D01*
X144844476Y-64492285D02*
X144939714Y-64587523D01*
X144939714Y-64587523D02*
X144987333Y-64682761D01*
%TO.C,J6*%
X135883450Y-124098619D02*
X135883450Y-124812904D01*
X135883450Y-124812904D02*
X135835831Y-124955761D01*
X135835831Y-124955761D02*
X135740593Y-125051000D01*
X135740593Y-125051000D02*
X135597736Y-125098619D01*
X135597736Y-125098619D02*
X135502498Y-125098619D01*
X136788212Y-124098619D02*
X136597736Y-124098619D01*
X136597736Y-124098619D02*
X136502498Y-124146238D01*
X136502498Y-124146238D02*
X136454879Y-124193857D01*
X136454879Y-124193857D02*
X136359641Y-124336714D01*
X136359641Y-124336714D02*
X136312022Y-124527190D01*
X136312022Y-124527190D02*
X136312022Y-124908142D01*
X136312022Y-124908142D02*
X136359641Y-125003380D01*
X136359641Y-125003380D02*
X136407260Y-125051000D01*
X136407260Y-125051000D02*
X136502498Y-125098619D01*
X136502498Y-125098619D02*
X136692974Y-125098619D01*
X136692974Y-125098619D02*
X136788212Y-125051000D01*
X136788212Y-125051000D02*
X136835831Y-125003380D01*
X136835831Y-125003380D02*
X136883450Y-124908142D01*
X136883450Y-124908142D02*
X136883450Y-124670047D01*
X136883450Y-124670047D02*
X136835831Y-124574809D01*
X136835831Y-124574809D02*
X136788212Y-124527190D01*
X136788212Y-124527190D02*
X136692974Y-124479571D01*
X136692974Y-124479571D02*
X136502498Y-124479571D01*
X136502498Y-124479571D02*
X136407260Y-124527190D01*
X136407260Y-124527190D02*
X136359641Y-124574809D01*
X136359641Y-124574809D02*
X136312022Y-124670047D01*
%TO.C,J5*%
X111925450Y-71852619D02*
X111925450Y-72566904D01*
X111925450Y-72566904D02*
X111877831Y-72709761D01*
X111877831Y-72709761D02*
X111782593Y-72805000D01*
X111782593Y-72805000D02*
X111639736Y-72852619D01*
X111639736Y-72852619D02*
X111544498Y-72852619D01*
X112877831Y-71852619D02*
X112401641Y-71852619D01*
X112401641Y-71852619D02*
X112354022Y-72328809D01*
X112354022Y-72328809D02*
X112401641Y-72281190D01*
X112401641Y-72281190D02*
X112496879Y-72233571D01*
X112496879Y-72233571D02*
X112734974Y-72233571D01*
X112734974Y-72233571D02*
X112830212Y-72281190D01*
X112830212Y-72281190D02*
X112877831Y-72328809D01*
X112877831Y-72328809D02*
X112925450Y-72424047D01*
X112925450Y-72424047D02*
X112925450Y-72662142D01*
X112925450Y-72662142D02*
X112877831Y-72757380D01*
X112877831Y-72757380D02*
X112830212Y-72805000D01*
X112830212Y-72805000D02*
X112734974Y-72852619D01*
X112734974Y-72852619D02*
X112496879Y-72852619D01*
X112496879Y-72852619D02*
X112401641Y-72805000D01*
X112401641Y-72805000D02*
X112354022Y-72757380D01*
%TO.C,J4*%
X145967403Y-131651333D02*
X146681688Y-131651333D01*
X146681688Y-131651333D02*
X146824545Y-131698952D01*
X146824545Y-131698952D02*
X146919784Y-131794190D01*
X146919784Y-131794190D02*
X146967403Y-131937047D01*
X146967403Y-131937047D02*
X146967403Y-132032285D01*
X146300736Y-130746571D02*
X146967403Y-130746571D01*
X145919784Y-130984666D02*
X146634069Y-131222761D01*
X146634069Y-131222761D02*
X146634069Y-130603714D01*
%TO.C,J3*%
X115741403Y-131651333D02*
X116455688Y-131651333D01*
X116455688Y-131651333D02*
X116598545Y-131698952D01*
X116598545Y-131698952D02*
X116693784Y-131794190D01*
X116693784Y-131794190D02*
X116741403Y-131937047D01*
X116741403Y-131937047D02*
X116741403Y-132032285D01*
X115741403Y-131270380D02*
X115741403Y-130651333D01*
X115741403Y-130651333D02*
X116122355Y-130984666D01*
X116122355Y-130984666D02*
X116122355Y-130841809D01*
X116122355Y-130841809D02*
X116169974Y-130746571D01*
X116169974Y-130746571D02*
X116217593Y-130698952D01*
X116217593Y-130698952D02*
X116312831Y-130651333D01*
X116312831Y-130651333D02*
X116550926Y-130651333D01*
X116550926Y-130651333D02*
X116646164Y-130698952D01*
X116646164Y-130698952D02*
X116693784Y-130746571D01*
X116693784Y-130746571D02*
X116741403Y-130841809D01*
X116741403Y-130841809D02*
X116741403Y-131127523D01*
X116741403Y-131127523D02*
X116693784Y-131222761D01*
X116693784Y-131222761D02*
X116646164Y-131270380D01*
%TO.C,J2*%
X119555619Y-65611333D02*
X120269904Y-65611333D01*
X120269904Y-65611333D02*
X120412761Y-65658952D01*
X120412761Y-65658952D02*
X120508000Y-65754190D01*
X120508000Y-65754190D02*
X120555619Y-65897047D01*
X120555619Y-65897047D02*
X120555619Y-65992285D01*
X119650857Y-65182761D02*
X119603238Y-65135142D01*
X119603238Y-65135142D02*
X119555619Y-65039904D01*
X119555619Y-65039904D02*
X119555619Y-64801809D01*
X119555619Y-64801809D02*
X119603238Y-64706571D01*
X119603238Y-64706571D02*
X119650857Y-64658952D01*
X119650857Y-64658952D02*
X119746095Y-64611333D01*
X119746095Y-64611333D02*
X119841333Y-64611333D01*
X119841333Y-64611333D02*
X119984190Y-64658952D01*
X119984190Y-64658952D02*
X120555619Y-65230380D01*
X120555619Y-65230380D02*
X120555619Y-64611333D01*
%TO.C,J1*%
X130364619Y-69257333D02*
X131078904Y-69257333D01*
X131078904Y-69257333D02*
X131221761Y-69304952D01*
X131221761Y-69304952D02*
X131317000Y-69400190D01*
X131317000Y-69400190D02*
X131364619Y-69543047D01*
X131364619Y-69543047D02*
X131364619Y-69638285D01*
X131364619Y-68257333D02*
X131364619Y-68828761D01*
X131364619Y-68543047D02*
X130364619Y-68543047D01*
X130364619Y-68543047D02*
X130507476Y-68638285D01*
X130507476Y-68638285D02*
X130602714Y-68733523D01*
X130602714Y-68733523D02*
X130650333Y-68828761D01*
%TO.C,H4*%
X95748879Y-124932619D02*
X95748879Y-123932619D01*
X95748879Y-124408809D02*
X96320307Y-124408809D01*
X96320307Y-124932619D02*
X96320307Y-123932619D01*
X97225069Y-124265952D02*
X97225069Y-124932619D01*
X96986974Y-123885000D02*
X96748879Y-124599285D01*
X96748879Y-124599285D02*
X97367926Y-124599285D01*
%TO.C,H3*%
X176012879Y-124932619D02*
X176012879Y-123932619D01*
X176012879Y-124408809D02*
X176584307Y-124408809D01*
X176584307Y-124932619D02*
X176584307Y-123932619D01*
X176965260Y-123932619D02*
X177584307Y-123932619D01*
X177584307Y-123932619D02*
X177250974Y-124313571D01*
X177250974Y-124313571D02*
X177393831Y-124313571D01*
X177393831Y-124313571D02*
X177489069Y-124361190D01*
X177489069Y-124361190D02*
X177536688Y-124408809D01*
X177536688Y-124408809D02*
X177584307Y-124504047D01*
X177584307Y-124504047D02*
X177584307Y-124742142D01*
X177584307Y-124742142D02*
X177536688Y-124837380D01*
X177536688Y-124837380D02*
X177489069Y-124885000D01*
X177489069Y-124885000D02*
X177393831Y-124932619D01*
X177393831Y-124932619D02*
X177108117Y-124932619D01*
X177108117Y-124932619D02*
X177012879Y-124885000D01*
X177012879Y-124885000D02*
X176965260Y-124837380D01*
%TO.C,H2*%
X176012879Y-64734619D02*
X176012879Y-63734619D01*
X176012879Y-64210809D02*
X176584307Y-64210809D01*
X176584307Y-64734619D02*
X176584307Y-63734619D01*
X177012879Y-63829857D02*
X177060498Y-63782238D01*
X177060498Y-63782238D02*
X177155736Y-63734619D01*
X177155736Y-63734619D02*
X177393831Y-63734619D01*
X177393831Y-63734619D02*
X177489069Y-63782238D01*
X177489069Y-63782238D02*
X177536688Y-63829857D01*
X177536688Y-63829857D02*
X177584307Y-63925095D01*
X177584307Y-63925095D02*
X177584307Y-64020333D01*
X177584307Y-64020333D02*
X177536688Y-64163190D01*
X177536688Y-64163190D02*
X176965260Y-64734619D01*
X176965260Y-64734619D02*
X177584307Y-64734619D01*
%TO.C,H1*%
X95748879Y-64734619D02*
X95748879Y-63734619D01*
X95748879Y-64210809D02*
X96320307Y-64210809D01*
X96320307Y-64734619D02*
X96320307Y-63734619D01*
X97320307Y-64734619D02*
X96748879Y-64734619D01*
X97034593Y-64734619D02*
X97034593Y-63734619D01*
X97034593Y-63734619D02*
X96939355Y-63877476D01*
X96939355Y-63877476D02*
X96844117Y-63972714D01*
X96844117Y-63972714D02*
X96748879Y-64020333D01*
%TO.C,D6*%
X107720619Y-85574094D02*
X106720619Y-85574094D01*
X106720619Y-85574094D02*
X106720619Y-85335999D01*
X106720619Y-85335999D02*
X106768238Y-85193142D01*
X106768238Y-85193142D02*
X106863476Y-85097904D01*
X106863476Y-85097904D02*
X106958714Y-85050285D01*
X106958714Y-85050285D02*
X107149190Y-85002666D01*
X107149190Y-85002666D02*
X107292047Y-85002666D01*
X107292047Y-85002666D02*
X107482523Y-85050285D01*
X107482523Y-85050285D02*
X107577761Y-85097904D01*
X107577761Y-85097904D02*
X107673000Y-85193142D01*
X107673000Y-85193142D02*
X107720619Y-85335999D01*
X107720619Y-85335999D02*
X107720619Y-85574094D01*
X106720619Y-84145523D02*
X106720619Y-84335999D01*
X106720619Y-84335999D02*
X106768238Y-84431237D01*
X106768238Y-84431237D02*
X106815857Y-84478856D01*
X106815857Y-84478856D02*
X106958714Y-84574094D01*
X106958714Y-84574094D02*
X107149190Y-84621713D01*
X107149190Y-84621713D02*
X107530142Y-84621713D01*
X107530142Y-84621713D02*
X107625380Y-84574094D01*
X107625380Y-84574094D02*
X107673000Y-84526475D01*
X107673000Y-84526475D02*
X107720619Y-84431237D01*
X107720619Y-84431237D02*
X107720619Y-84240761D01*
X107720619Y-84240761D02*
X107673000Y-84145523D01*
X107673000Y-84145523D02*
X107625380Y-84097904D01*
X107625380Y-84097904D02*
X107530142Y-84050285D01*
X107530142Y-84050285D02*
X107292047Y-84050285D01*
X107292047Y-84050285D02*
X107196809Y-84097904D01*
X107196809Y-84097904D02*
X107149190Y-84145523D01*
X107149190Y-84145523D02*
X107101571Y-84240761D01*
X107101571Y-84240761D02*
X107101571Y-84431237D01*
X107101571Y-84431237D02*
X107149190Y-84526475D01*
X107149190Y-84526475D02*
X107196809Y-84574094D01*
X107196809Y-84574094D02*
X107292047Y-84621713D01*
X108290619Y-88907904D02*
X107290619Y-88907904D01*
X108290619Y-88336476D02*
X107719190Y-88765047D01*
X107290619Y-88336476D02*
X107862047Y-88907904D01*
%TO.C,D5*%
X102817403Y-85574094D02*
X101817403Y-85574094D01*
X101817403Y-85574094D02*
X101817403Y-85335999D01*
X101817403Y-85335999D02*
X101865022Y-85193142D01*
X101865022Y-85193142D02*
X101960260Y-85097904D01*
X101960260Y-85097904D02*
X102055498Y-85050285D01*
X102055498Y-85050285D02*
X102245974Y-85002666D01*
X102245974Y-85002666D02*
X102388831Y-85002666D01*
X102388831Y-85002666D02*
X102579307Y-85050285D01*
X102579307Y-85050285D02*
X102674545Y-85097904D01*
X102674545Y-85097904D02*
X102769784Y-85193142D01*
X102769784Y-85193142D02*
X102817403Y-85335999D01*
X102817403Y-85335999D02*
X102817403Y-85574094D01*
X101817403Y-84097904D02*
X101817403Y-84574094D01*
X101817403Y-84574094D02*
X102293593Y-84621713D01*
X102293593Y-84621713D02*
X102245974Y-84574094D01*
X102245974Y-84574094D02*
X102198355Y-84478856D01*
X102198355Y-84478856D02*
X102198355Y-84240761D01*
X102198355Y-84240761D02*
X102245974Y-84145523D01*
X102245974Y-84145523D02*
X102293593Y-84097904D01*
X102293593Y-84097904D02*
X102388831Y-84050285D01*
X102388831Y-84050285D02*
X102626926Y-84050285D01*
X102626926Y-84050285D02*
X102722164Y-84097904D01*
X102722164Y-84097904D02*
X102769784Y-84145523D01*
X102769784Y-84145523D02*
X102817403Y-84240761D01*
X102817403Y-84240761D02*
X102817403Y-84478856D01*
X102817403Y-84478856D02*
X102769784Y-84574094D01*
X102769784Y-84574094D02*
X102722164Y-84621713D01*
X103387403Y-88907904D02*
X102387403Y-88907904D01*
X103387403Y-88336476D02*
X102815974Y-88765047D01*
X102387403Y-88336476D02*
X102958831Y-88907904D01*
%TO.C,D4*%
X97814619Y-85574094D02*
X96814619Y-85574094D01*
X96814619Y-85574094D02*
X96814619Y-85335999D01*
X96814619Y-85335999D02*
X96862238Y-85193142D01*
X96862238Y-85193142D02*
X96957476Y-85097904D01*
X96957476Y-85097904D02*
X97052714Y-85050285D01*
X97052714Y-85050285D02*
X97243190Y-85002666D01*
X97243190Y-85002666D02*
X97386047Y-85002666D01*
X97386047Y-85002666D02*
X97576523Y-85050285D01*
X97576523Y-85050285D02*
X97671761Y-85097904D01*
X97671761Y-85097904D02*
X97767000Y-85193142D01*
X97767000Y-85193142D02*
X97814619Y-85335999D01*
X97814619Y-85335999D02*
X97814619Y-85574094D01*
X97147952Y-84145523D02*
X97814619Y-84145523D01*
X96767000Y-84383618D02*
X97481285Y-84621713D01*
X97481285Y-84621713D02*
X97481285Y-84002666D01*
X98384619Y-88907904D02*
X97384619Y-88907904D01*
X98384619Y-88336476D02*
X97813190Y-88765047D01*
X97384619Y-88336476D02*
X97956047Y-88907904D01*
%TO.C,D3*%
X178691403Y-86336094D02*
X177691403Y-86336094D01*
X177691403Y-86336094D02*
X177691403Y-86097999D01*
X177691403Y-86097999D02*
X177739022Y-85955142D01*
X177739022Y-85955142D02*
X177834260Y-85859904D01*
X177834260Y-85859904D02*
X177929498Y-85812285D01*
X177929498Y-85812285D02*
X178119974Y-85764666D01*
X178119974Y-85764666D02*
X178262831Y-85764666D01*
X178262831Y-85764666D02*
X178453307Y-85812285D01*
X178453307Y-85812285D02*
X178548545Y-85859904D01*
X178548545Y-85859904D02*
X178643784Y-85955142D01*
X178643784Y-85955142D02*
X178691403Y-86097999D01*
X178691403Y-86097999D02*
X178691403Y-86336094D01*
X177691403Y-85431332D02*
X177691403Y-84812285D01*
X177691403Y-84812285D02*
X178072355Y-85145618D01*
X178072355Y-85145618D02*
X178072355Y-85002761D01*
X178072355Y-85002761D02*
X178119974Y-84907523D01*
X178119974Y-84907523D02*
X178167593Y-84859904D01*
X178167593Y-84859904D02*
X178262831Y-84812285D01*
X178262831Y-84812285D02*
X178500926Y-84812285D01*
X178500926Y-84812285D02*
X178596164Y-84859904D01*
X178596164Y-84859904D02*
X178643784Y-84907523D01*
X178643784Y-84907523D02*
X178691403Y-85002761D01*
X178691403Y-85002761D02*
X178691403Y-85288475D01*
X178691403Y-85288475D02*
X178643784Y-85383713D01*
X178643784Y-85383713D02*
X178596164Y-85431332D01*
X178121403Y-82049904D02*
X177121403Y-82049904D01*
X178121403Y-81478476D02*
X177549974Y-81907047D01*
X177121403Y-81478476D02*
X177692831Y-82049904D01*
%TO.C,D2*%
X173865403Y-86336094D02*
X172865403Y-86336094D01*
X172865403Y-86336094D02*
X172865403Y-86097999D01*
X172865403Y-86097999D02*
X172913022Y-85955142D01*
X172913022Y-85955142D02*
X173008260Y-85859904D01*
X173008260Y-85859904D02*
X173103498Y-85812285D01*
X173103498Y-85812285D02*
X173293974Y-85764666D01*
X173293974Y-85764666D02*
X173436831Y-85764666D01*
X173436831Y-85764666D02*
X173627307Y-85812285D01*
X173627307Y-85812285D02*
X173722545Y-85859904D01*
X173722545Y-85859904D02*
X173817784Y-85955142D01*
X173817784Y-85955142D02*
X173865403Y-86097999D01*
X173865403Y-86097999D02*
X173865403Y-86336094D01*
X172960641Y-85383713D02*
X172913022Y-85336094D01*
X172913022Y-85336094D02*
X172865403Y-85240856D01*
X172865403Y-85240856D02*
X172865403Y-85002761D01*
X172865403Y-85002761D02*
X172913022Y-84907523D01*
X172913022Y-84907523D02*
X172960641Y-84859904D01*
X172960641Y-84859904D02*
X173055879Y-84812285D01*
X173055879Y-84812285D02*
X173151117Y-84812285D01*
X173151117Y-84812285D02*
X173293974Y-84859904D01*
X173293974Y-84859904D02*
X173865403Y-85431332D01*
X173865403Y-85431332D02*
X173865403Y-84812285D01*
X173295403Y-82049904D02*
X172295403Y-82049904D01*
X173295403Y-81478476D02*
X172723974Y-81907047D01*
X172295403Y-81478476D02*
X172866831Y-82049904D01*
%TO.C,D1*%
X169039403Y-86336094D02*
X168039403Y-86336094D01*
X168039403Y-86336094D02*
X168039403Y-86097999D01*
X168039403Y-86097999D02*
X168087022Y-85955142D01*
X168087022Y-85955142D02*
X168182260Y-85859904D01*
X168182260Y-85859904D02*
X168277498Y-85812285D01*
X168277498Y-85812285D02*
X168467974Y-85764666D01*
X168467974Y-85764666D02*
X168610831Y-85764666D01*
X168610831Y-85764666D02*
X168801307Y-85812285D01*
X168801307Y-85812285D02*
X168896545Y-85859904D01*
X168896545Y-85859904D02*
X168991784Y-85955142D01*
X168991784Y-85955142D02*
X169039403Y-86097999D01*
X169039403Y-86097999D02*
X169039403Y-86336094D01*
X169039403Y-84812285D02*
X169039403Y-85383713D01*
X169039403Y-85097999D02*
X168039403Y-85097999D01*
X168039403Y-85097999D02*
X168182260Y-85193237D01*
X168182260Y-85193237D02*
X168277498Y-85288475D01*
X168277498Y-85288475D02*
X168325117Y-85383713D01*
X168469403Y-82049904D02*
X167469403Y-82049904D01*
X168469403Y-81478476D02*
X167897974Y-81907047D01*
X167469403Y-81478476D02*
X168040831Y-82049904D01*
%TO.C,C11*%
X146141706Y-119075380D02*
X146094087Y-119123000D01*
X146094087Y-119123000D02*
X145951230Y-119170619D01*
X145951230Y-119170619D02*
X145855992Y-119170619D01*
X145855992Y-119170619D02*
X145713135Y-119123000D01*
X145713135Y-119123000D02*
X145617897Y-119027761D01*
X145617897Y-119027761D02*
X145570278Y-118932523D01*
X145570278Y-118932523D02*
X145522659Y-118742047D01*
X145522659Y-118742047D02*
X145522659Y-118599190D01*
X145522659Y-118599190D02*
X145570278Y-118408714D01*
X145570278Y-118408714D02*
X145617897Y-118313476D01*
X145617897Y-118313476D02*
X145713135Y-118218238D01*
X145713135Y-118218238D02*
X145855992Y-118170619D01*
X145855992Y-118170619D02*
X145951230Y-118170619D01*
X145951230Y-118170619D02*
X146094087Y-118218238D01*
X146094087Y-118218238D02*
X146141706Y-118265857D01*
X147094087Y-119170619D02*
X146522659Y-119170619D01*
X146808373Y-119170619D02*
X146808373Y-118170619D01*
X146808373Y-118170619D02*
X146713135Y-118313476D01*
X146713135Y-118313476D02*
X146617897Y-118408714D01*
X146617897Y-118408714D02*
X146522659Y-118456333D01*
X148046468Y-119170619D02*
X147475040Y-119170619D01*
X147760754Y-119170619D02*
X147760754Y-118170619D01*
X147760754Y-118170619D02*
X147665516Y-118313476D01*
X147665516Y-118313476D02*
X147570278Y-118408714D01*
X147570278Y-118408714D02*
X147475040Y-118456333D01*
%TO.C,C9*%
X126639333Y-98541380D02*
X126591714Y-98589000D01*
X126591714Y-98589000D02*
X126448857Y-98636619D01*
X126448857Y-98636619D02*
X126353619Y-98636619D01*
X126353619Y-98636619D02*
X126210762Y-98589000D01*
X126210762Y-98589000D02*
X126115524Y-98493761D01*
X126115524Y-98493761D02*
X126067905Y-98398523D01*
X126067905Y-98398523D02*
X126020286Y-98208047D01*
X126020286Y-98208047D02*
X126020286Y-98065190D01*
X126020286Y-98065190D02*
X126067905Y-97874714D01*
X126067905Y-97874714D02*
X126115524Y-97779476D01*
X126115524Y-97779476D02*
X126210762Y-97684238D01*
X126210762Y-97684238D02*
X126353619Y-97636619D01*
X126353619Y-97636619D02*
X126448857Y-97636619D01*
X126448857Y-97636619D02*
X126591714Y-97684238D01*
X126591714Y-97684238D02*
X126639333Y-97731857D01*
X127115524Y-98636619D02*
X127306000Y-98636619D01*
X127306000Y-98636619D02*
X127401238Y-98589000D01*
X127401238Y-98589000D02*
X127448857Y-98541380D01*
X127448857Y-98541380D02*
X127544095Y-98398523D01*
X127544095Y-98398523D02*
X127591714Y-98208047D01*
X127591714Y-98208047D02*
X127591714Y-97827095D01*
X127591714Y-97827095D02*
X127544095Y-97731857D01*
X127544095Y-97731857D02*
X127496476Y-97684238D01*
X127496476Y-97684238D02*
X127401238Y-97636619D01*
X127401238Y-97636619D02*
X127210762Y-97636619D01*
X127210762Y-97636619D02*
X127115524Y-97684238D01*
X127115524Y-97684238D02*
X127067905Y-97731857D01*
X127067905Y-97731857D02*
X127020286Y-97827095D01*
X127020286Y-97827095D02*
X127020286Y-98065190D01*
X127020286Y-98065190D02*
X127067905Y-98160428D01*
X127067905Y-98160428D02*
X127115524Y-98208047D01*
X127115524Y-98208047D02*
X127210762Y-98255666D01*
X127210762Y-98255666D02*
X127401238Y-98255666D01*
X127401238Y-98255666D02*
X127496476Y-98208047D01*
X127496476Y-98208047D02*
X127544095Y-98160428D01*
X127544095Y-98160428D02*
X127591714Y-98065190D01*
%TO.C,C8*%
X162404117Y-116131380D02*
X162356498Y-116179000D01*
X162356498Y-116179000D02*
X162213641Y-116226619D01*
X162213641Y-116226619D02*
X162118403Y-116226619D01*
X162118403Y-116226619D02*
X161975546Y-116179000D01*
X161975546Y-116179000D02*
X161880308Y-116083761D01*
X161880308Y-116083761D02*
X161832689Y-115988523D01*
X161832689Y-115988523D02*
X161785070Y-115798047D01*
X161785070Y-115798047D02*
X161785070Y-115655190D01*
X161785070Y-115655190D02*
X161832689Y-115464714D01*
X161832689Y-115464714D02*
X161880308Y-115369476D01*
X161880308Y-115369476D02*
X161975546Y-115274238D01*
X161975546Y-115274238D02*
X162118403Y-115226619D01*
X162118403Y-115226619D02*
X162213641Y-115226619D01*
X162213641Y-115226619D02*
X162356498Y-115274238D01*
X162356498Y-115274238D02*
X162404117Y-115321857D01*
X162975546Y-115655190D02*
X162880308Y-115607571D01*
X162880308Y-115607571D02*
X162832689Y-115559952D01*
X162832689Y-115559952D02*
X162785070Y-115464714D01*
X162785070Y-115464714D02*
X162785070Y-115417095D01*
X162785070Y-115417095D02*
X162832689Y-115321857D01*
X162832689Y-115321857D02*
X162880308Y-115274238D01*
X162880308Y-115274238D02*
X162975546Y-115226619D01*
X162975546Y-115226619D02*
X163166022Y-115226619D01*
X163166022Y-115226619D02*
X163261260Y-115274238D01*
X163261260Y-115274238D02*
X163308879Y-115321857D01*
X163308879Y-115321857D02*
X163356498Y-115417095D01*
X163356498Y-115417095D02*
X163356498Y-115464714D01*
X163356498Y-115464714D02*
X163308879Y-115559952D01*
X163308879Y-115559952D02*
X163261260Y-115607571D01*
X163261260Y-115607571D02*
X163166022Y-115655190D01*
X163166022Y-115655190D02*
X162975546Y-115655190D01*
X162975546Y-115655190D02*
X162880308Y-115702809D01*
X162880308Y-115702809D02*
X162832689Y-115750428D01*
X162832689Y-115750428D02*
X162785070Y-115845666D01*
X162785070Y-115845666D02*
X162785070Y-116036142D01*
X162785070Y-116036142D02*
X162832689Y-116131380D01*
X162832689Y-116131380D02*
X162880308Y-116179000D01*
X162880308Y-116179000D02*
X162975546Y-116226619D01*
X162975546Y-116226619D02*
X163166022Y-116226619D01*
X163166022Y-116226619D02*
X163261260Y-116179000D01*
X163261260Y-116179000D02*
X163308879Y-116131380D01*
X163308879Y-116131380D02*
X163356498Y-116036142D01*
X163356498Y-116036142D02*
X163356498Y-115845666D01*
X163356498Y-115845666D02*
X163308879Y-115750428D01*
X163308879Y-115750428D02*
X163261260Y-115702809D01*
X163261260Y-115702809D02*
X163166022Y-115655190D01*
%TO.C,C7*%
X176439005Y-116131380D02*
X176391386Y-116179000D01*
X176391386Y-116179000D02*
X176248529Y-116226619D01*
X176248529Y-116226619D02*
X176153291Y-116226619D01*
X176153291Y-116226619D02*
X176010434Y-116179000D01*
X176010434Y-116179000D02*
X175915196Y-116083761D01*
X175915196Y-116083761D02*
X175867577Y-115988523D01*
X175867577Y-115988523D02*
X175819958Y-115798047D01*
X175819958Y-115798047D02*
X175819958Y-115655190D01*
X175819958Y-115655190D02*
X175867577Y-115464714D01*
X175867577Y-115464714D02*
X175915196Y-115369476D01*
X175915196Y-115369476D02*
X176010434Y-115274238D01*
X176010434Y-115274238D02*
X176153291Y-115226619D01*
X176153291Y-115226619D02*
X176248529Y-115226619D01*
X176248529Y-115226619D02*
X176391386Y-115274238D01*
X176391386Y-115274238D02*
X176439005Y-115321857D01*
X176772339Y-115226619D02*
X177439005Y-115226619D01*
X177439005Y-115226619D02*
X177010434Y-116226619D01*
%TO.C,C6*%
X96627333Y-116131380D02*
X96579714Y-116179000D01*
X96579714Y-116179000D02*
X96436857Y-116226619D01*
X96436857Y-116226619D02*
X96341619Y-116226619D01*
X96341619Y-116226619D02*
X96198762Y-116179000D01*
X96198762Y-116179000D02*
X96103524Y-116083761D01*
X96103524Y-116083761D02*
X96055905Y-115988523D01*
X96055905Y-115988523D02*
X96008286Y-115798047D01*
X96008286Y-115798047D02*
X96008286Y-115655190D01*
X96008286Y-115655190D02*
X96055905Y-115464714D01*
X96055905Y-115464714D02*
X96103524Y-115369476D01*
X96103524Y-115369476D02*
X96198762Y-115274238D01*
X96198762Y-115274238D02*
X96341619Y-115226619D01*
X96341619Y-115226619D02*
X96436857Y-115226619D01*
X96436857Y-115226619D02*
X96579714Y-115274238D01*
X96579714Y-115274238D02*
X96627333Y-115321857D01*
X97484476Y-115226619D02*
X97294000Y-115226619D01*
X97294000Y-115226619D02*
X97198762Y-115274238D01*
X97198762Y-115274238D02*
X97151143Y-115321857D01*
X97151143Y-115321857D02*
X97055905Y-115464714D01*
X97055905Y-115464714D02*
X97008286Y-115655190D01*
X97008286Y-115655190D02*
X97008286Y-116036142D01*
X97008286Y-116036142D02*
X97055905Y-116131380D01*
X97055905Y-116131380D02*
X97103524Y-116179000D01*
X97103524Y-116179000D02*
X97198762Y-116226619D01*
X97198762Y-116226619D02*
X97389238Y-116226619D01*
X97389238Y-116226619D02*
X97484476Y-116179000D01*
X97484476Y-116179000D02*
X97532095Y-116131380D01*
X97532095Y-116131380D02*
X97579714Y-116036142D01*
X97579714Y-116036142D02*
X97579714Y-115798047D01*
X97579714Y-115798047D02*
X97532095Y-115702809D01*
X97532095Y-115702809D02*
X97484476Y-115655190D01*
X97484476Y-115655190D02*
X97389238Y-115607571D01*
X97389238Y-115607571D02*
X97198762Y-115607571D01*
X97198762Y-115607571D02*
X97103524Y-115655190D01*
X97103524Y-115655190D02*
X97055905Y-115702809D01*
X97055905Y-115702809D02*
X97008286Y-115798047D01*
%TO.C,C5*%
X108500446Y-116131380D02*
X108452827Y-116179000D01*
X108452827Y-116179000D02*
X108309970Y-116226619D01*
X108309970Y-116226619D02*
X108214732Y-116226619D01*
X108214732Y-116226619D02*
X108071875Y-116179000D01*
X108071875Y-116179000D02*
X107976637Y-116083761D01*
X107976637Y-116083761D02*
X107929018Y-115988523D01*
X107929018Y-115988523D02*
X107881399Y-115798047D01*
X107881399Y-115798047D02*
X107881399Y-115655190D01*
X107881399Y-115655190D02*
X107929018Y-115464714D01*
X107929018Y-115464714D02*
X107976637Y-115369476D01*
X107976637Y-115369476D02*
X108071875Y-115274238D01*
X108071875Y-115274238D02*
X108214732Y-115226619D01*
X108214732Y-115226619D02*
X108309970Y-115226619D01*
X108309970Y-115226619D02*
X108452827Y-115274238D01*
X108452827Y-115274238D02*
X108500446Y-115321857D01*
X109405208Y-115226619D02*
X108929018Y-115226619D01*
X108929018Y-115226619D02*
X108881399Y-115702809D01*
X108881399Y-115702809D02*
X108929018Y-115655190D01*
X108929018Y-115655190D02*
X109024256Y-115607571D01*
X109024256Y-115607571D02*
X109262351Y-115607571D01*
X109262351Y-115607571D02*
X109357589Y-115655190D01*
X109357589Y-115655190D02*
X109405208Y-115702809D01*
X109405208Y-115702809D02*
X109452827Y-115798047D01*
X109452827Y-115798047D02*
X109452827Y-116036142D01*
X109452827Y-116036142D02*
X109405208Y-116131380D01*
X109405208Y-116131380D02*
X109357589Y-116179000D01*
X109357589Y-116179000D02*
X109262351Y-116226619D01*
X109262351Y-116226619D02*
X109024256Y-116226619D01*
X109024256Y-116226619D02*
X108929018Y-116179000D01*
X108929018Y-116179000D02*
X108881399Y-116131380D01*
%TO.C,C4*%
X169516117Y-116131380D02*
X169468498Y-116179000D01*
X169468498Y-116179000D02*
X169325641Y-116226619D01*
X169325641Y-116226619D02*
X169230403Y-116226619D01*
X169230403Y-116226619D02*
X169087546Y-116179000D01*
X169087546Y-116179000D02*
X168992308Y-116083761D01*
X168992308Y-116083761D02*
X168944689Y-115988523D01*
X168944689Y-115988523D02*
X168897070Y-115798047D01*
X168897070Y-115798047D02*
X168897070Y-115655190D01*
X168897070Y-115655190D02*
X168944689Y-115464714D01*
X168944689Y-115464714D02*
X168992308Y-115369476D01*
X168992308Y-115369476D02*
X169087546Y-115274238D01*
X169087546Y-115274238D02*
X169230403Y-115226619D01*
X169230403Y-115226619D02*
X169325641Y-115226619D01*
X169325641Y-115226619D02*
X169468498Y-115274238D01*
X169468498Y-115274238D02*
X169516117Y-115321857D01*
X170373260Y-115559952D02*
X170373260Y-116226619D01*
X170135165Y-115179000D02*
X169897070Y-115893285D01*
X169897070Y-115893285D02*
X170516117Y-115893285D01*
%TO.C,C3*%
X146705333Y-98541380D02*
X146657714Y-98589000D01*
X146657714Y-98589000D02*
X146514857Y-98636619D01*
X146514857Y-98636619D02*
X146419619Y-98636619D01*
X146419619Y-98636619D02*
X146276762Y-98589000D01*
X146276762Y-98589000D02*
X146181524Y-98493761D01*
X146181524Y-98493761D02*
X146133905Y-98398523D01*
X146133905Y-98398523D02*
X146086286Y-98208047D01*
X146086286Y-98208047D02*
X146086286Y-98065190D01*
X146086286Y-98065190D02*
X146133905Y-97874714D01*
X146133905Y-97874714D02*
X146181524Y-97779476D01*
X146181524Y-97779476D02*
X146276762Y-97684238D01*
X146276762Y-97684238D02*
X146419619Y-97636619D01*
X146419619Y-97636619D02*
X146514857Y-97636619D01*
X146514857Y-97636619D02*
X146657714Y-97684238D01*
X146657714Y-97684238D02*
X146705333Y-97731857D01*
X147038667Y-97636619D02*
X147657714Y-97636619D01*
X147657714Y-97636619D02*
X147324381Y-98017571D01*
X147324381Y-98017571D02*
X147467238Y-98017571D01*
X147467238Y-98017571D02*
X147562476Y-98065190D01*
X147562476Y-98065190D02*
X147610095Y-98112809D01*
X147610095Y-98112809D02*
X147657714Y-98208047D01*
X147657714Y-98208047D02*
X147657714Y-98446142D01*
X147657714Y-98446142D02*
X147610095Y-98541380D01*
X147610095Y-98541380D02*
X147562476Y-98589000D01*
X147562476Y-98589000D02*
X147467238Y-98636619D01*
X147467238Y-98636619D02*
X147181524Y-98636619D01*
X147181524Y-98636619D02*
X147086286Y-98589000D01*
X147086286Y-98589000D02*
X147038667Y-98541380D01*
%TO.C,C2*%
X102658446Y-116131380D02*
X102610827Y-116179000D01*
X102610827Y-116179000D02*
X102467970Y-116226619D01*
X102467970Y-116226619D02*
X102372732Y-116226619D01*
X102372732Y-116226619D02*
X102229875Y-116179000D01*
X102229875Y-116179000D02*
X102134637Y-116083761D01*
X102134637Y-116083761D02*
X102087018Y-115988523D01*
X102087018Y-115988523D02*
X102039399Y-115798047D01*
X102039399Y-115798047D02*
X102039399Y-115655190D01*
X102039399Y-115655190D02*
X102087018Y-115464714D01*
X102087018Y-115464714D02*
X102134637Y-115369476D01*
X102134637Y-115369476D02*
X102229875Y-115274238D01*
X102229875Y-115274238D02*
X102372732Y-115226619D01*
X102372732Y-115226619D02*
X102467970Y-115226619D01*
X102467970Y-115226619D02*
X102610827Y-115274238D01*
X102610827Y-115274238D02*
X102658446Y-115321857D01*
X103039399Y-115321857D02*
X103087018Y-115274238D01*
X103087018Y-115274238D02*
X103182256Y-115226619D01*
X103182256Y-115226619D02*
X103420351Y-115226619D01*
X103420351Y-115226619D02*
X103515589Y-115274238D01*
X103515589Y-115274238D02*
X103563208Y-115321857D01*
X103563208Y-115321857D02*
X103610827Y-115417095D01*
X103610827Y-115417095D02*
X103610827Y-115512333D01*
X103610827Y-115512333D02*
X103563208Y-115655190D01*
X103563208Y-115655190D02*
X102991780Y-116226619D01*
X102991780Y-116226619D02*
X103610827Y-116226619D01*
%TO.C,C1*%
X126884117Y-119075380D02*
X126836498Y-119123000D01*
X126836498Y-119123000D02*
X126693641Y-119170619D01*
X126693641Y-119170619D02*
X126598403Y-119170619D01*
X126598403Y-119170619D02*
X126455546Y-119123000D01*
X126455546Y-119123000D02*
X126360308Y-119027761D01*
X126360308Y-119027761D02*
X126312689Y-118932523D01*
X126312689Y-118932523D02*
X126265070Y-118742047D01*
X126265070Y-118742047D02*
X126265070Y-118599190D01*
X126265070Y-118599190D02*
X126312689Y-118408714D01*
X126312689Y-118408714D02*
X126360308Y-118313476D01*
X126360308Y-118313476D02*
X126455546Y-118218238D01*
X126455546Y-118218238D02*
X126598403Y-118170619D01*
X126598403Y-118170619D02*
X126693641Y-118170619D01*
X126693641Y-118170619D02*
X126836498Y-118218238D01*
X126836498Y-118218238D02*
X126884117Y-118265857D01*
X127836498Y-119170619D02*
X127265070Y-119170619D01*
X127550784Y-119170619D02*
X127550784Y-118170619D01*
X127550784Y-118170619D02*
X127455546Y-118313476D01*
X127455546Y-118313476D02*
X127360308Y-118408714D01*
X127360308Y-118408714D02*
X127265070Y-118456333D01*
D11*
%TO.C,J8*%
X125018784Y-128838000D02*
X125018784Y-126178000D01*
X119878784Y-128838000D02*
X125018784Y-128838000D01*
X118608784Y-128838000D02*
X117278784Y-128838000D01*
X119878784Y-126178000D02*
X125018784Y-126178000D01*
X117278784Y-128838000D02*
X117278784Y-127508000D01*
X119878784Y-128838000D02*
X119878784Y-126178000D01*
%TO.C,J7*%
X155244784Y-128838000D02*
X155244784Y-126178000D01*
X150104784Y-128838000D02*
X155244784Y-128838000D01*
X148834784Y-128838000D02*
X147504784Y-128838000D01*
X150104784Y-126178000D02*
X155244784Y-126178000D01*
X147504784Y-128838000D02*
X147504784Y-127508000D01*
X150104784Y-128838000D02*
X150104784Y-126178000D01*
%TO.C,RV2*%
X104833784Y-128026000D02*
X114603784Y-128026000D01*
X114603784Y-128026000D02*
X114603784Y-133096000D01*
X104833784Y-128026000D02*
X104833784Y-133096000D01*
X104833784Y-133096000D02*
X114603784Y-133096000D01*
%TO.C,RV1*%
X157919784Y-128026000D02*
X167689784Y-128026000D01*
X167689784Y-128026000D02*
X167689784Y-133096000D01*
X157919784Y-128026000D02*
X157919784Y-133096000D01*
X157919784Y-133096000D02*
X167689784Y-133096000D01*
%TO.C,U2*%
X110276000Y-99028000D02*
X100036000Y-99028000D01*
X107006000Y-99028000D02*
X107006000Y-97518000D01*
X103305000Y-99028000D02*
X103305000Y-97518000D01*
X110276000Y-99028000D02*
X110276000Y-94387000D01*
X110276000Y-94387000D02*
X100036000Y-94387000D01*
X100036000Y-99028000D02*
X100036000Y-94387000D01*
X110276000Y-97518000D02*
X100036000Y-97518000D01*
%TO.C,U1*%
X176052784Y-99028000D02*
X165812784Y-99028000D01*
X172782784Y-99028000D02*
X172782784Y-97518000D01*
X169081784Y-99028000D02*
X169081784Y-97518000D01*
X176052784Y-99028000D02*
X176052784Y-94387000D01*
X176052784Y-94387000D02*
X165812784Y-94387000D01*
X165812784Y-99028000D02*
X165812784Y-94387000D01*
X176052784Y-97518000D02*
X165812784Y-97518000D01*
%TO.C,R2*%
X109940784Y-121058000D02*
X103400784Y-121058000D01*
X103400784Y-123798000D02*
X109940784Y-123798000D01*
X109940784Y-123798000D02*
X109940784Y-121058000D01*
X103400784Y-121058000D02*
X103400784Y-123798000D01*
X102630784Y-122428000D02*
X103400784Y-122428000D01*
X110710784Y-122428000D02*
X109940784Y-122428000D01*
%TO.C,R1*%
X171924784Y-122428000D02*
X171154784Y-122428000D01*
X163844784Y-122428000D02*
X164614784Y-122428000D01*
X164614784Y-121058000D02*
X164614784Y-123798000D01*
X171154784Y-123798000D02*
X171154784Y-121058000D01*
X164614784Y-123798000D02*
X171154784Y-123798000D01*
X171154784Y-121058000D02*
X164614784Y-121058000D01*
%TO.C,JP1*%
X148839000Y-63948000D02*
X151439000Y-63948000D01*
X146239000Y-66608000D02*
X146239000Y-65278000D01*
X148839000Y-66608000D02*
X148839000Y-63948000D01*
X148839000Y-66608000D02*
X151439000Y-66608000D01*
X151439000Y-66608000D02*
X151439000Y-63948000D01*
X147569000Y-66608000D02*
X146239000Y-66608000D01*
%TO.C,J6*%
X128626784Y-133096000D02*
X128626784Y-125476000D01*
X128626784Y-133096000D02*
X143866784Y-133096000D01*
X128626784Y-131826000D02*
X143866784Y-131826000D01*
X143866784Y-133096000D02*
X143866784Y-125476000D01*
X128626784Y-125476000D02*
X143866784Y-125476000D01*
%TO.C,J5*%
X107178784Y-71120000D02*
X117338784Y-71120000D01*
X117338784Y-63500000D02*
X107178784Y-63500000D01*
X107178784Y-64770000D02*
X117338784Y-64770000D01*
X107178784Y-63500000D02*
X107178784Y-71120000D01*
X117338784Y-71120000D02*
X117338784Y-63500000D01*
%TO.C,J4*%
X150104784Y-132648000D02*
X150104784Y-129988000D01*
X147504784Y-132648000D02*
X147504784Y-131318000D01*
X150104784Y-129988000D02*
X155244784Y-129988000D01*
X148834784Y-132648000D02*
X147504784Y-132648000D01*
X150104784Y-132648000D02*
X155244784Y-132648000D01*
X155244784Y-132648000D02*
X155244784Y-129988000D01*
%TO.C,J3*%
X119878784Y-132648000D02*
X119878784Y-129988000D01*
X117278784Y-132648000D02*
X117278784Y-131318000D01*
X119878784Y-129988000D02*
X125018784Y-129988000D01*
X118608784Y-132648000D02*
X117278784Y-132648000D01*
X119878784Y-132648000D02*
X125018784Y-132648000D01*
X125018784Y-132648000D02*
X125018784Y-129988000D01*
%TO.C,J2*%
X122423000Y-66608000D02*
X121093000Y-66608000D01*
X126293000Y-66608000D02*
X126293000Y-63948000D01*
X123693000Y-66608000D02*
X126293000Y-66608000D01*
X123693000Y-66608000D02*
X123693000Y-63948000D01*
X121093000Y-66608000D02*
X121093000Y-65278000D01*
X123693000Y-63948000D02*
X126293000Y-63948000D01*
%TO.C,J1*%
X141452000Y-77424000D02*
X141452000Y-78474000D01*
X140402000Y-78474000D02*
X141452000Y-78474000D01*
X132052000Y-72374000D02*
X132052000Y-63574000D01*
X141252000Y-78274000D02*
X138652000Y-78274000D01*
X134752000Y-78274000D02*
X132052000Y-78274000D01*
X132052000Y-78274000D02*
X132052000Y-76374000D01*
X132052000Y-63574000D02*
X141252000Y-63574000D01*
X141252000Y-63574000D02*
X141252000Y-78274000D01*
%TO.C,D6*%
X108258000Y-82116000D02*
X108588000Y-82116000D01*
X111198000Y-82116000D02*
X110868000Y-82116000D01*
X110868000Y-87556000D02*
X111198000Y-87556000D01*
X108258000Y-86536000D02*
X111198000Y-86536000D01*
X111198000Y-87556000D02*
X111198000Y-82116000D01*
X108588000Y-87556000D02*
X108258000Y-87556000D01*
X108258000Y-86776000D02*
X111198000Y-86776000D01*
X108258000Y-87556000D02*
X108258000Y-82116000D01*
X108258000Y-86656000D02*
X111198000Y-86656000D01*
%TO.C,D5*%
X103354784Y-82116000D02*
X103684784Y-82116000D01*
X106294784Y-82116000D02*
X105964784Y-82116000D01*
X105964784Y-87556000D02*
X106294784Y-87556000D01*
X103354784Y-86536000D02*
X106294784Y-86536000D01*
X106294784Y-87556000D02*
X106294784Y-82116000D01*
X103684784Y-87556000D02*
X103354784Y-87556000D01*
X103354784Y-86776000D02*
X106294784Y-86776000D01*
X103354784Y-87556000D02*
X103354784Y-82116000D01*
X103354784Y-86656000D02*
X106294784Y-86656000D01*
%TO.C,D4*%
X98352000Y-82116000D02*
X98682000Y-82116000D01*
X101292000Y-82116000D02*
X100962000Y-82116000D01*
X100962000Y-87556000D02*
X101292000Y-87556000D01*
X98352000Y-86536000D02*
X101292000Y-86536000D01*
X101292000Y-87556000D02*
X101292000Y-82116000D01*
X98682000Y-87556000D02*
X98352000Y-87556000D01*
X98352000Y-86776000D02*
X101292000Y-86776000D01*
X98352000Y-87556000D02*
X98352000Y-82116000D01*
X98352000Y-86656000D02*
X101292000Y-86656000D01*
%TO.C,D3*%
X177228784Y-88318000D02*
X176898784Y-88318000D01*
X174288784Y-88318000D02*
X174618784Y-88318000D01*
X174618784Y-82878000D02*
X174288784Y-82878000D01*
X177228784Y-83898000D02*
X174288784Y-83898000D01*
X174288784Y-82878000D02*
X174288784Y-88318000D01*
X176898784Y-82878000D02*
X177228784Y-82878000D01*
X177228784Y-83658000D02*
X174288784Y-83658000D01*
X177228784Y-82878000D02*
X177228784Y-88318000D01*
X177228784Y-83778000D02*
X174288784Y-83778000D01*
%TO.C,D2*%
X172402784Y-83778000D02*
X169462784Y-83778000D01*
X172402784Y-82878000D02*
X172402784Y-88318000D01*
X172402784Y-83658000D02*
X169462784Y-83658000D01*
X172072784Y-82878000D02*
X172402784Y-82878000D01*
X169462784Y-82878000D02*
X169462784Y-88318000D01*
X172402784Y-83898000D02*
X169462784Y-83898000D01*
X169792784Y-82878000D02*
X169462784Y-82878000D01*
X169462784Y-88318000D02*
X169792784Y-88318000D01*
X172402784Y-88318000D02*
X172072784Y-88318000D01*
%TO.C,D1*%
X167576784Y-88318000D02*
X167246784Y-88318000D01*
X164636784Y-88318000D02*
X164966784Y-88318000D01*
X164966784Y-82878000D02*
X164636784Y-82878000D01*
X167576784Y-83898000D02*
X164636784Y-83898000D01*
X164636784Y-82878000D02*
X164636784Y-88318000D01*
X167246784Y-82878000D02*
X167576784Y-82878000D01*
X167576784Y-83658000D02*
X164636784Y-83658000D01*
X167576784Y-82878000D02*
X167576784Y-88318000D01*
X167576784Y-83778000D02*
X164636784Y-83778000D01*
%TO.C,C11*%
X139223564Y-113520000D02*
X139223564Y-103396000D01*
X145263564Y-117411000D02*
X145263564Y-99505000D01*
X155644004Y-114473000D02*
X155644004Y-112673000D01*
X146184564Y-117519000D02*
X146184564Y-99397000D01*
X146344564Y-117528000D02*
X146344564Y-99388000D01*
X143623564Y-107018000D02*
X143623564Y-99942000D01*
X141343564Y-115738000D02*
X141343564Y-101178000D01*
X139663564Y-114118000D02*
X139663564Y-102798000D01*
X143543564Y-116944000D02*
X143543564Y-109898000D01*
X146504564Y-117534000D02*
X146504564Y-99382000D01*
X145903564Y-117496000D02*
X145903564Y-99420000D01*
X143783564Y-107018000D02*
X143783564Y-99885000D01*
X145223564Y-117404000D02*
X145223564Y-99512000D01*
X144463564Y-117238000D02*
X144463564Y-109898000D01*
X146144564Y-117516000D02*
X146144564Y-99400000D01*
X142343564Y-116385000D02*
X142343564Y-109898000D01*
X142583564Y-107018000D02*
X142583564Y-100402000D01*
X141183564Y-115617000D02*
X141183564Y-101299000D01*
X138184564Y-111454000D02*
X138184564Y-105462000D01*
X140743564Y-115252000D02*
X140743564Y-101664000D01*
X143423564Y-107018000D02*
X143423564Y-100019000D01*
X143943564Y-107018000D02*
X143943564Y-99831000D01*
X142823564Y-107018000D02*
X142823564Y-100282000D01*
X138504564Y-112242000D02*
X138504564Y-104674000D01*
X146664564Y-117538000D02*
X146664564Y-99378000D01*
X145103564Y-117382000D02*
X145103564Y-99534000D01*
X139103564Y-113337000D02*
X139103564Y-103579000D01*
X143383564Y-116881000D02*
X143383564Y-109898000D01*
X139863564Y-114359000D02*
X139863564Y-102557000D01*
X140863564Y-115356000D02*
X140863564Y-101560000D01*
X138344564Y-111874000D02*
X138344564Y-105042000D01*
X138424564Y-112063000D02*
X138424564Y-104853000D01*
X137784564Y-109893000D02*
X137784564Y-107023000D01*
X137744564Y-109624000D02*
X137744564Y-107292000D01*
X141943564Y-116148000D02*
X141943564Y-109898000D01*
X141663564Y-115966000D02*
X141663564Y-109898000D01*
X138903564Y-113010000D02*
X138903564Y-103906000D01*
X142263564Y-107018000D02*
X142263564Y-100576000D01*
X144183564Y-107018000D02*
X144183564Y-99756000D01*
X144423564Y-107018000D02*
X144423564Y-99688000D01*
X144023564Y-117111000D02*
X144023564Y-109898000D01*
X145743564Y-117479000D02*
X145743564Y-99437000D01*
X142623564Y-107018000D02*
X142623564Y-100382000D01*
X140023564Y-114540000D02*
X140023564Y-102376000D01*
X143583564Y-107018000D02*
X143583564Y-99957000D01*
X140983564Y-115457000D02*
X140983564Y-101459000D01*
X146063564Y-117510000D02*
X146063564Y-99406000D01*
X138943564Y-113078000D02*
X138943564Y-103838000D01*
X141023564Y-115489000D02*
X141023564Y-101427000D01*
X142863564Y-116653000D02*
X142863564Y-109898000D01*
X141223564Y-115648000D02*
X141223564Y-101268000D01*
X137944564Y-110661000D02*
X137944564Y-106255000D01*
X143063564Y-116745000D02*
X143063564Y-109898000D01*
X138224564Y-111565000D02*
X138224564Y-105351000D01*
X143583564Y-116959000D02*
X143583564Y-109898000D01*
X139343564Y-113693000D02*
X139343564Y-103223000D01*
X144863564Y-117334000D02*
X144863564Y-99582000D01*
X143223564Y-116815000D02*
X143223564Y-109898000D01*
X142103564Y-107018000D02*
X142103564Y-100670000D01*
X142703564Y-107018000D02*
X142703564Y-100341000D01*
X143423564Y-116897000D02*
X143423564Y-109898000D01*
X145583564Y-117459000D02*
X145583564Y-99457000D01*
X139783564Y-114264000D02*
X139783564Y-102652000D01*
X141623564Y-107018000D02*
X141623564Y-100978000D01*
X142463564Y-107018000D02*
X142463564Y-100466000D01*
X145383564Y-117430000D02*
X145383564Y-99486000D01*
X145983564Y-117503000D02*
X145983564Y-99413000D01*
X142143564Y-116270000D02*
X142143564Y-109898000D01*
X139983564Y-114496000D02*
X139983564Y-102420000D01*
X139183564Y-113460000D02*
X139183564Y-103456000D01*
X142423564Y-107018000D02*
X142423564Y-100487000D01*
X139503564Y-113912000D02*
X139503564Y-103004000D01*
X143303564Y-116848000D02*
X143303564Y-109898000D01*
X145143564Y-117390000D02*
X145143564Y-99526000D01*
X140063564Y-114584000D02*
X140063564Y-102332000D01*
X141983564Y-107018000D02*
X141983564Y-100743000D01*
X143743564Y-117017000D02*
X143743564Y-109898000D01*
X146584564Y-117536000D02*
X146584564Y-99380000D01*
X142063564Y-116222000D02*
X142063564Y-109898000D01*
X142303564Y-116362000D02*
X142303564Y-109898000D01*
X138024564Y-110956000D02*
X138024564Y-105960000D01*
X137824564Y-110119000D02*
X137824564Y-106797000D01*
X146544564Y-117535000D02*
X146544564Y-99381000D01*
X146424564Y-117531000D02*
X146424564Y-99385000D01*
X144503564Y-117249000D02*
X144503564Y-99667000D01*
X137904564Y-110497000D02*
X137904564Y-106419000D01*
X143343564Y-116865000D02*
X143343564Y-109898000D01*
X138703564Y-112648000D02*
X138703564Y-104268000D01*
X146464564Y-117533000D02*
X146464564Y-99383000D01*
X142903564Y-116672000D02*
X142903564Y-109898000D01*
X146264564Y-117524000D02*
X146264564Y-99392000D01*
X138264564Y-111672000D02*
X138264564Y-105244000D01*
X144663564Y-117289000D02*
X144663564Y-99627000D01*
X144343564Y-107018000D02*
X144343564Y-99710000D01*
X139943564Y-114451000D02*
X139943564Y-102465000D01*
X144263564Y-107018000D02*
X144263564Y-99733000D01*
X140823564Y-115322000D02*
X140823564Y-101594000D01*
X142423564Y-116429000D02*
X142423564Y-109898000D01*
X141823564Y-107018000D02*
X141823564Y-100844000D01*
X141703564Y-115993000D02*
X141703564Y-109898000D01*
X145303564Y-117418000D02*
X145303564Y-99498000D01*
X143063564Y-107018000D02*
X143063564Y-100171000D01*
X141423564Y-115797000D02*
X141423564Y-101119000D01*
X143863564Y-107018000D02*
X143863564Y-99858000D01*
X142303564Y-107018000D02*
X142303564Y-100554000D01*
X144383564Y-107018000D02*
X144383564Y-99699000D01*
X143703564Y-107018000D02*
X143703564Y-99913000D01*
X143303564Y-107018000D02*
X143303564Y-100068000D01*
X142783564Y-107018000D02*
X142783564Y-100302000D01*
X144303564Y-117195000D02*
X144303564Y-109898000D01*
X143903564Y-107018000D02*
X143903564Y-99844000D01*
X142023564Y-116198000D02*
X142023564Y-109898000D01*
X140783564Y-115287000D02*
X140783564Y-101629000D01*
X146104564Y-117513000D02*
X146104564Y-99403000D01*
X138584564Y-112410000D02*
X138584564Y-104506000D01*
X140543564Y-115070000D02*
X140543564Y-101846000D01*
X142183564Y-116293000D02*
X142183564Y-109898000D01*
X143463564Y-116913000D02*
X143463564Y-109898000D01*
X142983564Y-107018000D02*
X142983564Y-100207000D01*
X143183564Y-107018000D02*
X143183564Y-100118000D01*
X141703564Y-107018000D02*
X141703564Y-100923000D01*
X145663564Y-117469000D02*
X145663564Y-99447000D01*
X145783564Y-117484000D02*
X145783564Y-99432000D01*
X137664564Y-108498000D02*
X137664564Y-108418000D01*
X142863564Y-107018000D02*
X142863564Y-100263000D01*
X138464564Y-112154000D02*
X138464564Y-104762000D01*
X140383564Y-114916000D02*
X140383564Y-102000000D01*
X138544564Y-112327000D02*
X138544564Y-104589000D01*
X137864564Y-110318000D02*
X137864564Y-106598000D01*
X142703564Y-116575000D02*
X142703564Y-109898000D01*
X139383564Y-113749000D02*
X139383564Y-103167000D01*
X146384564Y-117530000D02*
X146384564Y-99386000D01*
X143863564Y-117058000D02*
X143863564Y-109898000D01*
X138983564Y-113144000D02*
X138983564Y-103772000D01*
X141943564Y-107018000D02*
X141943564Y-100768000D01*
X144943564Y-117351000D02*
X144943564Y-99565000D01*
X140143564Y-114670000D02*
X140143564Y-102246000D01*
X143703564Y-117003000D02*
X143703564Y-109898000D01*
X141863564Y-107018000D02*
X141863564Y-100818000D01*
X144903564Y-117343000D02*
X144903564Y-99573000D01*
X142023564Y-107018000D02*
X142023564Y-100718000D01*
X138863564Y-112940000D02*
X138863564Y-103976000D01*
X138783564Y-112797000D02*
X138783564Y-104119000D01*
X138743564Y-112723000D02*
X138743564Y-104193000D01*
X143623564Y-116974000D02*
X143623564Y-109898000D01*
X140943564Y-115423000D02*
X140943564Y-101493000D01*
X143143564Y-107018000D02*
X143143564Y-100135000D01*
X142943564Y-107018000D02*
X142943564Y-100225000D01*
X142383564Y-107018000D02*
X142383564Y-100509000D01*
X143103564Y-116763000D02*
X143103564Y-109898000D01*
X141103564Y-115554000D02*
X141103564Y-101362000D01*
X140223564Y-114754000D02*
X140223564Y-102162000D01*
X141903564Y-116123000D02*
X141903564Y-109898000D01*
X143503564Y-107018000D02*
X143503564Y-99988000D01*
X145623564Y-117464000D02*
X145623564Y-99452000D01*
X146304564Y-117526000D02*
X146304564Y-99390000D01*
X141623564Y-115938000D02*
X141623564Y-109898000D01*
X140903564Y-115390000D02*
X140903564Y-101526000D01*
X141303564Y-115708000D02*
X141303564Y-101208000D01*
X141383564Y-115768000D02*
X141383564Y-101148000D01*
X142543564Y-107018000D02*
X142543564Y-100423000D01*
X138064564Y-111090000D02*
X138064564Y-105826000D01*
X144063564Y-107018000D02*
X144063564Y-99793000D01*
X138304564Y-111775000D02*
X138304564Y-105141000D01*
X145823564Y-117488000D02*
X145823564Y-99428000D01*
X143463564Y-107018000D02*
X143463564Y-100003000D01*
X140463564Y-114994000D02*
X140463564Y-101922000D01*
X142623564Y-116534000D02*
X142623564Y-109898000D01*
X143663564Y-107018000D02*
X143663564Y-99928000D01*
X143263564Y-107018000D02*
X143263564Y-100084000D01*
X140263564Y-114795000D02*
X140263564Y-102121000D01*
X142903564Y-107018000D02*
X142903564Y-100244000D01*
X139303564Y-113636000D02*
X139303564Y-103280000D01*
X141743564Y-107018000D02*
X141743564Y-100897000D01*
X139743564Y-114216000D02*
X139743564Y-102700000D01*
X142543564Y-116493000D02*
X142543564Y-109898000D01*
X141263564Y-115678000D02*
X141263564Y-101238000D01*
X146224564Y-117521000D02*
X146224564Y-99395000D01*
X142983564Y-116709000D02*
X142983564Y-109898000D01*
X141823564Y-116072000D02*
X141823564Y-109898000D01*
X141863564Y-116098000D02*
X141863564Y-109898000D01*
X139543564Y-113964000D02*
X139543564Y-102952000D01*
X144223564Y-117172000D02*
X144223564Y-109898000D01*
X143823564Y-107018000D02*
X143823564Y-99871000D01*
X142263564Y-116340000D02*
X142263564Y-109898000D01*
X140663564Y-115180000D02*
X140663564Y-101736000D01*
X145423564Y-117437000D02*
X145423564Y-99479000D01*
X156544004Y-113573000D02*
X154744004Y-113573000D01*
X143743564Y-107018000D02*
X143743564Y-99899000D01*
X139023564Y-113210000D02*
X139023564Y-103706000D01*
X142223564Y-116317000D02*
X142223564Y-109898000D01*
X140343564Y-114876000D02*
X140343564Y-102040000D01*
X141543564Y-115883000D02*
X141543564Y-101033000D01*
X145863564Y-117492000D02*
X145863564Y-99424000D01*
X139903564Y-114405000D02*
X139903564Y-102511000D01*
X141063564Y-115522000D02*
X141063564Y-101394000D01*
X145183564Y-117397000D02*
X145183564Y-99519000D01*
X145463564Y-117442000D02*
X145463564Y-99474000D01*
X144703564Y-117298000D02*
X144703564Y-99618000D01*
X142943564Y-116691000D02*
X142943564Y-109898000D01*
X140103564Y-114628000D02*
X140103564Y-102288000D01*
X141743564Y-116019000D02*
X141743564Y-109898000D01*
X144023564Y-107018000D02*
X144023564Y-99805000D01*
X144143564Y-117148000D02*
X144143564Y-109898000D01*
X143543564Y-107018000D02*
X143543564Y-99972000D01*
X138623564Y-112491000D02*
X138623564Y-104425000D01*
X143023564Y-116727000D02*
X143023564Y-109898000D01*
X138144564Y-111338000D02*
X138144564Y-105578000D01*
X139463564Y-113858000D02*
X139463564Y-103058000D01*
X145063564Y-117375000D02*
X145063564Y-99541000D01*
X140703564Y-115216000D02*
X140703564Y-101700000D01*
X138823564Y-112870000D02*
X138823564Y-104046000D01*
X142343564Y-107018000D02*
X142343564Y-100531000D01*
X143103564Y-107018000D02*
X143103564Y-100153000D01*
X139263564Y-113578000D02*
X139263564Y-103338000D01*
X146023564Y-117507000D02*
X146023564Y-99409000D01*
X142063564Y-107018000D02*
X142063564Y-100694000D01*
X139143564Y-113399000D02*
X139143564Y-103517000D01*
X144423564Y-117228000D02*
X144423564Y-109898000D01*
X139583564Y-114016000D02*
X139583564Y-102900000D01*
X141663564Y-107018000D02*
X141663564Y-100950000D01*
X144303564Y-107018000D02*
X144303564Y-99721000D01*
X139823564Y-114312000D02*
X139823564Y-102604000D01*
X144383564Y-117217000D02*
X144383564Y-109898000D01*
X141903564Y-107018000D02*
X141903564Y-100793000D01*
X142503564Y-107018000D02*
X142503564Y-100444000D01*
X142743564Y-107018000D02*
X142743564Y-100321000D01*
X145703564Y-117474000D02*
X145703564Y-99442000D01*
X138663564Y-112571000D02*
X138663564Y-104345000D01*
X144743564Y-117307000D02*
X144743564Y-99609000D01*
X144263564Y-117183000D02*
X144263564Y-109898000D01*
X140183564Y-114712000D02*
X140183564Y-102204000D01*
X142183564Y-107018000D02*
X142183564Y-100623000D01*
X142743564Y-116595000D02*
X142743564Y-109898000D01*
X141983564Y-116173000D02*
X141983564Y-109898000D01*
X146624564Y-117537000D02*
X146624564Y-99379000D01*
X145503564Y-117448000D02*
X145503564Y-99468000D01*
X144183564Y-117160000D02*
X144183564Y-109898000D01*
X146784564Y-117539000D02*
X146784564Y-99377000D01*
X145943564Y-117500000D02*
X145943564Y-99416000D01*
X140503564Y-115032000D02*
X140503564Y-101884000D01*
X141783564Y-116046000D02*
X141783564Y-109898000D01*
X142143564Y-107018000D02*
X142143564Y-100646000D01*
X143663564Y-116988000D02*
X143663564Y-109898000D01*
X144343564Y-117206000D02*
X144343564Y-109898000D01*
X140583564Y-115107000D02*
X140583564Y-101809000D01*
X139703564Y-114167000D02*
X139703564Y-102749000D01*
X142783564Y-116614000D02*
X142783564Y-109898000D01*
X139063564Y-113274000D02*
X139063564Y-103642000D01*
X137984564Y-110813000D02*
X137984564Y-106103000D01*
X137704564Y-109272000D02*
X137704564Y-107644000D01*
X145343564Y-117424000D02*
X145343564Y-99492000D01*
X145023564Y-117367000D02*
X145023564Y-99549000D01*
X139423564Y-113804000D02*
X139423564Y-103112000D01*
X143983564Y-107018000D02*
X143983564Y-99818000D01*
X144823564Y-117325000D02*
X144823564Y-99591000D01*
X146704564Y-117538000D02*
X146704564Y-99378000D01*
X143183564Y-116798000D02*
X143183564Y-109898000D01*
X140423564Y-114955000D02*
X140423564Y-101961000D01*
X144223564Y-107018000D02*
X144223564Y-99744000D01*
X143903564Y-117072000D02*
X143903564Y-109898000D01*
X142663564Y-107018000D02*
X142663564Y-100361000D01*
X146744564Y-117538000D02*
X146744564Y-99378000D01*
X143503564Y-116928000D02*
X143503564Y-109898000D01*
X140303564Y-114836000D02*
X140303564Y-102080000D01*
X143383564Y-107018000D02*
X143383564Y-100035000D01*
X143263564Y-116832000D02*
X143263564Y-109898000D01*
X144983564Y-117359000D02*
X144983564Y-99557000D01*
X143223564Y-107018000D02*
X143223564Y-100101000D01*
X142663564Y-116555000D02*
X142663564Y-109898000D01*
X142823564Y-116634000D02*
X142823564Y-109898000D01*
X142103564Y-116246000D02*
X142103564Y-109898000D01*
X144623564Y-117279000D02*
X144623564Y-99637000D01*
X142503564Y-116472000D02*
X142503564Y-109898000D01*
X144583564Y-117269000D02*
X144583564Y-99647000D01*
X142383564Y-116407000D02*
X142383564Y-109898000D01*
X144063564Y-117123000D02*
X144063564Y-109898000D01*
X144463564Y-107018000D02*
X144463564Y-99678000D01*
X143823564Y-117045000D02*
X143823564Y-109898000D01*
X143943564Y-117085000D02*
X143943564Y-109898000D01*
X143783564Y-117031000D02*
X143783564Y-109898000D01*
X141503564Y-115855000D02*
X141503564Y-101061000D01*
X140623564Y-115144000D02*
X140623564Y-101772000D01*
X144543564Y-117259000D02*
X144543564Y-99657000D01*
X143343564Y-107018000D02*
X143343564Y-100051000D01*
X142583564Y-116514000D02*
X142583564Y-109898000D01*
X143023564Y-107018000D02*
X143023564Y-100189000D01*
X144783564Y-117316000D02*
X144783564Y-99600000D01*
X143983564Y-117098000D02*
X143983564Y-109898000D01*
X141583564Y-115911000D02*
X141583564Y-101005000D01*
X144103564Y-107018000D02*
X144103564Y-99780000D01*
X138104564Y-111217000D02*
X138104564Y-105699000D01*
X143143564Y-116781000D02*
X143143564Y-109898000D01*
X138384564Y-111970000D02*
X138384564Y-104946000D01*
X144103564Y-117136000D02*
X144103564Y-109898000D01*
X141143564Y-115585000D02*
X141143564Y-101331000D01*
X141783564Y-107018000D02*
X141783564Y-100870000D01*
X142463564Y-116450000D02*
X142463564Y-109898000D01*
X142223564Y-107018000D02*
X142223564Y-100599000D01*
X139623564Y-114067000D02*
X139623564Y-102849000D01*
X144143564Y-107018000D02*
X144143564Y-99768000D01*
X145543564Y-117454000D02*
X145543564Y-99462000D01*
X141463564Y-115826000D02*
X141463564Y-101090000D01*
X155904564Y-108458000D02*
G75*
G03*
X155904564Y-108458000I-9120000J0D01*
G01*
%TO.C,C9*%
X126366000Y-96990000D02*
X126366000Y-83858000D01*
X122685000Y-95566000D02*
X122685000Y-91864000D01*
X121085000Y-93717000D02*
X121085000Y-87131000D01*
X122125000Y-88984000D02*
X122125000Y-85781000D01*
X124085000Y-96420000D02*
X124085000Y-91864000D01*
X123205000Y-88984000D02*
X123205000Y-84908000D01*
X120565000Y-92595000D02*
X120565000Y-88253000D01*
X124045000Y-96402000D02*
X124045000Y-91864000D01*
X126005000Y-96956000D02*
X126005000Y-83892000D01*
X122045000Y-94985000D02*
X122045000Y-91864000D01*
X122365000Y-95295000D02*
X122365000Y-91864000D01*
X122685000Y-88984000D02*
X122685000Y-85282000D01*
X126566000Y-97000000D02*
X126566000Y-83848000D01*
X122845000Y-95689000D02*
X122845000Y-91864000D01*
X122765000Y-95629000D02*
X122765000Y-91864000D01*
X123885000Y-96326000D02*
X123885000Y-91864000D01*
X123565000Y-88984000D02*
X123565000Y-84691000D01*
X125725000Y-96916000D02*
X125725000Y-83932000D01*
X121965000Y-94901000D02*
X121965000Y-91864000D01*
X123005000Y-88984000D02*
X123005000Y-85043000D01*
X121045000Y-93647000D02*
X121045000Y-87201000D01*
X122485000Y-95401000D02*
X122485000Y-91864000D01*
X124365000Y-88984000D02*
X124365000Y-84310000D01*
X121285000Y-94039000D02*
X121285000Y-86809000D01*
X124165000Y-96455000D02*
X124165000Y-91864000D01*
X123445000Y-96088000D02*
X123445000Y-91864000D01*
X123285000Y-88984000D02*
X123285000Y-84857000D01*
X125325000Y-96837000D02*
X125325000Y-84011000D01*
X124085000Y-88984000D02*
X124085000Y-84428000D01*
X125085000Y-96777000D02*
X125085000Y-84071000D01*
X124485000Y-88984000D02*
X124485000Y-84263000D01*
X122245000Y-95184000D02*
X122245000Y-91864000D01*
X125045000Y-96766000D02*
X125045000Y-84082000D01*
X121605000Y-94481000D02*
X121605000Y-86367000D01*
X123325000Y-96016000D02*
X123325000Y-91864000D01*
X122285000Y-95221000D02*
X122285000Y-91864000D01*
X123925000Y-96345000D02*
X123925000Y-91864000D01*
X123485000Y-88984000D02*
X123485000Y-84736000D01*
X123365000Y-88984000D02*
X123365000Y-84807000D01*
X121925000Y-88984000D02*
X121925000Y-85990000D01*
X123845000Y-96306000D02*
X123845000Y-91864000D01*
X120965000Y-93502000D02*
X120965000Y-87346000D01*
X125965000Y-96951000D02*
X125965000Y-83897000D01*
X123405000Y-96065000D02*
X123405000Y-91864000D01*
X123605000Y-88984000D02*
X123605000Y-84668000D01*
X126326000Y-96987000D02*
X126326000Y-83861000D01*
X125645000Y-96902000D02*
X125645000Y-83946000D01*
X123725000Y-96244000D02*
X123725000Y-91864000D01*
X122885000Y-88984000D02*
X122885000Y-85129000D01*
X123845000Y-88984000D02*
X123845000Y-84542000D01*
X120645000Y-92809000D02*
X120645000Y-88039000D01*
X123245000Y-95966000D02*
X123245000Y-91864000D01*
X126166000Y-96973000D02*
X126166000Y-83875000D01*
X122365000Y-88984000D02*
X122365000Y-85553000D01*
X123525000Y-88984000D02*
X123525000Y-84713000D01*
X125685000Y-96909000D02*
X125685000Y-83939000D01*
X122725000Y-95598000D02*
X122725000Y-91864000D01*
X126045000Y-96961000D02*
X126045000Y-83887000D01*
X120285000Y-91531000D02*
X120285000Y-89317000D01*
X123805000Y-88984000D02*
X123805000Y-84562000D01*
X121365000Y-94157000D02*
X121365000Y-86691000D01*
X124125000Y-88984000D02*
X124125000Y-84410000D01*
X120365000Y-91918000D02*
X120365000Y-88930000D01*
X123085000Y-88984000D02*
X123085000Y-84988000D01*
X126246000Y-96981000D02*
X126246000Y-83867000D01*
X122805000Y-95659000D02*
X122805000Y-91864000D01*
X126766000Y-97004000D02*
X126766000Y-83844000D01*
X122285000Y-88984000D02*
X122285000Y-85627000D01*
X120765000Y-93094000D02*
X120765000Y-87754000D01*
X120605000Y-92705000D02*
X120605000Y-88143000D01*
X122525000Y-95435000D02*
X122525000Y-91864000D01*
X121805000Y-88984000D02*
X121805000Y-86125000D01*
X122005000Y-94943000D02*
X122005000Y-91864000D01*
X123645000Y-88984000D02*
X123645000Y-84646000D01*
X123885000Y-88984000D02*
X123885000Y-84522000D01*
X124285000Y-96506000D02*
X124285000Y-91864000D01*
X121525000Y-94378000D02*
X121525000Y-86470000D01*
X121805000Y-94723000D02*
X121805000Y-91864000D01*
X121685000Y-94581000D02*
X121685000Y-91864000D01*
X124405000Y-96554000D02*
X124405000Y-91864000D01*
X125565000Y-96887000D02*
X125565000Y-83961000D01*
X122725000Y-88984000D02*
X122725000Y-85250000D01*
X126406000Y-96992000D02*
X126406000Y-83856000D01*
X123765000Y-88984000D02*
X123765000Y-84583000D01*
X124365000Y-96538000D02*
X124365000Y-91864000D01*
X122605000Y-95502000D02*
X122605000Y-91864000D01*
X125525000Y-96880000D02*
X125525000Y-83968000D01*
X124325000Y-88984000D02*
X124325000Y-84326000D01*
X123165000Y-95914000D02*
X123165000Y-91864000D01*
X122325000Y-95258000D02*
X122325000Y-91864000D01*
X123965000Y-88984000D02*
X123965000Y-84484000D01*
X121765000Y-88984000D02*
X121765000Y-86171000D01*
X122445000Y-88984000D02*
X122445000Y-85482000D01*
X124245000Y-96489000D02*
X124245000Y-91864000D01*
X121645000Y-88984000D02*
X121645000Y-86316000D01*
X121325000Y-94099000D02*
X121325000Y-86749000D01*
X122645000Y-95534000D02*
X122645000Y-91864000D01*
X121445000Y-94270000D02*
X121445000Y-86578000D01*
X122565000Y-95468000D02*
X122565000Y-91864000D01*
X123165000Y-88984000D02*
X123165000Y-84934000D01*
X121885000Y-94814000D02*
X121885000Y-91864000D01*
X122445000Y-95366000D02*
X122445000Y-91864000D01*
X124205000Y-88984000D02*
X124205000Y-84375000D01*
X124645000Y-96642000D02*
X124645000Y-84206000D01*
X126526000Y-96999000D02*
X126526000Y-83849000D01*
X125005000Y-96755000D02*
X125005000Y-84093000D01*
X122045000Y-88984000D02*
X122045000Y-85863000D01*
X120485000Y-92355000D02*
X120485000Y-88493000D01*
X123525000Y-96135000D02*
X123525000Y-91864000D01*
X126446000Y-96995000D02*
X126446000Y-83853000D01*
X121925000Y-94858000D02*
X121925000Y-91864000D01*
X121645000Y-94532000D02*
X121645000Y-91864000D01*
X121725000Y-88984000D02*
X121725000Y-86219000D01*
X122925000Y-88984000D02*
X122925000Y-85100000D01*
X121485000Y-94324000D02*
X121485000Y-86524000D01*
X124405000Y-88984000D02*
X124405000Y-84294000D01*
X122885000Y-95719000D02*
X122885000Y-91864000D01*
X124765000Y-96682000D02*
X124765000Y-84166000D01*
X124005000Y-96383000D02*
X124005000Y-91864000D01*
X124845000Y-96708000D02*
X124845000Y-84140000D01*
X125285000Y-96828000D02*
X125285000Y-84020000D01*
X124445000Y-96570000D02*
X124445000Y-91864000D01*
X123005000Y-95805000D02*
X123005000Y-91864000D01*
X123045000Y-95833000D02*
X123045000Y-91864000D01*
X120525000Y-92479000D02*
X120525000Y-88369000D01*
X120925000Y-93426000D02*
X120925000Y-87422000D01*
X122405000Y-95331000D02*
X122405000Y-91864000D01*
X123405000Y-88984000D02*
X123405000Y-84783000D01*
X120725000Y-93003000D02*
X120725000Y-87845000D01*
X126686000Y-97003000D02*
X126686000Y-83845000D01*
X125765000Y-96922000D02*
X125765000Y-83926000D01*
X126126000Y-96969000D02*
X126126000Y-83879000D01*
X121685000Y-88984000D02*
X121685000Y-86267000D01*
X126726000Y-97004000D02*
X126726000Y-83844000D01*
X126286000Y-96984000D02*
X126286000Y-83864000D01*
X125405000Y-96855000D02*
X125405000Y-83993000D01*
X122845000Y-88984000D02*
X122845000Y-85159000D01*
X122165000Y-95106000D02*
X122165000Y-91864000D01*
X122205000Y-95145000D02*
X122205000Y-91864000D01*
X122645000Y-88984000D02*
X122645000Y-85314000D01*
X124925000Y-96732000D02*
X124925000Y-84116000D01*
X126646000Y-97003000D02*
X126646000Y-83845000D01*
X122965000Y-95777000D02*
X122965000Y-91864000D01*
X133240569Y-94789000D02*
X133240569Y-93489000D01*
X123125000Y-95887000D02*
X123125000Y-91864000D01*
X122965000Y-88984000D02*
X122965000Y-85071000D01*
X123045000Y-88984000D02*
X123045000Y-85015000D01*
X123925000Y-88984000D02*
X123925000Y-84503000D01*
X124445000Y-88984000D02*
X124445000Y-84278000D01*
X126085000Y-96965000D02*
X126085000Y-83883000D01*
X122325000Y-88984000D02*
X122325000Y-85590000D01*
X121885000Y-88984000D02*
X121885000Y-86034000D01*
X122525000Y-88984000D02*
X122525000Y-85413000D01*
X122085000Y-88984000D02*
X122085000Y-85822000D01*
X123725000Y-88984000D02*
X123725000Y-84604000D01*
X125925000Y-96946000D02*
X125925000Y-83902000D01*
X123445000Y-88984000D02*
X123445000Y-84760000D01*
X124045000Y-88984000D02*
X124045000Y-84446000D01*
X125845000Y-96935000D02*
X125845000Y-83913000D01*
X124605000Y-96628000D02*
X124605000Y-84220000D01*
X122245000Y-88984000D02*
X122245000Y-85664000D01*
X121765000Y-94677000D02*
X121765000Y-91864000D01*
X120245000Y-91274000D02*
X120245000Y-89574000D01*
X121005000Y-93576000D02*
X121005000Y-87272000D01*
X123365000Y-96041000D02*
X123365000Y-91864000D01*
X122205000Y-88984000D02*
X122205000Y-85703000D01*
X124165000Y-88984000D02*
X124165000Y-84393000D01*
X126606000Y-97001000D02*
X126606000Y-83847000D01*
X125365000Y-96846000D02*
X125365000Y-84002000D01*
X122005000Y-88984000D02*
X122005000Y-85905000D01*
X122765000Y-88984000D02*
X122765000Y-85219000D01*
X123485000Y-96112000D02*
X123485000Y-91864000D01*
X123805000Y-96286000D02*
X123805000Y-91864000D01*
X123085000Y-95860000D02*
X123085000Y-91864000D01*
X120885000Y-93347000D02*
X120885000Y-87501000D01*
X121845000Y-88984000D02*
X121845000Y-86079000D01*
X122165000Y-88984000D02*
X122165000Y-85742000D01*
X124205000Y-96473000D02*
X124205000Y-91864000D01*
X124885000Y-96720000D02*
X124885000Y-84128000D01*
X123245000Y-88984000D02*
X123245000Y-84882000D01*
X120685000Y-92908000D02*
X120685000Y-87940000D01*
X121205000Y-93915000D02*
X121205000Y-86933000D01*
X121245000Y-93978000D02*
X121245000Y-86870000D01*
X123565000Y-96157000D02*
X123565000Y-91864000D01*
X125205000Y-96808000D02*
X125205000Y-84040000D01*
X124565000Y-96614000D02*
X124565000Y-84234000D01*
X122085000Y-95026000D02*
X122085000Y-91864000D01*
X125605000Y-96895000D02*
X125605000Y-83953000D01*
X121125000Y-93785000D02*
X121125000Y-87063000D01*
X121165000Y-93851000D02*
X121165000Y-86997000D01*
X123285000Y-95991000D02*
X123285000Y-91864000D01*
X124005000Y-88984000D02*
X124005000Y-84465000D01*
X120445000Y-92222000D02*
X120445000Y-88626000D01*
X123205000Y-95940000D02*
X123205000Y-91864000D01*
X124245000Y-88984000D02*
X124245000Y-84359000D01*
X125165000Y-96798000D02*
X125165000Y-84050000D01*
X122805000Y-88984000D02*
X122805000Y-85189000D01*
X125125000Y-96788000D02*
X125125000Y-84060000D01*
X124125000Y-96438000D02*
X124125000Y-91864000D01*
X124685000Y-96656000D02*
X124685000Y-84192000D01*
X125485000Y-96872000D02*
X125485000Y-83976000D01*
X120325000Y-91739000D02*
X120325000Y-89109000D01*
X121725000Y-94629000D02*
X121725000Y-91864000D01*
X123965000Y-96364000D02*
X123965000Y-91864000D01*
X124325000Y-96522000D02*
X124325000Y-91864000D01*
X121845000Y-94769000D02*
X121845000Y-91864000D01*
X121405000Y-94214000D02*
X121405000Y-86634000D01*
X122925000Y-95748000D02*
X122925000Y-91864000D01*
X123765000Y-96265000D02*
X123765000Y-91864000D01*
X125245000Y-96818000D02*
X125245000Y-84030000D01*
X121965000Y-88984000D02*
X121965000Y-85947000D01*
X120205000Y-90899000D02*
X120205000Y-89949000D01*
X133890569Y-94139000D02*
X132590569Y-94139000D01*
X125445000Y-96863000D02*
X125445000Y-83985000D01*
X124525000Y-96599000D02*
X124525000Y-84249000D01*
X124965000Y-96744000D02*
X124965000Y-84104000D01*
X120405000Y-92077000D02*
X120405000Y-88771000D01*
X124285000Y-88984000D02*
X124285000Y-84342000D01*
X124805000Y-96695000D02*
X124805000Y-84153000D01*
X122405000Y-88984000D02*
X122405000Y-85517000D01*
X125805000Y-96929000D02*
X125805000Y-83919000D01*
X124725000Y-96669000D02*
X124725000Y-84179000D01*
X120805000Y-93182000D02*
X120805000Y-87666000D01*
X121565000Y-94430000D02*
X121565000Y-86418000D01*
X122605000Y-88984000D02*
X122605000Y-85346000D01*
X123685000Y-88984000D02*
X123685000Y-84625000D01*
X122485000Y-88984000D02*
X122485000Y-85447000D01*
X123685000Y-96223000D02*
X123685000Y-91864000D01*
X126486000Y-96997000D02*
X126486000Y-83851000D01*
X123125000Y-88984000D02*
X123125000Y-84961000D01*
X126806000Y-97004000D02*
X126806000Y-83844000D01*
X123325000Y-88984000D02*
X123325000Y-84832000D01*
X120845000Y-93266000D02*
X120845000Y-87582000D01*
X124485000Y-96585000D02*
X124485000Y-91864000D01*
X125885000Y-96940000D02*
X125885000Y-83908000D01*
X123605000Y-96180000D02*
X123605000Y-91864000D01*
X122565000Y-88984000D02*
X122565000Y-85380000D01*
X126206000Y-96977000D02*
X126206000Y-83871000D01*
X122125000Y-95067000D02*
X122125000Y-91864000D01*
X123645000Y-96202000D02*
X123645000Y-91864000D01*
X133426000Y-90424000D02*
G75*
G03*
X133426000Y-90424000I-6620000J0D01*
G01*
%TO.C,C8*%
X161489784Y-110974000D02*
X161489784Y-109666000D01*
X160609784Y-113713000D02*
X160609784Y-113054000D01*
X160329784Y-113333000D02*
X160329784Y-113054000D01*
X160369784Y-113397000D02*
X160369784Y-113054000D01*
X162090784Y-110974000D02*
X162090784Y-109478000D01*
X161289784Y-114261000D02*
X161289784Y-113054000D01*
X162570784Y-114594000D02*
X162570784Y-109434000D01*
X161409784Y-110974000D02*
X161409784Y-109704000D01*
X160729784Y-110974000D02*
X160729784Y-110188000D01*
X161129784Y-110974000D02*
X161129784Y-109865000D01*
X161849784Y-110974000D02*
X161849784Y-109534000D01*
X161089784Y-110974000D02*
X161089784Y-109892000D01*
X160409784Y-113457000D02*
X160409784Y-113054000D01*
X162490784Y-114593000D02*
X162490784Y-109435000D01*
X160969784Y-114049000D02*
X160969784Y-113054000D01*
X160009784Y-112532000D02*
X160009784Y-111496000D01*
X161769784Y-114469000D02*
X161769784Y-113054000D01*
X161249784Y-114238000D02*
X161249784Y-113054000D01*
X161449784Y-110974000D02*
X161449784Y-109685000D01*
X160649784Y-110974000D02*
X160649784Y-110271000D01*
X160929784Y-110974000D02*
X160929784Y-110010000D01*
X160329784Y-110974000D02*
X160329784Y-110695000D01*
X160289784Y-110974000D02*
X160289784Y-110763000D01*
X160769784Y-110974000D02*
X160769784Y-110150000D01*
X162010784Y-110974000D02*
X162010784Y-109494000D01*
X162090784Y-114550000D02*
X162090784Y-113054000D01*
X161849784Y-114494000D02*
X161849784Y-113054000D01*
X161649784Y-114428000D02*
X161649784Y-113054000D01*
X161890784Y-110974000D02*
X161890784Y-109523000D01*
X160049784Y-112691000D02*
X160049784Y-111337000D01*
X161169784Y-114189000D02*
X161169784Y-113054000D01*
X161809784Y-110974000D02*
X161809784Y-109546000D01*
X160689784Y-113799000D02*
X160689784Y-113054000D01*
X160409784Y-110974000D02*
X160409784Y-110571000D01*
X160849784Y-113951000D02*
X160849784Y-113054000D01*
X161129784Y-114163000D02*
X161129784Y-113054000D01*
X161449784Y-114343000D02*
X161449784Y-113054000D01*
X162210784Y-110974000D02*
X162210784Y-109458000D01*
X160369784Y-110974000D02*
X160369784Y-110631000D01*
X161970784Y-114525000D02*
X161970784Y-113054000D01*
X160209784Y-113112000D02*
X160209784Y-110916000D01*
X160649784Y-113757000D02*
X160649784Y-113054000D01*
X162330784Y-110974000D02*
X162330784Y-109445000D01*
X162050784Y-110974000D02*
X162050784Y-109486000D01*
X162130784Y-114557000D02*
X162130784Y-113054000D01*
X162410784Y-114590000D02*
X162410784Y-109438000D01*
X161049784Y-114109000D02*
X161049784Y-113054000D01*
X161329784Y-110974000D02*
X161329784Y-109746000D01*
X161569784Y-114396000D02*
X161569784Y-113054000D01*
X161930784Y-110974000D02*
X161930784Y-109513000D01*
X162050784Y-114542000D02*
X162050784Y-113054000D01*
X162530784Y-114594000D02*
X162530784Y-109434000D01*
X161529784Y-114379000D02*
X161529784Y-113054000D01*
X160569784Y-110974000D02*
X160569784Y-110361000D01*
X161930784Y-114515000D02*
X161930784Y-113054000D01*
X162250784Y-114575000D02*
X162250784Y-113054000D01*
X161209784Y-114214000D02*
X161209784Y-113054000D01*
X160969784Y-110974000D02*
X160969784Y-109979000D01*
X160729784Y-113840000D02*
X160729784Y-113054000D01*
X162170784Y-110974000D02*
X162170784Y-109464000D01*
X161729784Y-114456000D02*
X161729784Y-113054000D01*
X162010784Y-114534000D02*
X162010784Y-113054000D01*
X162170784Y-114564000D02*
X162170784Y-113054000D01*
X161169784Y-110974000D02*
X161169784Y-109839000D01*
X161609784Y-110974000D02*
X161609784Y-109616000D01*
X162450784Y-114592000D02*
X162450784Y-109436000D01*
X162370784Y-114587000D02*
X162370784Y-109441000D01*
X162330784Y-114583000D02*
X162330784Y-113054000D01*
X161970784Y-110974000D02*
X161970784Y-109503000D01*
X160689784Y-110974000D02*
X160689784Y-110229000D01*
X161369784Y-114304000D02*
X161369784Y-113054000D01*
X161009784Y-114079000D02*
X161009784Y-113054000D01*
X161529784Y-110974000D02*
X161529784Y-109649000D01*
X160569784Y-113667000D02*
X160569784Y-113054000D01*
X162210784Y-114570000D02*
X162210784Y-113054000D01*
X160849784Y-110974000D02*
X160849784Y-110077000D01*
X161729784Y-110974000D02*
X161729784Y-109572000D01*
X161009784Y-110974000D02*
X161009784Y-109949000D01*
X161289784Y-110974000D02*
X161289784Y-109767000D01*
X160809784Y-110974000D02*
X160809784Y-110113000D01*
X161769784Y-110974000D02*
X161769784Y-109559000D01*
X161249784Y-110974000D02*
X161249784Y-109790000D01*
X161609784Y-114412000D02*
X161609784Y-113054000D01*
X165375559Y-113489000D02*
X164875559Y-113489000D01*
X160529784Y-110974000D02*
X160529784Y-110409000D01*
X160089784Y-112819000D02*
X160089784Y-111209000D01*
X160289784Y-113265000D02*
X160289784Y-113054000D01*
X161689784Y-110974000D02*
X161689784Y-109586000D01*
X162290784Y-110974000D02*
X162290784Y-109449000D01*
X159969784Y-112298000D02*
X159969784Y-111730000D01*
X161689784Y-114442000D02*
X161689784Y-113054000D01*
X160169784Y-113025000D02*
X160169784Y-111003000D01*
X161569784Y-110974000D02*
X161569784Y-109632000D01*
X160929784Y-114018000D02*
X160929784Y-113054000D01*
X160449784Y-113514000D02*
X160449784Y-113054000D01*
X160249784Y-113192000D02*
X160249784Y-110836000D01*
X161089784Y-114136000D02*
X161089784Y-113054000D01*
X161209784Y-110974000D02*
X161209784Y-109814000D01*
X161649784Y-110974000D02*
X161649784Y-109600000D01*
X165125559Y-113739000D02*
X165125559Y-113239000D01*
X161489784Y-114362000D02*
X161489784Y-113054000D01*
X160889784Y-113985000D02*
X160889784Y-113054000D01*
X161890784Y-114505000D02*
X161890784Y-113054000D01*
X161049784Y-110974000D02*
X161049784Y-109919000D01*
X162250784Y-110974000D02*
X162250784Y-109453000D01*
X161369784Y-110974000D02*
X161369784Y-109724000D01*
X161329784Y-114282000D02*
X161329784Y-113054000D01*
X160489784Y-113568000D02*
X160489784Y-113054000D01*
X161409784Y-114324000D02*
X161409784Y-113054000D01*
X160489784Y-110974000D02*
X160489784Y-110460000D01*
X160129784Y-112929000D02*
X160129784Y-111099000D01*
X160889784Y-110974000D02*
X160889784Y-110043000D01*
X162290784Y-114579000D02*
X162290784Y-113054000D01*
X160449784Y-110974000D02*
X160449784Y-110514000D01*
X160809784Y-113915000D02*
X160809784Y-113054000D01*
X162130784Y-110974000D02*
X162130784Y-109471000D01*
X160529784Y-113619000D02*
X160529784Y-113054000D01*
X161809784Y-114482000D02*
X161809784Y-113054000D01*
X160609784Y-110974000D02*
X160609784Y-110315000D01*
X160769784Y-113878000D02*
X160769784Y-113054000D01*
X165190784Y-112014000D02*
G75*
G03*
X165190784Y-112014000I-2620000J0D01*
G01*
%TO.C,C7*%
X175524672Y-110974000D02*
X175524672Y-109666000D01*
X174644672Y-113713000D02*
X174644672Y-113054000D01*
X174364672Y-113333000D02*
X174364672Y-113054000D01*
X174404672Y-113397000D02*
X174404672Y-113054000D01*
X176125672Y-110974000D02*
X176125672Y-109478000D01*
X175324672Y-114261000D02*
X175324672Y-113054000D01*
X176605672Y-114594000D02*
X176605672Y-109434000D01*
X175444672Y-110974000D02*
X175444672Y-109704000D01*
X174764672Y-110974000D02*
X174764672Y-110188000D01*
X175164672Y-110974000D02*
X175164672Y-109865000D01*
X175884672Y-110974000D02*
X175884672Y-109534000D01*
X175124672Y-110974000D02*
X175124672Y-109892000D01*
X174444672Y-113457000D02*
X174444672Y-113054000D01*
X176525672Y-114593000D02*
X176525672Y-109435000D01*
X175004672Y-114049000D02*
X175004672Y-113054000D01*
X174044672Y-112532000D02*
X174044672Y-111496000D01*
X175804672Y-114469000D02*
X175804672Y-113054000D01*
X175284672Y-114238000D02*
X175284672Y-113054000D01*
X175484672Y-110974000D02*
X175484672Y-109685000D01*
X174684672Y-110974000D02*
X174684672Y-110271000D01*
X174964672Y-110974000D02*
X174964672Y-110010000D01*
X174364672Y-110974000D02*
X174364672Y-110695000D01*
X174324672Y-110974000D02*
X174324672Y-110763000D01*
X174804672Y-110974000D02*
X174804672Y-110150000D01*
X176045672Y-110974000D02*
X176045672Y-109494000D01*
X176125672Y-114550000D02*
X176125672Y-113054000D01*
X175884672Y-114494000D02*
X175884672Y-113054000D01*
X175684672Y-114428000D02*
X175684672Y-113054000D01*
X175925672Y-110974000D02*
X175925672Y-109523000D01*
X174084672Y-112691000D02*
X174084672Y-111337000D01*
X175204672Y-114189000D02*
X175204672Y-113054000D01*
X175844672Y-110974000D02*
X175844672Y-109546000D01*
X174724672Y-113799000D02*
X174724672Y-113054000D01*
X174444672Y-110974000D02*
X174444672Y-110571000D01*
X174884672Y-113951000D02*
X174884672Y-113054000D01*
X175164672Y-114163000D02*
X175164672Y-113054000D01*
X175484672Y-114343000D02*
X175484672Y-113054000D01*
X176245672Y-110974000D02*
X176245672Y-109458000D01*
X174404672Y-110974000D02*
X174404672Y-110631000D01*
X176005672Y-114525000D02*
X176005672Y-113054000D01*
X174244672Y-113112000D02*
X174244672Y-110916000D01*
X174684672Y-113757000D02*
X174684672Y-113054000D01*
X176365672Y-110974000D02*
X176365672Y-109445000D01*
X176085672Y-110974000D02*
X176085672Y-109486000D01*
X176165672Y-114557000D02*
X176165672Y-113054000D01*
X176445672Y-114590000D02*
X176445672Y-109438000D01*
X175084672Y-114109000D02*
X175084672Y-113054000D01*
X175364672Y-110974000D02*
X175364672Y-109746000D01*
X175604672Y-114396000D02*
X175604672Y-113054000D01*
X175965672Y-110974000D02*
X175965672Y-109513000D01*
X176085672Y-114542000D02*
X176085672Y-113054000D01*
X176565672Y-114594000D02*
X176565672Y-109434000D01*
X175564672Y-114379000D02*
X175564672Y-113054000D01*
X174604672Y-110974000D02*
X174604672Y-110361000D01*
X175965672Y-114515000D02*
X175965672Y-113054000D01*
X176285672Y-114575000D02*
X176285672Y-113054000D01*
X175244672Y-114214000D02*
X175244672Y-113054000D01*
X175004672Y-110974000D02*
X175004672Y-109979000D01*
X174764672Y-113840000D02*
X174764672Y-113054000D01*
X176205672Y-110974000D02*
X176205672Y-109464000D01*
X175764672Y-114456000D02*
X175764672Y-113054000D01*
X176045672Y-114534000D02*
X176045672Y-113054000D01*
X176205672Y-114564000D02*
X176205672Y-113054000D01*
X175204672Y-110974000D02*
X175204672Y-109839000D01*
X175644672Y-110974000D02*
X175644672Y-109616000D01*
X176485672Y-114592000D02*
X176485672Y-109436000D01*
X176405672Y-114587000D02*
X176405672Y-109441000D01*
X176365672Y-114583000D02*
X176365672Y-113054000D01*
X176005672Y-110974000D02*
X176005672Y-109503000D01*
X174724672Y-110974000D02*
X174724672Y-110229000D01*
X175404672Y-114304000D02*
X175404672Y-113054000D01*
X175044672Y-114079000D02*
X175044672Y-113054000D01*
X175564672Y-110974000D02*
X175564672Y-109649000D01*
X174604672Y-113667000D02*
X174604672Y-113054000D01*
X176245672Y-114570000D02*
X176245672Y-113054000D01*
X174884672Y-110974000D02*
X174884672Y-110077000D01*
X175764672Y-110974000D02*
X175764672Y-109572000D01*
X175044672Y-110974000D02*
X175044672Y-109949000D01*
X175324672Y-110974000D02*
X175324672Y-109767000D01*
X174844672Y-110974000D02*
X174844672Y-110113000D01*
X175804672Y-110974000D02*
X175804672Y-109559000D01*
X175284672Y-110974000D02*
X175284672Y-109790000D01*
X175644672Y-114412000D02*
X175644672Y-113054000D01*
X179410447Y-113489000D02*
X178910447Y-113489000D01*
X174564672Y-110974000D02*
X174564672Y-110409000D01*
X174124672Y-112819000D02*
X174124672Y-111209000D01*
X174324672Y-113265000D02*
X174324672Y-113054000D01*
X175724672Y-110974000D02*
X175724672Y-109586000D01*
X176325672Y-110974000D02*
X176325672Y-109449000D01*
X174004672Y-112298000D02*
X174004672Y-111730000D01*
X175724672Y-114442000D02*
X175724672Y-113054000D01*
X174204672Y-113025000D02*
X174204672Y-111003000D01*
X175604672Y-110974000D02*
X175604672Y-109632000D01*
X174964672Y-114018000D02*
X174964672Y-113054000D01*
X174484672Y-113514000D02*
X174484672Y-113054000D01*
X174284672Y-113192000D02*
X174284672Y-110836000D01*
X175124672Y-114136000D02*
X175124672Y-113054000D01*
X175244672Y-110974000D02*
X175244672Y-109814000D01*
X175684672Y-110974000D02*
X175684672Y-109600000D01*
X179160447Y-113739000D02*
X179160447Y-113239000D01*
X175524672Y-114362000D02*
X175524672Y-113054000D01*
X174924672Y-113985000D02*
X174924672Y-113054000D01*
X175925672Y-114505000D02*
X175925672Y-113054000D01*
X175084672Y-110974000D02*
X175084672Y-109919000D01*
X176285672Y-110974000D02*
X176285672Y-109453000D01*
X175404672Y-110974000D02*
X175404672Y-109724000D01*
X175364672Y-114282000D02*
X175364672Y-113054000D01*
X174524672Y-113568000D02*
X174524672Y-113054000D01*
X175444672Y-114324000D02*
X175444672Y-113054000D01*
X174524672Y-110974000D02*
X174524672Y-110460000D01*
X174164672Y-112929000D02*
X174164672Y-111099000D01*
X174924672Y-110974000D02*
X174924672Y-110043000D01*
X176325672Y-114579000D02*
X176325672Y-113054000D01*
X174484672Y-110974000D02*
X174484672Y-110514000D01*
X174844672Y-113915000D02*
X174844672Y-113054000D01*
X176165672Y-110974000D02*
X176165672Y-109471000D01*
X174564672Y-113619000D02*
X174564672Y-113054000D01*
X175844672Y-114482000D02*
X175844672Y-113054000D01*
X174644672Y-110974000D02*
X174644672Y-110315000D01*
X174804672Y-113878000D02*
X174804672Y-113054000D01*
X179225672Y-112014000D02*
G75*
G03*
X179225672Y-112014000I-2620000J0D01*
G01*
%TO.C,C6*%
X95713000Y-110974000D02*
X95713000Y-109666000D01*
X94833000Y-113713000D02*
X94833000Y-113054000D01*
X94553000Y-113333000D02*
X94553000Y-113054000D01*
X94593000Y-113397000D02*
X94593000Y-113054000D01*
X96314000Y-110974000D02*
X96314000Y-109478000D01*
X95513000Y-114261000D02*
X95513000Y-113054000D01*
X96794000Y-114594000D02*
X96794000Y-109434000D01*
X95633000Y-110974000D02*
X95633000Y-109704000D01*
X94953000Y-110974000D02*
X94953000Y-110188000D01*
X95353000Y-110974000D02*
X95353000Y-109865000D01*
X96073000Y-110974000D02*
X96073000Y-109534000D01*
X95313000Y-110974000D02*
X95313000Y-109892000D01*
X94633000Y-113457000D02*
X94633000Y-113054000D01*
X96714000Y-114593000D02*
X96714000Y-109435000D01*
X95193000Y-114049000D02*
X95193000Y-113054000D01*
X94233000Y-112532000D02*
X94233000Y-111496000D01*
X95993000Y-114469000D02*
X95993000Y-113054000D01*
X95473000Y-114238000D02*
X95473000Y-113054000D01*
X95673000Y-110974000D02*
X95673000Y-109685000D01*
X94873000Y-110974000D02*
X94873000Y-110271000D01*
X95153000Y-110974000D02*
X95153000Y-110010000D01*
X94553000Y-110974000D02*
X94553000Y-110695000D01*
X94513000Y-110974000D02*
X94513000Y-110763000D01*
X94993000Y-110974000D02*
X94993000Y-110150000D01*
X96234000Y-110974000D02*
X96234000Y-109494000D01*
X96314000Y-114550000D02*
X96314000Y-113054000D01*
X96073000Y-114494000D02*
X96073000Y-113054000D01*
X95873000Y-114428000D02*
X95873000Y-113054000D01*
X96114000Y-110974000D02*
X96114000Y-109523000D01*
X94273000Y-112691000D02*
X94273000Y-111337000D01*
X95393000Y-114189000D02*
X95393000Y-113054000D01*
X96033000Y-110974000D02*
X96033000Y-109546000D01*
X94913000Y-113799000D02*
X94913000Y-113054000D01*
X94633000Y-110974000D02*
X94633000Y-110571000D01*
X95073000Y-113951000D02*
X95073000Y-113054000D01*
X95353000Y-114163000D02*
X95353000Y-113054000D01*
X95673000Y-114343000D02*
X95673000Y-113054000D01*
X96434000Y-110974000D02*
X96434000Y-109458000D01*
X94593000Y-110974000D02*
X94593000Y-110631000D01*
X96194000Y-114525000D02*
X96194000Y-113054000D01*
X94433000Y-113112000D02*
X94433000Y-110916000D01*
X94873000Y-113757000D02*
X94873000Y-113054000D01*
X96554000Y-110974000D02*
X96554000Y-109445000D01*
X96274000Y-110974000D02*
X96274000Y-109486000D01*
X96354000Y-114557000D02*
X96354000Y-113054000D01*
X96634000Y-114590000D02*
X96634000Y-109438000D01*
X95273000Y-114109000D02*
X95273000Y-113054000D01*
X95553000Y-110974000D02*
X95553000Y-109746000D01*
X95793000Y-114396000D02*
X95793000Y-113054000D01*
X96154000Y-110974000D02*
X96154000Y-109513000D01*
X96274000Y-114542000D02*
X96274000Y-113054000D01*
X96754000Y-114594000D02*
X96754000Y-109434000D01*
X95753000Y-114379000D02*
X95753000Y-113054000D01*
X94793000Y-110974000D02*
X94793000Y-110361000D01*
X96154000Y-114515000D02*
X96154000Y-113054000D01*
X96474000Y-114575000D02*
X96474000Y-113054000D01*
X95433000Y-114214000D02*
X95433000Y-113054000D01*
X95193000Y-110974000D02*
X95193000Y-109979000D01*
X94953000Y-113840000D02*
X94953000Y-113054000D01*
X96394000Y-110974000D02*
X96394000Y-109464000D01*
X95953000Y-114456000D02*
X95953000Y-113054000D01*
X96234000Y-114534000D02*
X96234000Y-113054000D01*
X96394000Y-114564000D02*
X96394000Y-113054000D01*
X95393000Y-110974000D02*
X95393000Y-109839000D01*
X95833000Y-110974000D02*
X95833000Y-109616000D01*
X96674000Y-114592000D02*
X96674000Y-109436000D01*
X96594000Y-114587000D02*
X96594000Y-109441000D01*
X96554000Y-114583000D02*
X96554000Y-113054000D01*
X96194000Y-110974000D02*
X96194000Y-109503000D01*
X94913000Y-110974000D02*
X94913000Y-110229000D01*
X95593000Y-114304000D02*
X95593000Y-113054000D01*
X95233000Y-114079000D02*
X95233000Y-113054000D01*
X95753000Y-110974000D02*
X95753000Y-109649000D01*
X94793000Y-113667000D02*
X94793000Y-113054000D01*
X96434000Y-114570000D02*
X96434000Y-113054000D01*
X95073000Y-110974000D02*
X95073000Y-110077000D01*
X95953000Y-110974000D02*
X95953000Y-109572000D01*
X95233000Y-110974000D02*
X95233000Y-109949000D01*
X95513000Y-110974000D02*
X95513000Y-109767000D01*
X95033000Y-110974000D02*
X95033000Y-110113000D01*
X95993000Y-110974000D02*
X95993000Y-109559000D01*
X95473000Y-110974000D02*
X95473000Y-109790000D01*
X95833000Y-114412000D02*
X95833000Y-113054000D01*
X99598775Y-113489000D02*
X99098775Y-113489000D01*
X94753000Y-110974000D02*
X94753000Y-110409000D01*
X94313000Y-112819000D02*
X94313000Y-111209000D01*
X94513000Y-113265000D02*
X94513000Y-113054000D01*
X95913000Y-110974000D02*
X95913000Y-109586000D01*
X96514000Y-110974000D02*
X96514000Y-109449000D01*
X94193000Y-112298000D02*
X94193000Y-111730000D01*
X95913000Y-114442000D02*
X95913000Y-113054000D01*
X94393000Y-113025000D02*
X94393000Y-111003000D01*
X95793000Y-110974000D02*
X95793000Y-109632000D01*
X95153000Y-114018000D02*
X95153000Y-113054000D01*
X94673000Y-113514000D02*
X94673000Y-113054000D01*
X94473000Y-113192000D02*
X94473000Y-110836000D01*
X95313000Y-114136000D02*
X95313000Y-113054000D01*
X95433000Y-110974000D02*
X95433000Y-109814000D01*
X95873000Y-110974000D02*
X95873000Y-109600000D01*
X99348775Y-113739000D02*
X99348775Y-113239000D01*
X95713000Y-114362000D02*
X95713000Y-113054000D01*
X95113000Y-113985000D02*
X95113000Y-113054000D01*
X96114000Y-114505000D02*
X96114000Y-113054000D01*
X95273000Y-110974000D02*
X95273000Y-109919000D01*
X96474000Y-110974000D02*
X96474000Y-109453000D01*
X95593000Y-110974000D02*
X95593000Y-109724000D01*
X95553000Y-114282000D02*
X95553000Y-113054000D01*
X94713000Y-113568000D02*
X94713000Y-113054000D01*
X95633000Y-114324000D02*
X95633000Y-113054000D01*
X94713000Y-110974000D02*
X94713000Y-110460000D01*
X94353000Y-112929000D02*
X94353000Y-111099000D01*
X95113000Y-110974000D02*
X95113000Y-110043000D01*
X96514000Y-114579000D02*
X96514000Y-113054000D01*
X94673000Y-110974000D02*
X94673000Y-110514000D01*
X95033000Y-113915000D02*
X95033000Y-113054000D01*
X96354000Y-110974000D02*
X96354000Y-109471000D01*
X94753000Y-113619000D02*
X94753000Y-113054000D01*
X96033000Y-114482000D02*
X96033000Y-113054000D01*
X94833000Y-110974000D02*
X94833000Y-110315000D01*
X94993000Y-113878000D02*
X94993000Y-113054000D01*
X99414000Y-112014000D02*
G75*
G03*
X99414000Y-112014000I-2620000J0D01*
G01*
%TO.C,C5*%
X107586113Y-110974000D02*
X107586113Y-109666000D01*
X106706113Y-113713000D02*
X106706113Y-113054000D01*
X106426113Y-113333000D02*
X106426113Y-113054000D01*
X106466113Y-113397000D02*
X106466113Y-113054000D01*
X108187113Y-110974000D02*
X108187113Y-109478000D01*
X107386113Y-114261000D02*
X107386113Y-113054000D01*
X108667113Y-114594000D02*
X108667113Y-109434000D01*
X107506113Y-110974000D02*
X107506113Y-109704000D01*
X106826113Y-110974000D02*
X106826113Y-110188000D01*
X107226113Y-110974000D02*
X107226113Y-109865000D01*
X107946113Y-110974000D02*
X107946113Y-109534000D01*
X107186113Y-110974000D02*
X107186113Y-109892000D01*
X106506113Y-113457000D02*
X106506113Y-113054000D01*
X108587113Y-114593000D02*
X108587113Y-109435000D01*
X107066113Y-114049000D02*
X107066113Y-113054000D01*
X106106113Y-112532000D02*
X106106113Y-111496000D01*
X107866113Y-114469000D02*
X107866113Y-113054000D01*
X107346113Y-114238000D02*
X107346113Y-113054000D01*
X107546113Y-110974000D02*
X107546113Y-109685000D01*
X106746113Y-110974000D02*
X106746113Y-110271000D01*
X107026113Y-110974000D02*
X107026113Y-110010000D01*
X106426113Y-110974000D02*
X106426113Y-110695000D01*
X106386113Y-110974000D02*
X106386113Y-110763000D01*
X106866113Y-110974000D02*
X106866113Y-110150000D01*
X108107113Y-110974000D02*
X108107113Y-109494000D01*
X108187113Y-114550000D02*
X108187113Y-113054000D01*
X107946113Y-114494000D02*
X107946113Y-113054000D01*
X107746113Y-114428000D02*
X107746113Y-113054000D01*
X107987113Y-110974000D02*
X107987113Y-109523000D01*
X106146113Y-112691000D02*
X106146113Y-111337000D01*
X107266113Y-114189000D02*
X107266113Y-113054000D01*
X107906113Y-110974000D02*
X107906113Y-109546000D01*
X106786113Y-113799000D02*
X106786113Y-113054000D01*
X106506113Y-110974000D02*
X106506113Y-110571000D01*
X106946113Y-113951000D02*
X106946113Y-113054000D01*
X107226113Y-114163000D02*
X107226113Y-113054000D01*
X107546113Y-114343000D02*
X107546113Y-113054000D01*
X108307113Y-110974000D02*
X108307113Y-109458000D01*
X106466113Y-110974000D02*
X106466113Y-110631000D01*
X108067113Y-114525000D02*
X108067113Y-113054000D01*
X106306113Y-113112000D02*
X106306113Y-110916000D01*
X106746113Y-113757000D02*
X106746113Y-113054000D01*
X108427113Y-110974000D02*
X108427113Y-109445000D01*
X108147113Y-110974000D02*
X108147113Y-109486000D01*
X108227113Y-114557000D02*
X108227113Y-113054000D01*
X108507113Y-114590000D02*
X108507113Y-109438000D01*
X107146113Y-114109000D02*
X107146113Y-113054000D01*
X107426113Y-110974000D02*
X107426113Y-109746000D01*
X107666113Y-114396000D02*
X107666113Y-113054000D01*
X108027113Y-110974000D02*
X108027113Y-109513000D01*
X108147113Y-114542000D02*
X108147113Y-113054000D01*
X108627113Y-114594000D02*
X108627113Y-109434000D01*
X107626113Y-114379000D02*
X107626113Y-113054000D01*
X106666113Y-110974000D02*
X106666113Y-110361000D01*
X108027113Y-114515000D02*
X108027113Y-113054000D01*
X108347113Y-114575000D02*
X108347113Y-113054000D01*
X107306113Y-114214000D02*
X107306113Y-113054000D01*
X107066113Y-110974000D02*
X107066113Y-109979000D01*
X106826113Y-113840000D02*
X106826113Y-113054000D01*
X108267113Y-110974000D02*
X108267113Y-109464000D01*
X107826113Y-114456000D02*
X107826113Y-113054000D01*
X108107113Y-114534000D02*
X108107113Y-113054000D01*
X108267113Y-114564000D02*
X108267113Y-113054000D01*
X107266113Y-110974000D02*
X107266113Y-109839000D01*
X107706113Y-110974000D02*
X107706113Y-109616000D01*
X108547113Y-114592000D02*
X108547113Y-109436000D01*
X108467113Y-114587000D02*
X108467113Y-109441000D01*
X108427113Y-114583000D02*
X108427113Y-113054000D01*
X108067113Y-110974000D02*
X108067113Y-109503000D01*
X106786113Y-110974000D02*
X106786113Y-110229000D01*
X107466113Y-114304000D02*
X107466113Y-113054000D01*
X107106113Y-114079000D02*
X107106113Y-113054000D01*
X107626113Y-110974000D02*
X107626113Y-109649000D01*
X106666113Y-113667000D02*
X106666113Y-113054000D01*
X108307113Y-114570000D02*
X108307113Y-113054000D01*
X106946113Y-110974000D02*
X106946113Y-110077000D01*
X107826113Y-110974000D02*
X107826113Y-109572000D01*
X107106113Y-110974000D02*
X107106113Y-109949000D01*
X107386113Y-110974000D02*
X107386113Y-109767000D01*
X106906113Y-110974000D02*
X106906113Y-110113000D01*
X107866113Y-110974000D02*
X107866113Y-109559000D01*
X107346113Y-110974000D02*
X107346113Y-109790000D01*
X107706113Y-114412000D02*
X107706113Y-113054000D01*
X111471888Y-113489000D02*
X110971888Y-113489000D01*
X106626113Y-110974000D02*
X106626113Y-110409000D01*
X106186113Y-112819000D02*
X106186113Y-111209000D01*
X106386113Y-113265000D02*
X106386113Y-113054000D01*
X107786113Y-110974000D02*
X107786113Y-109586000D01*
X108387113Y-110974000D02*
X108387113Y-109449000D01*
X106066113Y-112298000D02*
X106066113Y-111730000D01*
X107786113Y-114442000D02*
X107786113Y-113054000D01*
X106266113Y-113025000D02*
X106266113Y-111003000D01*
X107666113Y-110974000D02*
X107666113Y-109632000D01*
X107026113Y-114018000D02*
X107026113Y-113054000D01*
X106546113Y-113514000D02*
X106546113Y-113054000D01*
X106346113Y-113192000D02*
X106346113Y-110836000D01*
X107186113Y-114136000D02*
X107186113Y-113054000D01*
X107306113Y-110974000D02*
X107306113Y-109814000D01*
X107746113Y-110974000D02*
X107746113Y-109600000D01*
X111221888Y-113739000D02*
X111221888Y-113239000D01*
X107586113Y-114362000D02*
X107586113Y-113054000D01*
X106986113Y-113985000D02*
X106986113Y-113054000D01*
X107987113Y-114505000D02*
X107987113Y-113054000D01*
X107146113Y-110974000D02*
X107146113Y-109919000D01*
X108347113Y-110974000D02*
X108347113Y-109453000D01*
X107466113Y-110974000D02*
X107466113Y-109724000D01*
X107426113Y-114282000D02*
X107426113Y-113054000D01*
X106586113Y-113568000D02*
X106586113Y-113054000D01*
X107506113Y-114324000D02*
X107506113Y-113054000D01*
X106586113Y-110974000D02*
X106586113Y-110460000D01*
X106226113Y-112929000D02*
X106226113Y-111099000D01*
X106986113Y-110974000D02*
X106986113Y-110043000D01*
X108387113Y-114579000D02*
X108387113Y-113054000D01*
X106546113Y-110974000D02*
X106546113Y-110514000D01*
X106906113Y-113915000D02*
X106906113Y-113054000D01*
X108227113Y-110974000D02*
X108227113Y-109471000D01*
X106626113Y-113619000D02*
X106626113Y-113054000D01*
X107906113Y-114482000D02*
X107906113Y-113054000D01*
X106706113Y-110974000D02*
X106706113Y-110315000D01*
X106866113Y-113878000D02*
X106866113Y-113054000D01*
X111287113Y-112014000D02*
G75*
G03*
X111287113Y-112014000I-2620000J0D01*
G01*
%TO.C,C4*%
X168601784Y-110974000D02*
X168601784Y-109666000D01*
X167721784Y-113713000D02*
X167721784Y-113054000D01*
X167441784Y-113333000D02*
X167441784Y-113054000D01*
X167481784Y-113397000D02*
X167481784Y-113054000D01*
X169202784Y-110974000D02*
X169202784Y-109478000D01*
X168401784Y-114261000D02*
X168401784Y-113054000D01*
X169682784Y-114594000D02*
X169682784Y-109434000D01*
X168521784Y-110974000D02*
X168521784Y-109704000D01*
X167841784Y-110974000D02*
X167841784Y-110188000D01*
X168241784Y-110974000D02*
X168241784Y-109865000D01*
X168961784Y-110974000D02*
X168961784Y-109534000D01*
X168201784Y-110974000D02*
X168201784Y-109892000D01*
X167521784Y-113457000D02*
X167521784Y-113054000D01*
X169602784Y-114593000D02*
X169602784Y-109435000D01*
X168081784Y-114049000D02*
X168081784Y-113054000D01*
X167121784Y-112532000D02*
X167121784Y-111496000D01*
X168881784Y-114469000D02*
X168881784Y-113054000D01*
X168361784Y-114238000D02*
X168361784Y-113054000D01*
X168561784Y-110974000D02*
X168561784Y-109685000D01*
X167761784Y-110974000D02*
X167761784Y-110271000D01*
X168041784Y-110974000D02*
X168041784Y-110010000D01*
X167441784Y-110974000D02*
X167441784Y-110695000D01*
X167401784Y-110974000D02*
X167401784Y-110763000D01*
X167881784Y-110974000D02*
X167881784Y-110150000D01*
X169122784Y-110974000D02*
X169122784Y-109494000D01*
X169202784Y-114550000D02*
X169202784Y-113054000D01*
X168961784Y-114494000D02*
X168961784Y-113054000D01*
X168761784Y-114428000D02*
X168761784Y-113054000D01*
X169002784Y-110974000D02*
X169002784Y-109523000D01*
X167161784Y-112691000D02*
X167161784Y-111337000D01*
X168281784Y-114189000D02*
X168281784Y-113054000D01*
X168921784Y-110974000D02*
X168921784Y-109546000D01*
X167801784Y-113799000D02*
X167801784Y-113054000D01*
X167521784Y-110974000D02*
X167521784Y-110571000D01*
X167961784Y-113951000D02*
X167961784Y-113054000D01*
X168241784Y-114163000D02*
X168241784Y-113054000D01*
X168561784Y-114343000D02*
X168561784Y-113054000D01*
X169322784Y-110974000D02*
X169322784Y-109458000D01*
X167481784Y-110974000D02*
X167481784Y-110631000D01*
X169082784Y-114525000D02*
X169082784Y-113054000D01*
X167321784Y-113112000D02*
X167321784Y-110916000D01*
X167761784Y-113757000D02*
X167761784Y-113054000D01*
X169442784Y-110974000D02*
X169442784Y-109445000D01*
X169162784Y-110974000D02*
X169162784Y-109486000D01*
X169242784Y-114557000D02*
X169242784Y-113054000D01*
X169522784Y-114590000D02*
X169522784Y-109438000D01*
X168161784Y-114109000D02*
X168161784Y-113054000D01*
X168441784Y-110974000D02*
X168441784Y-109746000D01*
X168681784Y-114396000D02*
X168681784Y-113054000D01*
X169042784Y-110974000D02*
X169042784Y-109513000D01*
X169162784Y-114542000D02*
X169162784Y-113054000D01*
X169642784Y-114594000D02*
X169642784Y-109434000D01*
X168641784Y-114379000D02*
X168641784Y-113054000D01*
X167681784Y-110974000D02*
X167681784Y-110361000D01*
X169042784Y-114515000D02*
X169042784Y-113054000D01*
X169362784Y-114575000D02*
X169362784Y-113054000D01*
X168321784Y-114214000D02*
X168321784Y-113054000D01*
X168081784Y-110974000D02*
X168081784Y-109979000D01*
X167841784Y-113840000D02*
X167841784Y-113054000D01*
X169282784Y-110974000D02*
X169282784Y-109464000D01*
X168841784Y-114456000D02*
X168841784Y-113054000D01*
X169122784Y-114534000D02*
X169122784Y-113054000D01*
X169282784Y-114564000D02*
X169282784Y-113054000D01*
X168281784Y-110974000D02*
X168281784Y-109839000D01*
X168721784Y-110974000D02*
X168721784Y-109616000D01*
X169562784Y-114592000D02*
X169562784Y-109436000D01*
X169482784Y-114587000D02*
X169482784Y-109441000D01*
X169442784Y-114583000D02*
X169442784Y-113054000D01*
X169082784Y-110974000D02*
X169082784Y-109503000D01*
X167801784Y-110974000D02*
X167801784Y-110229000D01*
X168481784Y-114304000D02*
X168481784Y-113054000D01*
X168121784Y-114079000D02*
X168121784Y-113054000D01*
X168641784Y-110974000D02*
X168641784Y-109649000D01*
X167681784Y-113667000D02*
X167681784Y-113054000D01*
X169322784Y-114570000D02*
X169322784Y-113054000D01*
X167961784Y-110974000D02*
X167961784Y-110077000D01*
X168841784Y-110974000D02*
X168841784Y-109572000D01*
X168121784Y-110974000D02*
X168121784Y-109949000D01*
X168401784Y-110974000D02*
X168401784Y-109767000D01*
X167921784Y-110974000D02*
X167921784Y-110113000D01*
X168881784Y-110974000D02*
X168881784Y-109559000D01*
X168361784Y-110974000D02*
X168361784Y-109790000D01*
X168721784Y-114412000D02*
X168721784Y-113054000D01*
X172487559Y-113489000D02*
X171987559Y-113489000D01*
X167641784Y-110974000D02*
X167641784Y-110409000D01*
X167201784Y-112819000D02*
X167201784Y-111209000D01*
X167401784Y-113265000D02*
X167401784Y-113054000D01*
X168801784Y-110974000D02*
X168801784Y-109586000D01*
X169402784Y-110974000D02*
X169402784Y-109449000D01*
X167081784Y-112298000D02*
X167081784Y-111730000D01*
X168801784Y-114442000D02*
X168801784Y-113054000D01*
X167281784Y-113025000D02*
X167281784Y-111003000D01*
X168681784Y-110974000D02*
X168681784Y-109632000D01*
X168041784Y-114018000D02*
X168041784Y-113054000D01*
X167561784Y-113514000D02*
X167561784Y-113054000D01*
X167361784Y-113192000D02*
X167361784Y-110836000D01*
X168201784Y-114136000D02*
X168201784Y-113054000D01*
X168321784Y-110974000D02*
X168321784Y-109814000D01*
X168761784Y-110974000D02*
X168761784Y-109600000D01*
X172237559Y-113739000D02*
X172237559Y-113239000D01*
X168601784Y-114362000D02*
X168601784Y-113054000D01*
X168001784Y-113985000D02*
X168001784Y-113054000D01*
X169002784Y-114505000D02*
X169002784Y-113054000D01*
X168161784Y-110974000D02*
X168161784Y-109919000D01*
X169362784Y-110974000D02*
X169362784Y-109453000D01*
X168481784Y-110974000D02*
X168481784Y-109724000D01*
X168441784Y-114282000D02*
X168441784Y-113054000D01*
X167601784Y-113568000D02*
X167601784Y-113054000D01*
X168521784Y-114324000D02*
X168521784Y-113054000D01*
X167601784Y-110974000D02*
X167601784Y-110460000D01*
X167241784Y-112929000D02*
X167241784Y-111099000D01*
X168001784Y-110974000D02*
X168001784Y-110043000D01*
X169402784Y-114579000D02*
X169402784Y-113054000D01*
X167561784Y-110974000D02*
X167561784Y-110514000D01*
X167921784Y-113915000D02*
X167921784Y-113054000D01*
X169242784Y-110974000D02*
X169242784Y-109471000D01*
X167641784Y-113619000D02*
X167641784Y-113054000D01*
X168921784Y-114482000D02*
X168921784Y-113054000D01*
X167721784Y-110974000D02*
X167721784Y-110315000D01*
X167881784Y-113878000D02*
X167881784Y-113054000D01*
X172302784Y-112014000D02*
G75*
G03*
X172302784Y-112014000I-2620000J0D01*
G01*
%TO.C,C3*%
X146432000Y-96990000D02*
X146432000Y-83858000D01*
X142751000Y-95566000D02*
X142751000Y-91864000D01*
X141151000Y-93717000D02*
X141151000Y-87131000D01*
X142191000Y-88984000D02*
X142191000Y-85781000D01*
X144151000Y-96420000D02*
X144151000Y-91864000D01*
X143271000Y-88984000D02*
X143271000Y-84908000D01*
X140631000Y-92595000D02*
X140631000Y-88253000D01*
X144111000Y-96402000D02*
X144111000Y-91864000D01*
X146071000Y-96956000D02*
X146071000Y-83892000D01*
X142111000Y-94985000D02*
X142111000Y-91864000D01*
X142431000Y-95295000D02*
X142431000Y-91864000D01*
X142751000Y-88984000D02*
X142751000Y-85282000D01*
X146632000Y-97000000D02*
X146632000Y-83848000D01*
X142911000Y-95689000D02*
X142911000Y-91864000D01*
X142831000Y-95629000D02*
X142831000Y-91864000D01*
X143951000Y-96326000D02*
X143951000Y-91864000D01*
X143631000Y-88984000D02*
X143631000Y-84691000D01*
X145791000Y-96916000D02*
X145791000Y-83932000D01*
X142031000Y-94901000D02*
X142031000Y-91864000D01*
X143071000Y-88984000D02*
X143071000Y-85043000D01*
X141111000Y-93647000D02*
X141111000Y-87201000D01*
X142551000Y-95401000D02*
X142551000Y-91864000D01*
X144431000Y-88984000D02*
X144431000Y-84310000D01*
X141351000Y-94039000D02*
X141351000Y-86809000D01*
X144231000Y-96455000D02*
X144231000Y-91864000D01*
X143511000Y-96088000D02*
X143511000Y-91864000D01*
X143351000Y-88984000D02*
X143351000Y-84857000D01*
X145391000Y-96837000D02*
X145391000Y-84011000D01*
X144151000Y-88984000D02*
X144151000Y-84428000D01*
X145151000Y-96777000D02*
X145151000Y-84071000D01*
X144551000Y-88984000D02*
X144551000Y-84263000D01*
X142311000Y-95184000D02*
X142311000Y-91864000D01*
X145111000Y-96766000D02*
X145111000Y-84082000D01*
X141671000Y-94481000D02*
X141671000Y-86367000D01*
X143391000Y-96016000D02*
X143391000Y-91864000D01*
X142351000Y-95221000D02*
X142351000Y-91864000D01*
X143991000Y-96345000D02*
X143991000Y-91864000D01*
X143551000Y-88984000D02*
X143551000Y-84736000D01*
X143431000Y-88984000D02*
X143431000Y-84807000D01*
X141991000Y-88984000D02*
X141991000Y-85990000D01*
X143911000Y-96306000D02*
X143911000Y-91864000D01*
X141031000Y-93502000D02*
X141031000Y-87346000D01*
X146031000Y-96951000D02*
X146031000Y-83897000D01*
X143471000Y-96065000D02*
X143471000Y-91864000D01*
X143671000Y-88984000D02*
X143671000Y-84668000D01*
X146392000Y-96987000D02*
X146392000Y-83861000D01*
X145711000Y-96902000D02*
X145711000Y-83946000D01*
X143791000Y-96244000D02*
X143791000Y-91864000D01*
X142951000Y-88984000D02*
X142951000Y-85129000D01*
X143911000Y-88984000D02*
X143911000Y-84542000D01*
X140711000Y-92809000D02*
X140711000Y-88039000D01*
X143311000Y-95966000D02*
X143311000Y-91864000D01*
X146232000Y-96973000D02*
X146232000Y-83875000D01*
X142431000Y-88984000D02*
X142431000Y-85553000D01*
X143591000Y-88984000D02*
X143591000Y-84713000D01*
X145751000Y-96909000D02*
X145751000Y-83939000D01*
X142791000Y-95598000D02*
X142791000Y-91864000D01*
X146111000Y-96961000D02*
X146111000Y-83887000D01*
X140351000Y-91531000D02*
X140351000Y-89317000D01*
X143871000Y-88984000D02*
X143871000Y-84562000D01*
X141431000Y-94157000D02*
X141431000Y-86691000D01*
X144191000Y-88984000D02*
X144191000Y-84410000D01*
X140431000Y-91918000D02*
X140431000Y-88930000D01*
X143151000Y-88984000D02*
X143151000Y-84988000D01*
X146312000Y-96981000D02*
X146312000Y-83867000D01*
X142871000Y-95659000D02*
X142871000Y-91864000D01*
X146832000Y-97004000D02*
X146832000Y-83844000D01*
X142351000Y-88984000D02*
X142351000Y-85627000D01*
X140831000Y-93094000D02*
X140831000Y-87754000D01*
X140671000Y-92705000D02*
X140671000Y-88143000D01*
X142591000Y-95435000D02*
X142591000Y-91864000D01*
X141871000Y-88984000D02*
X141871000Y-86125000D01*
X142071000Y-94943000D02*
X142071000Y-91864000D01*
X143711000Y-88984000D02*
X143711000Y-84646000D01*
X143951000Y-88984000D02*
X143951000Y-84522000D01*
X144351000Y-96506000D02*
X144351000Y-91864000D01*
X141591000Y-94378000D02*
X141591000Y-86470000D01*
X141871000Y-94723000D02*
X141871000Y-91864000D01*
X141751000Y-94581000D02*
X141751000Y-91864000D01*
X144471000Y-96554000D02*
X144471000Y-91864000D01*
X145631000Y-96887000D02*
X145631000Y-83961000D01*
X142791000Y-88984000D02*
X142791000Y-85250000D01*
X146472000Y-96992000D02*
X146472000Y-83856000D01*
X143831000Y-88984000D02*
X143831000Y-84583000D01*
X144431000Y-96538000D02*
X144431000Y-91864000D01*
X142671000Y-95502000D02*
X142671000Y-91864000D01*
X145591000Y-96880000D02*
X145591000Y-83968000D01*
X144391000Y-88984000D02*
X144391000Y-84326000D01*
X143231000Y-95914000D02*
X143231000Y-91864000D01*
X142391000Y-95258000D02*
X142391000Y-91864000D01*
X144031000Y-88984000D02*
X144031000Y-84484000D01*
X141831000Y-88984000D02*
X141831000Y-86171000D01*
X142511000Y-88984000D02*
X142511000Y-85482000D01*
X144311000Y-96489000D02*
X144311000Y-91864000D01*
X141711000Y-88984000D02*
X141711000Y-86316000D01*
X141391000Y-94099000D02*
X141391000Y-86749000D01*
X142711000Y-95534000D02*
X142711000Y-91864000D01*
X141511000Y-94270000D02*
X141511000Y-86578000D01*
X142631000Y-95468000D02*
X142631000Y-91864000D01*
X143231000Y-88984000D02*
X143231000Y-84934000D01*
X141951000Y-94814000D02*
X141951000Y-91864000D01*
X142511000Y-95366000D02*
X142511000Y-91864000D01*
X144271000Y-88984000D02*
X144271000Y-84375000D01*
X144711000Y-96642000D02*
X144711000Y-84206000D01*
X146592000Y-96999000D02*
X146592000Y-83849000D01*
X145071000Y-96755000D02*
X145071000Y-84093000D01*
X142111000Y-88984000D02*
X142111000Y-85863000D01*
X140551000Y-92355000D02*
X140551000Y-88493000D01*
X143591000Y-96135000D02*
X143591000Y-91864000D01*
X146512000Y-96995000D02*
X146512000Y-83853000D01*
X141991000Y-94858000D02*
X141991000Y-91864000D01*
X141711000Y-94532000D02*
X141711000Y-91864000D01*
X141791000Y-88984000D02*
X141791000Y-86219000D01*
X142991000Y-88984000D02*
X142991000Y-85100000D01*
X141551000Y-94324000D02*
X141551000Y-86524000D01*
X144471000Y-88984000D02*
X144471000Y-84294000D01*
X142951000Y-95719000D02*
X142951000Y-91864000D01*
X144831000Y-96682000D02*
X144831000Y-84166000D01*
X144071000Y-96383000D02*
X144071000Y-91864000D01*
X144911000Y-96708000D02*
X144911000Y-84140000D01*
X145351000Y-96828000D02*
X145351000Y-84020000D01*
X144511000Y-96570000D02*
X144511000Y-91864000D01*
X143071000Y-95805000D02*
X143071000Y-91864000D01*
X143111000Y-95833000D02*
X143111000Y-91864000D01*
X140591000Y-92479000D02*
X140591000Y-88369000D01*
X140991000Y-93426000D02*
X140991000Y-87422000D01*
X142471000Y-95331000D02*
X142471000Y-91864000D01*
X143471000Y-88984000D02*
X143471000Y-84783000D01*
X140791000Y-93003000D02*
X140791000Y-87845000D01*
X146752000Y-97003000D02*
X146752000Y-83845000D01*
X145831000Y-96922000D02*
X145831000Y-83926000D01*
X146192000Y-96969000D02*
X146192000Y-83879000D01*
X141751000Y-88984000D02*
X141751000Y-86267000D01*
X146792000Y-97004000D02*
X146792000Y-83844000D01*
X146352000Y-96984000D02*
X146352000Y-83864000D01*
X145471000Y-96855000D02*
X145471000Y-83993000D01*
X142911000Y-88984000D02*
X142911000Y-85159000D01*
X142231000Y-95106000D02*
X142231000Y-91864000D01*
X142271000Y-95145000D02*
X142271000Y-91864000D01*
X142711000Y-88984000D02*
X142711000Y-85314000D01*
X144991000Y-96732000D02*
X144991000Y-84116000D01*
X146712000Y-97003000D02*
X146712000Y-83845000D01*
X143031000Y-95777000D02*
X143031000Y-91864000D01*
X153306569Y-94789000D02*
X153306569Y-93489000D01*
X143191000Y-95887000D02*
X143191000Y-91864000D01*
X143031000Y-88984000D02*
X143031000Y-85071000D01*
X143111000Y-88984000D02*
X143111000Y-85015000D01*
X143991000Y-88984000D02*
X143991000Y-84503000D01*
X144511000Y-88984000D02*
X144511000Y-84278000D01*
X146151000Y-96965000D02*
X146151000Y-83883000D01*
X142391000Y-88984000D02*
X142391000Y-85590000D01*
X141951000Y-88984000D02*
X141951000Y-86034000D01*
X142591000Y-88984000D02*
X142591000Y-85413000D01*
X142151000Y-88984000D02*
X142151000Y-85822000D01*
X143791000Y-88984000D02*
X143791000Y-84604000D01*
X145991000Y-96946000D02*
X145991000Y-83902000D01*
X143511000Y-88984000D02*
X143511000Y-84760000D01*
X144111000Y-88984000D02*
X144111000Y-84446000D01*
X145911000Y-96935000D02*
X145911000Y-83913000D01*
X144671000Y-96628000D02*
X144671000Y-84220000D01*
X142311000Y-88984000D02*
X142311000Y-85664000D01*
X141831000Y-94677000D02*
X141831000Y-91864000D01*
X140311000Y-91274000D02*
X140311000Y-89574000D01*
X141071000Y-93576000D02*
X141071000Y-87272000D01*
X143431000Y-96041000D02*
X143431000Y-91864000D01*
X142271000Y-88984000D02*
X142271000Y-85703000D01*
X144231000Y-88984000D02*
X144231000Y-84393000D01*
X146672000Y-97001000D02*
X146672000Y-83847000D01*
X145431000Y-96846000D02*
X145431000Y-84002000D01*
X142071000Y-88984000D02*
X142071000Y-85905000D01*
X142831000Y-88984000D02*
X142831000Y-85219000D01*
X143551000Y-96112000D02*
X143551000Y-91864000D01*
X143871000Y-96286000D02*
X143871000Y-91864000D01*
X143151000Y-95860000D02*
X143151000Y-91864000D01*
X140951000Y-93347000D02*
X140951000Y-87501000D01*
X141911000Y-88984000D02*
X141911000Y-86079000D01*
X142231000Y-88984000D02*
X142231000Y-85742000D01*
X144271000Y-96473000D02*
X144271000Y-91864000D01*
X144951000Y-96720000D02*
X144951000Y-84128000D01*
X143311000Y-88984000D02*
X143311000Y-84882000D01*
X140751000Y-92908000D02*
X140751000Y-87940000D01*
X141271000Y-93915000D02*
X141271000Y-86933000D01*
X141311000Y-93978000D02*
X141311000Y-86870000D01*
X143631000Y-96157000D02*
X143631000Y-91864000D01*
X145271000Y-96808000D02*
X145271000Y-84040000D01*
X144631000Y-96614000D02*
X144631000Y-84234000D01*
X142151000Y-95026000D02*
X142151000Y-91864000D01*
X145671000Y-96895000D02*
X145671000Y-83953000D01*
X141191000Y-93785000D02*
X141191000Y-87063000D01*
X141231000Y-93851000D02*
X141231000Y-86997000D01*
X143351000Y-95991000D02*
X143351000Y-91864000D01*
X144071000Y-88984000D02*
X144071000Y-84465000D01*
X140511000Y-92222000D02*
X140511000Y-88626000D01*
X143271000Y-95940000D02*
X143271000Y-91864000D01*
X144311000Y-88984000D02*
X144311000Y-84359000D01*
X145231000Y-96798000D02*
X145231000Y-84050000D01*
X142871000Y-88984000D02*
X142871000Y-85189000D01*
X145191000Y-96788000D02*
X145191000Y-84060000D01*
X144191000Y-96438000D02*
X144191000Y-91864000D01*
X144751000Y-96656000D02*
X144751000Y-84192000D01*
X145551000Y-96872000D02*
X145551000Y-83976000D01*
X140391000Y-91739000D02*
X140391000Y-89109000D01*
X141791000Y-94629000D02*
X141791000Y-91864000D01*
X144031000Y-96364000D02*
X144031000Y-91864000D01*
X144391000Y-96522000D02*
X144391000Y-91864000D01*
X141911000Y-94769000D02*
X141911000Y-91864000D01*
X141471000Y-94214000D02*
X141471000Y-86634000D01*
X142991000Y-95748000D02*
X142991000Y-91864000D01*
X143831000Y-96265000D02*
X143831000Y-91864000D01*
X145311000Y-96818000D02*
X145311000Y-84030000D01*
X142031000Y-88984000D02*
X142031000Y-85947000D01*
X140271000Y-90899000D02*
X140271000Y-89949000D01*
X153956569Y-94139000D02*
X152656569Y-94139000D01*
X145511000Y-96863000D02*
X145511000Y-83985000D01*
X144591000Y-96599000D02*
X144591000Y-84249000D01*
X145031000Y-96744000D02*
X145031000Y-84104000D01*
X140471000Y-92077000D02*
X140471000Y-88771000D01*
X144351000Y-88984000D02*
X144351000Y-84342000D01*
X144871000Y-96695000D02*
X144871000Y-84153000D01*
X142471000Y-88984000D02*
X142471000Y-85517000D01*
X145871000Y-96929000D02*
X145871000Y-83919000D01*
X144791000Y-96669000D02*
X144791000Y-84179000D01*
X140871000Y-93182000D02*
X140871000Y-87666000D01*
X141631000Y-94430000D02*
X141631000Y-86418000D01*
X142671000Y-88984000D02*
X142671000Y-85346000D01*
X143751000Y-88984000D02*
X143751000Y-84625000D01*
X142551000Y-88984000D02*
X142551000Y-85447000D01*
X143751000Y-96223000D02*
X143751000Y-91864000D01*
X146552000Y-96997000D02*
X146552000Y-83851000D01*
X143191000Y-88984000D02*
X143191000Y-84961000D01*
X146872000Y-97004000D02*
X146872000Y-83844000D01*
X143391000Y-88984000D02*
X143391000Y-84832000D01*
X140911000Y-93266000D02*
X140911000Y-87582000D01*
X144551000Y-96585000D02*
X144551000Y-91864000D01*
X145951000Y-96940000D02*
X145951000Y-83908000D01*
X143671000Y-96180000D02*
X143671000Y-91864000D01*
X142631000Y-88984000D02*
X142631000Y-85380000D01*
X146272000Y-96977000D02*
X146272000Y-83871000D01*
X142191000Y-95067000D02*
X142191000Y-91864000D01*
X143711000Y-96202000D02*
X143711000Y-91864000D01*
X153492000Y-90424000D02*
G75*
G03*
X153492000Y-90424000I-6620000J0D01*
G01*
%TO.C,C2*%
X101744113Y-110974000D02*
X101744113Y-109666000D01*
X100864113Y-113713000D02*
X100864113Y-113054000D01*
X100584113Y-113333000D02*
X100584113Y-113054000D01*
X100624113Y-113397000D02*
X100624113Y-113054000D01*
X102345113Y-110974000D02*
X102345113Y-109478000D01*
X101544113Y-114261000D02*
X101544113Y-113054000D01*
X102825113Y-114594000D02*
X102825113Y-109434000D01*
X101664113Y-110974000D02*
X101664113Y-109704000D01*
X100984113Y-110974000D02*
X100984113Y-110188000D01*
X101384113Y-110974000D02*
X101384113Y-109865000D01*
X102104113Y-110974000D02*
X102104113Y-109534000D01*
X101344113Y-110974000D02*
X101344113Y-109892000D01*
X100664113Y-113457000D02*
X100664113Y-113054000D01*
X102745113Y-114593000D02*
X102745113Y-109435000D01*
X101224113Y-114049000D02*
X101224113Y-113054000D01*
X100264113Y-112532000D02*
X100264113Y-111496000D01*
X102024113Y-114469000D02*
X102024113Y-113054000D01*
X101504113Y-114238000D02*
X101504113Y-113054000D01*
X101704113Y-110974000D02*
X101704113Y-109685000D01*
X100904113Y-110974000D02*
X100904113Y-110271000D01*
X101184113Y-110974000D02*
X101184113Y-110010000D01*
X100584113Y-110974000D02*
X100584113Y-110695000D01*
X100544113Y-110974000D02*
X100544113Y-110763000D01*
X101024113Y-110974000D02*
X101024113Y-110150000D01*
X102265113Y-110974000D02*
X102265113Y-109494000D01*
X102345113Y-114550000D02*
X102345113Y-113054000D01*
X102104113Y-114494000D02*
X102104113Y-113054000D01*
X101904113Y-114428000D02*
X101904113Y-113054000D01*
X102145113Y-110974000D02*
X102145113Y-109523000D01*
X100304113Y-112691000D02*
X100304113Y-111337000D01*
X101424113Y-114189000D02*
X101424113Y-113054000D01*
X102064113Y-110974000D02*
X102064113Y-109546000D01*
X100944113Y-113799000D02*
X100944113Y-113054000D01*
X100664113Y-110974000D02*
X100664113Y-110571000D01*
X101104113Y-113951000D02*
X101104113Y-113054000D01*
X101384113Y-114163000D02*
X101384113Y-113054000D01*
X101704113Y-114343000D02*
X101704113Y-113054000D01*
X102465113Y-110974000D02*
X102465113Y-109458000D01*
X100624113Y-110974000D02*
X100624113Y-110631000D01*
X102225113Y-114525000D02*
X102225113Y-113054000D01*
X100464113Y-113112000D02*
X100464113Y-110916000D01*
X100904113Y-113757000D02*
X100904113Y-113054000D01*
X102585113Y-110974000D02*
X102585113Y-109445000D01*
X102305113Y-110974000D02*
X102305113Y-109486000D01*
X102385113Y-114557000D02*
X102385113Y-113054000D01*
X102665113Y-114590000D02*
X102665113Y-109438000D01*
X101304113Y-114109000D02*
X101304113Y-113054000D01*
X101584113Y-110974000D02*
X101584113Y-109746000D01*
X101824113Y-114396000D02*
X101824113Y-113054000D01*
X102185113Y-110974000D02*
X102185113Y-109513000D01*
X102305113Y-114542000D02*
X102305113Y-113054000D01*
X102785113Y-114594000D02*
X102785113Y-109434000D01*
X101784113Y-114379000D02*
X101784113Y-113054000D01*
X100824113Y-110974000D02*
X100824113Y-110361000D01*
X102185113Y-114515000D02*
X102185113Y-113054000D01*
X102505113Y-114575000D02*
X102505113Y-113054000D01*
X101464113Y-114214000D02*
X101464113Y-113054000D01*
X101224113Y-110974000D02*
X101224113Y-109979000D01*
X100984113Y-113840000D02*
X100984113Y-113054000D01*
X102425113Y-110974000D02*
X102425113Y-109464000D01*
X101984113Y-114456000D02*
X101984113Y-113054000D01*
X102265113Y-114534000D02*
X102265113Y-113054000D01*
X102425113Y-114564000D02*
X102425113Y-113054000D01*
X101424113Y-110974000D02*
X101424113Y-109839000D01*
X101864113Y-110974000D02*
X101864113Y-109616000D01*
X102705113Y-114592000D02*
X102705113Y-109436000D01*
X102625113Y-114587000D02*
X102625113Y-109441000D01*
X102585113Y-114583000D02*
X102585113Y-113054000D01*
X102225113Y-110974000D02*
X102225113Y-109503000D01*
X100944113Y-110974000D02*
X100944113Y-110229000D01*
X101624113Y-114304000D02*
X101624113Y-113054000D01*
X101264113Y-114079000D02*
X101264113Y-113054000D01*
X101784113Y-110974000D02*
X101784113Y-109649000D01*
X100824113Y-113667000D02*
X100824113Y-113054000D01*
X102465113Y-114570000D02*
X102465113Y-113054000D01*
X101104113Y-110974000D02*
X101104113Y-110077000D01*
X101984113Y-110974000D02*
X101984113Y-109572000D01*
X101264113Y-110974000D02*
X101264113Y-109949000D01*
X101544113Y-110974000D02*
X101544113Y-109767000D01*
X101064113Y-110974000D02*
X101064113Y-110113000D01*
X102024113Y-110974000D02*
X102024113Y-109559000D01*
X101504113Y-110974000D02*
X101504113Y-109790000D01*
X101864113Y-114412000D02*
X101864113Y-113054000D01*
X105629888Y-113489000D02*
X105129888Y-113489000D01*
X100784113Y-110974000D02*
X100784113Y-110409000D01*
X100344113Y-112819000D02*
X100344113Y-111209000D01*
X100544113Y-113265000D02*
X100544113Y-113054000D01*
X101944113Y-110974000D02*
X101944113Y-109586000D01*
X102545113Y-110974000D02*
X102545113Y-109449000D01*
X100224113Y-112298000D02*
X100224113Y-111730000D01*
X101944113Y-114442000D02*
X101944113Y-113054000D01*
X100424113Y-113025000D02*
X100424113Y-111003000D01*
X101824113Y-110974000D02*
X101824113Y-109632000D01*
X101184113Y-114018000D02*
X101184113Y-113054000D01*
X100704113Y-113514000D02*
X100704113Y-113054000D01*
X100504113Y-113192000D02*
X100504113Y-110836000D01*
X101344113Y-114136000D02*
X101344113Y-113054000D01*
X101464113Y-110974000D02*
X101464113Y-109814000D01*
X101904113Y-110974000D02*
X101904113Y-109600000D01*
X105379888Y-113739000D02*
X105379888Y-113239000D01*
X101744113Y-114362000D02*
X101744113Y-113054000D01*
X101144113Y-113985000D02*
X101144113Y-113054000D01*
X102145113Y-114505000D02*
X102145113Y-113054000D01*
X101304113Y-110974000D02*
X101304113Y-109919000D01*
X102505113Y-110974000D02*
X102505113Y-109453000D01*
X101624113Y-110974000D02*
X101624113Y-109724000D01*
X101584113Y-114282000D02*
X101584113Y-113054000D01*
X100744113Y-113568000D02*
X100744113Y-113054000D01*
X101664113Y-114324000D02*
X101664113Y-113054000D01*
X100744113Y-110974000D02*
X100744113Y-110460000D01*
X100384113Y-112929000D02*
X100384113Y-111099000D01*
X101144113Y-110974000D02*
X101144113Y-110043000D01*
X102545113Y-114579000D02*
X102545113Y-113054000D01*
X100704113Y-110974000D02*
X100704113Y-110514000D01*
X101064113Y-113915000D02*
X101064113Y-113054000D01*
X102385113Y-110974000D02*
X102385113Y-109471000D01*
X100784113Y-113619000D02*
X100784113Y-113054000D01*
X102064113Y-114482000D02*
X102064113Y-113054000D01*
X100864113Y-110974000D02*
X100864113Y-110315000D01*
X101024113Y-113878000D02*
X101024113Y-113054000D01*
X105445113Y-112014000D02*
G75*
G03*
X105445113Y-112014000I-2620000J0D01*
G01*
%TO.C,C1*%
X119489784Y-113520000D02*
X119489784Y-103396000D01*
X125529784Y-117411000D02*
X125529784Y-99505000D01*
X135910224Y-114473000D02*
X135910224Y-112673000D01*
X126450784Y-117519000D02*
X126450784Y-99397000D01*
X126610784Y-117528000D02*
X126610784Y-99388000D01*
X123889784Y-107018000D02*
X123889784Y-99942000D01*
X121609784Y-115738000D02*
X121609784Y-101178000D01*
X119929784Y-114118000D02*
X119929784Y-102798000D01*
X123809784Y-116944000D02*
X123809784Y-109898000D01*
X126770784Y-117534000D02*
X126770784Y-99382000D01*
X126169784Y-117496000D02*
X126169784Y-99420000D01*
X124049784Y-107018000D02*
X124049784Y-99885000D01*
X125489784Y-117404000D02*
X125489784Y-99512000D01*
X124729784Y-117238000D02*
X124729784Y-109898000D01*
X126410784Y-117516000D02*
X126410784Y-99400000D01*
X122609784Y-116385000D02*
X122609784Y-109898000D01*
X122849784Y-107018000D02*
X122849784Y-100402000D01*
X121449784Y-115617000D02*
X121449784Y-101299000D01*
X118450784Y-111454000D02*
X118450784Y-105462000D01*
X121009784Y-115252000D02*
X121009784Y-101664000D01*
X123689784Y-107018000D02*
X123689784Y-100019000D01*
X124209784Y-107018000D02*
X124209784Y-99831000D01*
X123089784Y-107018000D02*
X123089784Y-100282000D01*
X118770784Y-112242000D02*
X118770784Y-104674000D01*
X126930784Y-117538000D02*
X126930784Y-99378000D01*
X125369784Y-117382000D02*
X125369784Y-99534000D01*
X119369784Y-113337000D02*
X119369784Y-103579000D01*
X123649784Y-116881000D02*
X123649784Y-109898000D01*
X120129784Y-114359000D02*
X120129784Y-102557000D01*
X121129784Y-115356000D02*
X121129784Y-101560000D01*
X118610784Y-111874000D02*
X118610784Y-105042000D01*
X118690784Y-112063000D02*
X118690784Y-104853000D01*
X118050784Y-109893000D02*
X118050784Y-107023000D01*
X118010784Y-109624000D02*
X118010784Y-107292000D01*
X122209784Y-116148000D02*
X122209784Y-109898000D01*
X121929784Y-115966000D02*
X121929784Y-109898000D01*
X119169784Y-113010000D02*
X119169784Y-103906000D01*
X122529784Y-107018000D02*
X122529784Y-100576000D01*
X124449784Y-107018000D02*
X124449784Y-99756000D01*
X124689784Y-107018000D02*
X124689784Y-99688000D01*
X124289784Y-117111000D02*
X124289784Y-109898000D01*
X126009784Y-117479000D02*
X126009784Y-99437000D01*
X122889784Y-107018000D02*
X122889784Y-100382000D01*
X120289784Y-114540000D02*
X120289784Y-102376000D01*
X123849784Y-107018000D02*
X123849784Y-99957000D01*
X121249784Y-115457000D02*
X121249784Y-101459000D01*
X126329784Y-117510000D02*
X126329784Y-99406000D01*
X119209784Y-113078000D02*
X119209784Y-103838000D01*
X121289784Y-115489000D02*
X121289784Y-101427000D01*
X123129784Y-116653000D02*
X123129784Y-109898000D01*
X121489784Y-115648000D02*
X121489784Y-101268000D01*
X118210784Y-110661000D02*
X118210784Y-106255000D01*
X123329784Y-116745000D02*
X123329784Y-109898000D01*
X118490784Y-111565000D02*
X118490784Y-105351000D01*
X123849784Y-116959000D02*
X123849784Y-109898000D01*
X119609784Y-113693000D02*
X119609784Y-103223000D01*
X125129784Y-117334000D02*
X125129784Y-99582000D01*
X123489784Y-116815000D02*
X123489784Y-109898000D01*
X122369784Y-107018000D02*
X122369784Y-100670000D01*
X122969784Y-107018000D02*
X122969784Y-100341000D01*
X123689784Y-116897000D02*
X123689784Y-109898000D01*
X125849784Y-117459000D02*
X125849784Y-99457000D01*
X120049784Y-114264000D02*
X120049784Y-102652000D01*
X121889784Y-107018000D02*
X121889784Y-100978000D01*
X122729784Y-107018000D02*
X122729784Y-100466000D01*
X125649784Y-117430000D02*
X125649784Y-99486000D01*
X126249784Y-117503000D02*
X126249784Y-99413000D01*
X122409784Y-116270000D02*
X122409784Y-109898000D01*
X120249784Y-114496000D02*
X120249784Y-102420000D01*
X119449784Y-113460000D02*
X119449784Y-103456000D01*
X122689784Y-107018000D02*
X122689784Y-100487000D01*
X119769784Y-113912000D02*
X119769784Y-103004000D01*
X123569784Y-116848000D02*
X123569784Y-109898000D01*
X125409784Y-117390000D02*
X125409784Y-99526000D01*
X120329784Y-114584000D02*
X120329784Y-102332000D01*
X122249784Y-107018000D02*
X122249784Y-100743000D01*
X124009784Y-117017000D02*
X124009784Y-109898000D01*
X126850784Y-117536000D02*
X126850784Y-99380000D01*
X122329784Y-116222000D02*
X122329784Y-109898000D01*
X122569784Y-116362000D02*
X122569784Y-109898000D01*
X118290784Y-110956000D02*
X118290784Y-105960000D01*
X118090784Y-110119000D02*
X118090784Y-106797000D01*
X126810784Y-117535000D02*
X126810784Y-99381000D01*
X126690784Y-117531000D02*
X126690784Y-99385000D01*
X124769784Y-117249000D02*
X124769784Y-99667000D01*
X118170784Y-110497000D02*
X118170784Y-106419000D01*
X123609784Y-116865000D02*
X123609784Y-109898000D01*
X118969784Y-112648000D02*
X118969784Y-104268000D01*
X126730784Y-117533000D02*
X126730784Y-99383000D01*
X123169784Y-116672000D02*
X123169784Y-109898000D01*
X126530784Y-117524000D02*
X126530784Y-99392000D01*
X118530784Y-111672000D02*
X118530784Y-105244000D01*
X124929784Y-117289000D02*
X124929784Y-99627000D01*
X124609784Y-107018000D02*
X124609784Y-99710000D01*
X120209784Y-114451000D02*
X120209784Y-102465000D01*
X124529784Y-107018000D02*
X124529784Y-99733000D01*
X121089784Y-115322000D02*
X121089784Y-101594000D01*
X122689784Y-116429000D02*
X122689784Y-109898000D01*
X122089784Y-107018000D02*
X122089784Y-100844000D01*
X121969784Y-115993000D02*
X121969784Y-109898000D01*
X125569784Y-117418000D02*
X125569784Y-99498000D01*
X123329784Y-107018000D02*
X123329784Y-100171000D01*
X121689784Y-115797000D02*
X121689784Y-101119000D01*
X124129784Y-107018000D02*
X124129784Y-99858000D01*
X122569784Y-107018000D02*
X122569784Y-100554000D01*
X124649784Y-107018000D02*
X124649784Y-99699000D01*
X123969784Y-107018000D02*
X123969784Y-99913000D01*
X123569784Y-107018000D02*
X123569784Y-100068000D01*
X123049784Y-107018000D02*
X123049784Y-100302000D01*
X124569784Y-117195000D02*
X124569784Y-109898000D01*
X124169784Y-107018000D02*
X124169784Y-99844000D01*
X122289784Y-116198000D02*
X122289784Y-109898000D01*
X121049784Y-115287000D02*
X121049784Y-101629000D01*
X126370784Y-117513000D02*
X126370784Y-99403000D01*
X118850784Y-112410000D02*
X118850784Y-104506000D01*
X120809784Y-115070000D02*
X120809784Y-101846000D01*
X122449784Y-116293000D02*
X122449784Y-109898000D01*
X123729784Y-116913000D02*
X123729784Y-109898000D01*
X123249784Y-107018000D02*
X123249784Y-100207000D01*
X123449784Y-107018000D02*
X123449784Y-100118000D01*
X121969784Y-107018000D02*
X121969784Y-100923000D01*
X125929784Y-117469000D02*
X125929784Y-99447000D01*
X126049784Y-117484000D02*
X126049784Y-99432000D01*
X117930784Y-108498000D02*
X117930784Y-108418000D01*
X123129784Y-107018000D02*
X123129784Y-100263000D01*
X118730784Y-112154000D02*
X118730784Y-104762000D01*
X120649784Y-114916000D02*
X120649784Y-102000000D01*
X118810784Y-112327000D02*
X118810784Y-104589000D01*
X118130784Y-110318000D02*
X118130784Y-106598000D01*
X122969784Y-116575000D02*
X122969784Y-109898000D01*
X119649784Y-113749000D02*
X119649784Y-103167000D01*
X126650784Y-117530000D02*
X126650784Y-99386000D01*
X124129784Y-117058000D02*
X124129784Y-109898000D01*
X119249784Y-113144000D02*
X119249784Y-103772000D01*
X122209784Y-107018000D02*
X122209784Y-100768000D01*
X125209784Y-117351000D02*
X125209784Y-99565000D01*
X120409784Y-114670000D02*
X120409784Y-102246000D01*
X123969784Y-117003000D02*
X123969784Y-109898000D01*
X122129784Y-107018000D02*
X122129784Y-100818000D01*
X125169784Y-117343000D02*
X125169784Y-99573000D01*
X122289784Y-107018000D02*
X122289784Y-100718000D01*
X119129784Y-112940000D02*
X119129784Y-103976000D01*
X119049784Y-112797000D02*
X119049784Y-104119000D01*
X119009784Y-112723000D02*
X119009784Y-104193000D01*
X123889784Y-116974000D02*
X123889784Y-109898000D01*
X121209784Y-115423000D02*
X121209784Y-101493000D01*
X123409784Y-107018000D02*
X123409784Y-100135000D01*
X123209784Y-107018000D02*
X123209784Y-100225000D01*
X122649784Y-107018000D02*
X122649784Y-100509000D01*
X123369784Y-116763000D02*
X123369784Y-109898000D01*
X121369784Y-115554000D02*
X121369784Y-101362000D01*
X120489784Y-114754000D02*
X120489784Y-102162000D01*
X122169784Y-116123000D02*
X122169784Y-109898000D01*
X123769784Y-107018000D02*
X123769784Y-99988000D01*
X125889784Y-117464000D02*
X125889784Y-99452000D01*
X126570784Y-117526000D02*
X126570784Y-99390000D01*
X121889784Y-115938000D02*
X121889784Y-109898000D01*
X121169784Y-115390000D02*
X121169784Y-101526000D01*
X121569784Y-115708000D02*
X121569784Y-101208000D01*
X121649784Y-115768000D02*
X121649784Y-101148000D01*
X122809784Y-107018000D02*
X122809784Y-100423000D01*
X118330784Y-111090000D02*
X118330784Y-105826000D01*
X124329784Y-107018000D02*
X124329784Y-99793000D01*
X118570784Y-111775000D02*
X118570784Y-105141000D01*
X126089784Y-117488000D02*
X126089784Y-99428000D01*
X123729784Y-107018000D02*
X123729784Y-100003000D01*
X120729784Y-114994000D02*
X120729784Y-101922000D01*
X122889784Y-116534000D02*
X122889784Y-109898000D01*
X123929784Y-107018000D02*
X123929784Y-99928000D01*
X123529784Y-107018000D02*
X123529784Y-100084000D01*
X120529784Y-114795000D02*
X120529784Y-102121000D01*
X123169784Y-107018000D02*
X123169784Y-100244000D01*
X119569784Y-113636000D02*
X119569784Y-103280000D01*
X122009784Y-107018000D02*
X122009784Y-100897000D01*
X120009784Y-114216000D02*
X120009784Y-102700000D01*
X122809784Y-116493000D02*
X122809784Y-109898000D01*
X121529784Y-115678000D02*
X121529784Y-101238000D01*
X126490784Y-117521000D02*
X126490784Y-99395000D01*
X123249784Y-116709000D02*
X123249784Y-109898000D01*
X122089784Y-116072000D02*
X122089784Y-109898000D01*
X122129784Y-116098000D02*
X122129784Y-109898000D01*
X119809784Y-113964000D02*
X119809784Y-102952000D01*
X124489784Y-117172000D02*
X124489784Y-109898000D01*
X124089784Y-107018000D02*
X124089784Y-99871000D01*
X122529784Y-116340000D02*
X122529784Y-109898000D01*
X120929784Y-115180000D02*
X120929784Y-101736000D01*
X125689784Y-117437000D02*
X125689784Y-99479000D01*
X136810224Y-113573000D02*
X135010224Y-113573000D01*
X124009784Y-107018000D02*
X124009784Y-99899000D01*
X119289784Y-113210000D02*
X119289784Y-103706000D01*
X122489784Y-116317000D02*
X122489784Y-109898000D01*
X120609784Y-114876000D02*
X120609784Y-102040000D01*
X121809784Y-115883000D02*
X121809784Y-101033000D01*
X126129784Y-117492000D02*
X126129784Y-99424000D01*
X120169784Y-114405000D02*
X120169784Y-102511000D01*
X121329784Y-115522000D02*
X121329784Y-101394000D01*
X125449784Y-117397000D02*
X125449784Y-99519000D01*
X125729784Y-117442000D02*
X125729784Y-99474000D01*
X124969784Y-117298000D02*
X124969784Y-99618000D01*
X123209784Y-116691000D02*
X123209784Y-109898000D01*
X120369784Y-114628000D02*
X120369784Y-102288000D01*
X122009784Y-116019000D02*
X122009784Y-109898000D01*
X124289784Y-107018000D02*
X124289784Y-99805000D01*
X124409784Y-117148000D02*
X124409784Y-109898000D01*
X123809784Y-107018000D02*
X123809784Y-99972000D01*
X118889784Y-112491000D02*
X118889784Y-104425000D01*
X123289784Y-116727000D02*
X123289784Y-109898000D01*
X118410784Y-111338000D02*
X118410784Y-105578000D01*
X119729784Y-113858000D02*
X119729784Y-103058000D01*
X125329784Y-117375000D02*
X125329784Y-99541000D01*
X120969784Y-115216000D02*
X120969784Y-101700000D01*
X119089784Y-112870000D02*
X119089784Y-104046000D01*
X122609784Y-107018000D02*
X122609784Y-100531000D01*
X123369784Y-107018000D02*
X123369784Y-100153000D01*
X119529784Y-113578000D02*
X119529784Y-103338000D01*
X126289784Y-117507000D02*
X126289784Y-99409000D01*
X122329784Y-107018000D02*
X122329784Y-100694000D01*
X119409784Y-113399000D02*
X119409784Y-103517000D01*
X124689784Y-117228000D02*
X124689784Y-109898000D01*
X119849784Y-114016000D02*
X119849784Y-102900000D01*
X121929784Y-107018000D02*
X121929784Y-100950000D01*
X124569784Y-107018000D02*
X124569784Y-99721000D01*
X120089784Y-114312000D02*
X120089784Y-102604000D01*
X124649784Y-117217000D02*
X124649784Y-109898000D01*
X122169784Y-107018000D02*
X122169784Y-100793000D01*
X122769784Y-107018000D02*
X122769784Y-100444000D01*
X123009784Y-107018000D02*
X123009784Y-100321000D01*
X125969784Y-117474000D02*
X125969784Y-99442000D01*
X118929784Y-112571000D02*
X118929784Y-104345000D01*
X125009784Y-117307000D02*
X125009784Y-99609000D01*
X124529784Y-117183000D02*
X124529784Y-109898000D01*
X120449784Y-114712000D02*
X120449784Y-102204000D01*
X122449784Y-107018000D02*
X122449784Y-100623000D01*
X123009784Y-116595000D02*
X123009784Y-109898000D01*
X122249784Y-116173000D02*
X122249784Y-109898000D01*
X126890784Y-117537000D02*
X126890784Y-99379000D01*
X125769784Y-117448000D02*
X125769784Y-99468000D01*
X124449784Y-117160000D02*
X124449784Y-109898000D01*
X127050784Y-117539000D02*
X127050784Y-99377000D01*
X126209784Y-117500000D02*
X126209784Y-99416000D01*
X120769784Y-115032000D02*
X120769784Y-101884000D01*
X122049784Y-116046000D02*
X122049784Y-109898000D01*
X122409784Y-107018000D02*
X122409784Y-100646000D01*
X123929784Y-116988000D02*
X123929784Y-109898000D01*
X124609784Y-117206000D02*
X124609784Y-109898000D01*
X120849784Y-115107000D02*
X120849784Y-101809000D01*
X119969784Y-114167000D02*
X119969784Y-102749000D01*
X123049784Y-116614000D02*
X123049784Y-109898000D01*
X119329784Y-113274000D02*
X119329784Y-103642000D01*
X118250784Y-110813000D02*
X118250784Y-106103000D01*
X117970784Y-109272000D02*
X117970784Y-107644000D01*
X125609784Y-117424000D02*
X125609784Y-99492000D01*
X125289784Y-117367000D02*
X125289784Y-99549000D01*
X119689784Y-113804000D02*
X119689784Y-103112000D01*
X124249784Y-107018000D02*
X124249784Y-99818000D01*
X125089784Y-117325000D02*
X125089784Y-99591000D01*
X126970784Y-117538000D02*
X126970784Y-99378000D01*
X123449784Y-116798000D02*
X123449784Y-109898000D01*
X120689784Y-114955000D02*
X120689784Y-101961000D01*
X124489784Y-107018000D02*
X124489784Y-99744000D01*
X124169784Y-117072000D02*
X124169784Y-109898000D01*
X122929784Y-107018000D02*
X122929784Y-100361000D01*
X127010784Y-117538000D02*
X127010784Y-99378000D01*
X123769784Y-116928000D02*
X123769784Y-109898000D01*
X120569784Y-114836000D02*
X120569784Y-102080000D01*
X123649784Y-107018000D02*
X123649784Y-100035000D01*
X123529784Y-116832000D02*
X123529784Y-109898000D01*
X125249784Y-117359000D02*
X125249784Y-99557000D01*
X123489784Y-107018000D02*
X123489784Y-100101000D01*
X122929784Y-116555000D02*
X122929784Y-109898000D01*
X123089784Y-116634000D02*
X123089784Y-109898000D01*
X122369784Y-116246000D02*
X122369784Y-109898000D01*
X124889784Y-117279000D02*
X124889784Y-99637000D01*
X122769784Y-116472000D02*
X122769784Y-109898000D01*
X124849784Y-117269000D02*
X124849784Y-99647000D01*
X122649784Y-116407000D02*
X122649784Y-109898000D01*
X124329784Y-117123000D02*
X124329784Y-109898000D01*
X124729784Y-107018000D02*
X124729784Y-99678000D01*
X124089784Y-117045000D02*
X124089784Y-109898000D01*
X124209784Y-117085000D02*
X124209784Y-109898000D01*
X124049784Y-117031000D02*
X124049784Y-109898000D01*
X121769784Y-115855000D02*
X121769784Y-101061000D01*
X120889784Y-115144000D02*
X120889784Y-101772000D01*
X124809784Y-117259000D02*
X124809784Y-99657000D01*
X123609784Y-107018000D02*
X123609784Y-100051000D01*
X122849784Y-116514000D02*
X122849784Y-109898000D01*
X123289784Y-107018000D02*
X123289784Y-100189000D01*
X125049784Y-117316000D02*
X125049784Y-99600000D01*
X124249784Y-117098000D02*
X124249784Y-109898000D01*
X121849784Y-115911000D02*
X121849784Y-101005000D01*
X124369784Y-107018000D02*
X124369784Y-99780000D01*
X118370784Y-111217000D02*
X118370784Y-105699000D01*
X123409784Y-116781000D02*
X123409784Y-109898000D01*
X118650784Y-111970000D02*
X118650784Y-104946000D01*
X124369784Y-117136000D02*
X124369784Y-109898000D01*
X121409784Y-115585000D02*
X121409784Y-101331000D01*
X122049784Y-107018000D02*
X122049784Y-100870000D01*
X122729784Y-116450000D02*
X122729784Y-109898000D01*
X122489784Y-107018000D02*
X122489784Y-100599000D01*
X119889784Y-114067000D02*
X119889784Y-102849000D01*
X124409784Y-107018000D02*
X124409784Y-99768000D01*
X125809784Y-117454000D02*
X125809784Y-99462000D01*
X121729784Y-115826000D02*
X121729784Y-101090000D01*
X136170784Y-108458000D02*
G75*
G03*
X136170784Y-108458000I-9120000J0D01*
G01*
%TD*%
M02*
